SplineFontDB: 3.0
FontName: FastBrushScript-Regular
FullName: Fast Brush Script
FamilyName: Fast Brush Script
Weight: Book
Copyright: Copyright (c) 2011, Pablo Impallari (www.impallari.com|impallari@gmail.com), Copyright (c) 2011, Igino Marini. (www.ikern.com|mail@iginomarini.com), with Reserved Font Name Fast Brush Script.
Version: 1.001
ItalicAngle: 0
UnderlinePosition: -49
UnderlineWidth: 47
Ascent: 800
Descent: 200
sfntRevision: 0x00010000
LayerCount: 2
Layer: 0 1 "Back"  1
Layer: 1 1 "Fore"  0
XUID: [1021 544 39632131 8742854]
FSType: 0
OS2Version: 3
OS2_WeightWidthSlopeOnly: 0
OS2_UseTypoMetrics: 1
CreationTime: 1326132300
ModificationTime: 1327092523
PfmFamily: 65
TTFWeight: 400
TTFWidth: 5
LineGap: 0
VLineGap: 0
Panose: 3 6 6 2 4 7 5 8 2 5
OS2TypoAscent: 33
OS2TypoAOffset: 1
OS2TypoDescent: -167
OS2TypoDOffset: 1
OS2TypoLinegap: 0
OS2WinAscent: -201
OS2WinAOffset: 1
OS2WinDescent: 0
OS2WinDOffset: 1
HheadAscent: -201
HheadAOffset: 1
HheadDescent: 0
HheadDOffset: 1
OS2SubXSize: 700
OS2SubYSize: 650
OS2SubXOff: 0
OS2SubYOff: 140
OS2SupXSize: 700
OS2SupYSize: 650
OS2SupXOff: 0
OS2SupYOff: 477
OS2StrikeYSize: 50
OS2StrikeYPos: 250
OS2FamilyClass: 2566
OS2Vendor: 'pyrs'
OS2CodePages: 00000093.00000000
OS2UnicodeRanges: a00000bf.5000005b.00000000.00000000
Lookup: 1 0 0 "'aalt' Access All Alternates in Latin lookup 0"  {"'aalt' Access All Alternates in Latin lookup 0 subtable"  } ['aalt' ('latn' <'dflt' > ) ]
Lookup: 3 0 0 "'aalt' Access All Alternates in Latin lookup 1"  {"'aalt' Access All Alternates in Latin lookup 1 subtable"  } ['aalt' ('latn' <'dflt' > ) ]
Lookup: 4 0 1 "'liga' Standard Ligatures in Latin lookup 2"  {"'liga' Standard Ligatures in Latin lookup 2 subtable"  } ['liga' ('latn' <'dflt' > ) ]
Lookup: 1 0 0 "'salt' Stylistic Alternatives in Latin lookup 3"  {"'salt' Stylistic Alternatives in Latin lookup 3 subtable"  } ['salt' ('latn' <'dflt' > ) ]

StartChar: .notdef
Encoding: 65536 -1 0
Width: 444
Flags: W
LayerCount: 2
Fore
SplineSet
60 714 m 1,0,-1
 384 714 l 1,1,-1
 384 0 l 1,2,-1
 60 0 l 1,3,-1
 60 714 l 1,0,-1
96 30 m 1,4,-1
 348 30 l 1,5,-1
 348 684 l 1,6,-1
 96 684 l 1,7,-1
 96 30 l 1,4,-1
EndSplineSet
EndChar

StartChar: A
Encoding: 65 65 1
Width: 642
Flags: W
LayerCount: 2
Fore
SplineSet
146 -76 m 1,0,1
 98 -62 98 -62 79.5 -48 c 128,-1,2
 61 -34 61 -34 61 -13 c 0,3,4
 61 3 61 3 70 32 c 128,-1,5
 79 61 79 61 96.5 100.5 c 128,-1,6
 114 140 114 140 138.5 188 c 128,-1,7
 163 236 163 236 194 291 c 1,8,9
 168 292 168 292 147.5 292.5 c 128,-1,10
 127 293 127 293 114 293 c 1,11,12
 120 308 120 308 148 319 c 128,-1,13
 176 330 176 330 222 338 c 1,14,15
 261 403 261 403 305.5 462 c 128,-1,16
 350 521 350 521 395 570.5 c 128,-1,17
 440 620 440 620 485 657.5 c 128,-1,18
 530 695 530 695 571 717 c 1,19,20
 572 724 572 724 572.5 729 c 128,-1,21
 573 734 573 734 573 736 c 1,22,23
 587 736 587 736 610.5 729 c 128,-1,24
 634 722 634 722 656.5 712 c 128,-1,25
 679 702 679 702 696.5 691.5 c 128,-1,26
 714 681 714 681 716 674 c 1,27,28
 683 616 683 616 651 500.5 c 128,-1,29
 619 385 619 385 598 224 c 0,30,31
 593 184 593 184 589.5 133 c 128,-1,32
 586 82 586 82 586 19 c 0,33,34
 586 -3 586 -3 586 -26 c 128,-1,35
 586 -49 586 -49 588 -74 c 1,36,37
 586 -75 586 -75 584 -75 c 128,-1,38
 582 -75 582 -75 576 -75 c 0,39,40
 562 -75 562 -75 543.5 -70.5 c 128,-1,41
 525 -66 525 -66 507.5 -59.5 c 128,-1,42
 490 -53 490 -53 477.5 -45 c 128,-1,43
 465 -37 465 -37 462 -31 c 1,44,45
 461 -18 461 -18 461 -5.5 c 128,-1,46
 461 7 461 7 461 21 c 0,47,48
 461 83 461 83 465.5 147 c 128,-1,49
 470 211 470 211 481 279 c 1,50,51
 467 280 467 280 444 281.5 c 128,-1,52
 421 283 421 283 392.5 284 c 128,-1,53
 364 285 364 285 331.5 286.5 c 128,-1,54
 299 288 299 288 268 289 c 1,55,56
 244 244 244 244 223 199.5 c 128,-1,57
 202 155 202 155 187 110 c 0,58,59
 170 62 170 62 159.5 14 c 128,-1,60
 149 -34 149 -34 146 -76 c 1,0,1
532 525 m 0,61,62
 536 539 536 539 541.5 563.5 c 128,-1,63
 547 588 547 588 552 615 c 1,64,65
 527 606 527 606 496.5 582 c 128,-1,66
 466 558 466 558 433.5 522.5 c 128,-1,67
 401 487 401 487 367.5 442.5 c 128,-1,68
 334 398 334 398 303 348 c 1,69,70
 387 355 387 355 494 357 c 1,71,72
 502 399 502 399 511.5 440.5 c 128,-1,73
 521 482 521 482 532 525 c 0,61,62
EndSplineSet
EndChar

StartChar: AE
Encoding: 198 198 2
Width: 914
Flags: W
LayerCount: 2
Fore
SplineSet
777 418 m 0,0,1
 830 418 830 418 859.5 400 c 128,-1,2
 889 382 889 382 889 350 c 0,3,4
 889 342 889 342 887 333.5 c 128,-1,5
 885 325 885 325 881 319 c 1,6,7
 861 321 861 321 835 322.5 c 128,-1,8
 809 324 809 324 774 324 c 0,9,10
 748 324 748 324 716 322.5 c 128,-1,11
 684 321 684 321 649 319 c 1,12,13
 625 265 625 265 605.5 214.5 c 128,-1,14
 586 164 586 164 572 122 c 128,-1,15
 558 80 558 80 550 49 c 128,-1,16
 542 18 542 18 541 3 c 1,17,18
 622 20 622 20 704.5 32 c 128,-1,19
 787 44 787 44 878 50 c 1,20,21
 889 33 889 33 896.5 13 c 128,-1,22
 904 -7 904 -7 904 -30 c 0,23,24
 904 -36 904 -36 904 -43 c 128,-1,25
 904 -50 904 -50 902 -57 c 1,26,27
 874 -56 874 -56 843 -55.5 c 128,-1,28
 812 -55 812 -55 762 -55 c 0,29,30
 729 -55 729 -55 699.5 -56.5 c 128,-1,31
 670 -58 670 -58 640 -61 c 128,-1,32
 610 -64 610 -64 576.5 -69 c 128,-1,33
 543 -74 543 -74 501 -81 c 1,34,35
 455 -63 455 -63 412 7 c 1,36,37
 429 43 429 43 459.5 116.5 c 128,-1,38
 490 190 490 190 536 312 c 1,39,40
 466 307 466 307 403 303 c 128,-1,41
 340 299 340 299 301 299 c 2,42,-1
 279 299 l 1,43,44
 256 256 256 256 235.5 208.5 c 128,-1,45
 215 161 215 161 197 110 c 0,46,47
 180 62 180 62 169.5 14 c 128,-1,48
 159 -34 159 -34 156 -76 c 1,49,50
 108 -62 108 -62 89.5 -48 c 128,-1,51
 71 -34 71 -34 71 -13 c 0,52,53
 71 0 71 0 81.5 31 c 128,-1,54
 92 62 92 62 111 105.5 c 128,-1,55
 130 149 130 149 156.5 201 c 128,-1,56
 183 253 183 253 216 308 c 1,57,58
 154 322 154 322 133 355 c 1,59,60
 194 358 194 358 250 364 c 1,61,62
 293 431 293 431 341.5 495 c 128,-1,63
 390 559 390 559 441.5 609 c 128,-1,64
 493 659 493 659 545.5 689 c 128,-1,65
 598 719 598 719 648 719 c 0,66,67
 675 719 675 719 703.5 717.5 c 128,-1,68
 732 716 732 716 759 716 c 0,69,70
 801 716 801 716 842 719.5 c 128,-1,71
 883 723 883 723 916 726.5 c 128,-1,72
 949 730 949 730 971.5 733.5 c 128,-1,73
 994 737 994 737 1000 737 c 0,74,75
 1023 737 1023 737 1041 708 c 128,-1,76
 1059 679 1059 679 1068 630 c 1,77,78
 1055 634 1055 634 1031 638 c 128,-1,79
 1007 642 1007 642 975.5 644.5 c 128,-1,80
 944 647 944 647 907 648.5 c 128,-1,81
 870 650 870 650 831 650 c 0,82,83
 820 650 820 650 809.5 650 c 128,-1,84
 799 650 799 650 788 649 c 1,85,-1
 798 635 l 1,86,87
 792 626 792 626 785 614.5 c 128,-1,88
 778 603 778 603 766.5 579.5 c 128,-1,89
 755 556 755 556 736.5 517 c 128,-1,90
 718 478 718 478 690 414 c 1,91,92
 713 415 713 415 735 416.5 c 128,-1,93
 757 418 757 418 777 418 c 0,0,1
642 640 m 1,94,95
 561 628 561 628 477 557.5 c 128,-1,96
 393 487 393 487 320 370 c 1,97,98
 392 378 392 378 453.5 385.5 c 128,-1,99
 515 393 515 393 569 400 c 1,100,101
 584 440 584 440 595 470 c 128,-1,102
 606 500 606 500 614 526.5 c 128,-1,103
 622 553 622 553 628.5 580 c 128,-1,104
 635 607 635 607 642 640 c 1,94,95
EndSplineSet
EndChar

StartChar: AEacute
Encoding: 508 508 3
Width: 914
Flags: W
LayerCount: 2
Fore
SplineSet
777 418 m 0,0,1
 830 418 830 418 859.5 400 c 128,-1,2
 889 382 889 382 889 350 c 0,3,4
 889 342 889 342 887 333.5 c 128,-1,5
 885 325 885 325 881 319 c 1,6,7
 861 321 861 321 835 322.5 c 128,-1,8
 809 324 809 324 774 324 c 0,9,10
 748 324 748 324 716 322.5 c 128,-1,11
 684 321 684 321 649 319 c 1,12,13
 625 265 625 265 605.5 214.5 c 128,-1,14
 586 164 586 164 572 122 c 128,-1,15
 558 80 558 80 550 49 c 128,-1,16
 542 18 542 18 541 3 c 1,17,18
 622 20 622 20 704.5 32 c 128,-1,19
 787 44 787 44 878 50 c 1,20,21
 889 33 889 33 896.5 13 c 128,-1,22
 904 -7 904 -7 904 -30 c 0,23,24
 904 -36 904 -36 904 -43 c 128,-1,25
 904 -50 904 -50 902 -57 c 1,26,27
 874 -56 874 -56 843 -55.5 c 128,-1,28
 812 -55 812 -55 762 -55 c 0,29,30
 729 -55 729 -55 699.5 -56.5 c 128,-1,31
 670 -58 670 -58 640 -61 c 128,-1,32
 610 -64 610 -64 576.5 -69 c 128,-1,33
 543 -74 543 -74 501 -81 c 1,34,35
 455 -63 455 -63 412 7 c 1,36,37
 429 43 429 43 459.5 116.5 c 128,-1,38
 490 190 490 190 536 312 c 1,39,40
 466 307 466 307 403 303 c 128,-1,41
 340 299 340 299 301 299 c 2,42,-1
 279 299 l 1,43,44
 256 256 256 256 235.5 208.5 c 128,-1,45
 215 161 215 161 197 110 c 0,46,47
 180 62 180 62 169.5 14 c 128,-1,48
 159 -34 159 -34 156 -76 c 1,49,50
 108 -62 108 -62 89.5 -48 c 128,-1,51
 71 -34 71 -34 71 -13 c 0,52,53
 71 0 71 0 81.5 31 c 128,-1,54
 92 62 92 62 111 105.5 c 128,-1,55
 130 149 130 149 156.5 201 c 128,-1,56
 183 253 183 253 216 308 c 1,57,58
 154 322 154 322 133 355 c 1,59,60
 194 358 194 358 250 364 c 1,61,62
 293 431 293 431 341.5 495 c 128,-1,63
 390 559 390 559 441.5 609 c 128,-1,64
 493 659 493 659 545.5 689 c 128,-1,65
 598 719 598 719 648 719 c 0,66,67
 675 719 675 719 703.5 717.5 c 128,-1,68
 732 716 732 716 759 716 c 0,69,70
 801 716 801 716 842 719.5 c 128,-1,71
 883 723 883 723 916 726.5 c 128,-1,72
 949 730 949 730 971.5 733.5 c 128,-1,73
 994 737 994 737 1000 737 c 0,74,75
 1023 737 1023 737 1041 708 c 128,-1,76
 1059 679 1059 679 1068 630 c 1,77,78
 1055 634 1055 634 1031 638 c 128,-1,79
 1007 642 1007 642 975.5 644.5 c 128,-1,80
 944 647 944 647 907 648.5 c 128,-1,81
 870 650 870 650 831 650 c 0,82,83
 820 650 820 650 809.5 650 c 128,-1,84
 799 650 799 650 788 649 c 1,85,-1
 798 635 l 1,86,87
 792 626 792 626 785 614.5 c 128,-1,88
 778 603 778 603 766.5 579.5 c 128,-1,89
 755 556 755 556 736.5 517 c 128,-1,90
 718 478 718 478 690 414 c 1,91,92
 713 415 713 415 735 416.5 c 128,-1,93
 757 418 757 418 777 418 c 0,0,1
642 640 m 1,94,95
 561 628 561 628 477 557.5 c 128,-1,96
 393 487 393 487 320 370 c 1,97,98
 392 378 392 378 453.5 385.5 c 128,-1,99
 515 393 515 393 569 400 c 1,100,101
 584 440 584 440 595 470 c 128,-1,102
 606 500 606 500 614 526.5 c 128,-1,103
 622 553 622 553 628.5 580 c 128,-1,104
 635 607 635 607 642 640 c 1,94,95
871 883 m 1,105,106
 892 877 892 877 910.5 857 c 128,-1,107
 929 837 929 837 929 819 c 1,108,109
 891 803 891 803 862.5 792.5 c 128,-1,110
 834 782 834 782 811.5 775.5 c 128,-1,111
 789 769 789 769 772 766.5 c 128,-1,112
 755 764 755 764 739 764 c 0,113,114
 707 764 707 764 684 783 c 1,115,116
 729 793 729 793 779 819.5 c 128,-1,117
 829 846 829 846 871 883 c 1,105,106
EndSplineSet
EndChar

StartChar: Aacute
Encoding: 193 193 4
Width: 642
Flags: W
LayerCount: 2
Fore
SplineSet
146 -76 m 1,0,1
 98 -62 98 -62 79.5 -48 c 128,-1,2
 61 -34 61 -34 61 -13 c 0,3,4
 61 3 61 3 70 32 c 128,-1,5
 79 61 79 61 96.5 100.5 c 128,-1,6
 114 140 114 140 138.5 188 c 128,-1,7
 163 236 163 236 194 291 c 1,8,9
 168 292 168 292 147.5 292.5 c 128,-1,10
 127 293 127 293 114 293 c 1,11,12
 120 308 120 308 148 319 c 128,-1,13
 176 330 176 330 222 338 c 1,14,15
 261 403 261 403 305.5 462 c 128,-1,16
 350 521 350 521 395 570.5 c 128,-1,17
 440 620 440 620 485 657.5 c 128,-1,18
 530 695 530 695 571 717 c 1,19,20
 572 724 572 724 572.5 729 c 128,-1,21
 573 734 573 734 573 736 c 1,22,23
 587 736 587 736 610.5 729 c 128,-1,24
 634 722 634 722 656.5 712 c 128,-1,25
 679 702 679 702 696.5 691.5 c 128,-1,26
 714 681 714 681 716 674 c 1,27,28
 683 616 683 616 651 500.5 c 128,-1,29
 619 385 619 385 598 224 c 0,30,31
 593 184 593 184 589.5 133 c 128,-1,32
 586 82 586 82 586 19 c 0,33,34
 586 -3 586 -3 586 -26 c 128,-1,35
 586 -49 586 -49 588 -74 c 1,36,37
 586 -75 586 -75 584 -75 c 128,-1,38
 582 -75 582 -75 576 -75 c 0,39,40
 562 -75 562 -75 543.5 -70.5 c 128,-1,41
 525 -66 525 -66 507.5 -59.5 c 128,-1,42
 490 -53 490 -53 477.5 -45 c 128,-1,43
 465 -37 465 -37 462 -31 c 1,44,45
 461 -18 461 -18 461 -5.5 c 128,-1,46
 461 7 461 7 461 21 c 0,47,48
 461 83 461 83 465.5 147 c 128,-1,49
 470 211 470 211 481 279 c 1,50,51
 467 280 467 280 444 281.5 c 128,-1,52
 421 283 421 283 392.5 284 c 128,-1,53
 364 285 364 285 331.5 286.5 c 128,-1,54
 299 288 299 288 268 289 c 1,55,56
 244 244 244 244 223 199.5 c 128,-1,57
 202 155 202 155 187 110 c 0,58,59
 170 62 170 62 159.5 14 c 128,-1,60
 149 -34 149 -34 146 -76 c 1,0,1
532 525 m 0,61,62
 536 539 536 539 541.5 563.5 c 128,-1,63
 547 588 547 588 552 615 c 1,64,65
 527 606 527 606 496.5 582 c 128,-1,66
 466 558 466 558 433.5 522.5 c 128,-1,67
 401 487 401 487 367.5 442.5 c 128,-1,68
 334 398 334 398 303 348 c 1,69,70
 387 355 387 355 494 357 c 1,71,72
 502 399 502 399 511.5 440.5 c 128,-1,73
 521 482 521 482 532 525 c 0,61,62
755 883 m 1,74,75
 776 877 776 877 794.5 857 c 128,-1,76
 813 837 813 837 813 819 c 1,77,78
 775 803 775 803 746.5 792.5 c 128,-1,79
 718 782 718 782 695.5 775.5 c 128,-1,80
 673 769 673 769 656 766.5 c 128,-1,81
 639 764 639 764 623 764 c 0,82,83
 591 764 591 764 568 783 c 1,84,85
 613 793 613 793 663 819.5 c 128,-1,86
 713 846 713 846 755 883 c 1,74,75
EndSplineSet
EndChar

StartChar: Abreve
Encoding: 258 258 5
Width: 642
Flags: W
LayerCount: 2
Fore
SplineSet
146 -76 m 1,0,1
 98 -62 98 -62 79.5 -48 c 128,-1,2
 61 -34 61 -34 61 -13 c 0,3,4
 61 3 61 3 70 32 c 128,-1,5
 79 61 79 61 96.5 100.5 c 128,-1,6
 114 140 114 140 138.5 188 c 128,-1,7
 163 236 163 236 194 291 c 1,8,9
 168 292 168 292 147.5 292.5 c 128,-1,10
 127 293 127 293 114 293 c 1,11,12
 120 308 120 308 148 319 c 128,-1,13
 176 330 176 330 222 338 c 1,14,15
 261 403 261 403 305.5 462 c 128,-1,16
 350 521 350 521 395 570.5 c 128,-1,17
 440 620 440 620 485 657.5 c 128,-1,18
 530 695 530 695 571 717 c 1,19,20
 572 724 572 724 572.5 729 c 128,-1,21
 573 734 573 734 573 736 c 1,22,23
 587 736 587 736 610.5 729 c 128,-1,24
 634 722 634 722 656.5 712 c 128,-1,25
 679 702 679 702 696.5 691.5 c 128,-1,26
 714 681 714 681 716 674 c 1,27,28
 683 616 683 616 651 500.5 c 128,-1,29
 619 385 619 385 598 224 c 0,30,31
 593 184 593 184 589.5 133 c 128,-1,32
 586 82 586 82 586 19 c 0,33,34
 586 -3 586 -3 586 -26 c 128,-1,35
 586 -49 586 -49 588 -74 c 1,36,37
 586 -75 586 -75 584 -75 c 128,-1,38
 582 -75 582 -75 576 -75 c 0,39,40
 562 -75 562 -75 543.5 -70.5 c 128,-1,41
 525 -66 525 -66 507.5 -59.5 c 128,-1,42
 490 -53 490 -53 477.5 -45 c 128,-1,43
 465 -37 465 -37 462 -31 c 1,44,45
 461 -18 461 -18 461 -5.5 c 128,-1,46
 461 7 461 7 461 21 c 0,47,48
 461 83 461 83 465.5 147 c 128,-1,49
 470 211 470 211 481 279 c 1,50,51
 467 280 467 280 444 281.5 c 128,-1,52
 421 283 421 283 392.5 284 c 128,-1,53
 364 285 364 285 331.5 286.5 c 128,-1,54
 299 288 299 288 268 289 c 1,55,56
 244 244 244 244 223 199.5 c 128,-1,57
 202 155 202 155 187 110 c 0,58,59
 170 62 170 62 159.5 14 c 128,-1,60
 149 -34 149 -34 146 -76 c 1,0,1
532 525 m 0,61,62
 536 539 536 539 541.5 563.5 c 128,-1,63
 547 588 547 588 552 615 c 1,64,65
 527 606 527 606 496.5 582 c 128,-1,66
 466 558 466 558 433.5 522.5 c 128,-1,67
 401 487 401 487 367.5 442.5 c 128,-1,68
 334 398 334 398 303 348 c 1,69,70
 387 355 387 355 494 357 c 1,71,72
 502 399 502 399 511.5 440.5 c 128,-1,73
 521 482 521 482 532 525 c 0,61,62
680 764 m 1,74,75
 660 765 660 765 638 770.5 c 128,-1,76
 616 776 616 776 596.5 786.5 c 128,-1,77
 577 797 577 797 561.5 813 c 128,-1,78
 546 829 546 829 539 852 c 1,79,80
 552 866 552 866 566 873 c 128,-1,81
 580 880 580 880 608 883 c 1,82,83
 622 849 622 849 648.5 835 c 128,-1,84
 675 821 675 821 706 819 c 1,85,86
 744 825 744 825 768.5 840.5 c 128,-1,87
 793 856 793 856 810 880 c 1,88,89
 820 877 820 877 826 861 c 1,90,91
 816 827 816 827 777 801 c 128,-1,92
 738 775 738 775 680 764 c 1,74,75
EndSplineSet
EndChar

StartChar: Acircumflex
Encoding: 194 194 6
Width: 642
Flags: W
LayerCount: 2
Fore
SplineSet
146 -76 m 1,0,1
 98 -62 98 -62 79.5 -48 c 128,-1,2
 61 -34 61 -34 61 -13 c 0,3,4
 61 3 61 3 70 32 c 128,-1,5
 79 61 79 61 96.5 100.5 c 128,-1,6
 114 140 114 140 138.5 188 c 128,-1,7
 163 236 163 236 194 291 c 1,8,9
 168 292 168 292 147.5 292.5 c 128,-1,10
 127 293 127 293 114 293 c 1,11,12
 120 308 120 308 148 319 c 128,-1,13
 176 330 176 330 222 338 c 1,14,15
 261 403 261 403 305.5 462 c 128,-1,16
 350 521 350 521 395 570.5 c 128,-1,17
 440 620 440 620 485 657.5 c 128,-1,18
 530 695 530 695 571 717 c 1,19,20
 572 724 572 724 572.5 729 c 128,-1,21
 573 734 573 734 573 736 c 1,22,23
 587 736 587 736 610.5 729 c 128,-1,24
 634 722 634 722 656.5 712 c 128,-1,25
 679 702 679 702 696.5 691.5 c 128,-1,26
 714 681 714 681 716 674 c 1,27,28
 683 616 683 616 651 500.5 c 128,-1,29
 619 385 619 385 598 224 c 0,30,31
 593 184 593 184 589.5 133 c 128,-1,32
 586 82 586 82 586 19 c 0,33,34
 586 -3 586 -3 586 -26 c 128,-1,35
 586 -49 586 -49 588 -74 c 1,36,37
 586 -75 586 -75 584 -75 c 128,-1,38
 582 -75 582 -75 576 -75 c 0,39,40
 562 -75 562 -75 543.5 -70.5 c 128,-1,41
 525 -66 525 -66 507.5 -59.5 c 128,-1,42
 490 -53 490 -53 477.5 -45 c 128,-1,43
 465 -37 465 -37 462 -31 c 1,44,45
 461 -18 461 -18 461 -5.5 c 128,-1,46
 461 7 461 7 461 21 c 0,47,48
 461 83 461 83 465.5 147 c 128,-1,49
 470 211 470 211 481 279 c 1,50,51
 467 280 467 280 444 281.5 c 128,-1,52
 421 283 421 283 392.5 284 c 128,-1,53
 364 285 364 285 331.5 286.5 c 128,-1,54
 299 288 299 288 268 289 c 1,55,56
 244 244 244 244 223 199.5 c 128,-1,57
 202 155 202 155 187 110 c 0,58,59
 170 62 170 62 159.5 14 c 128,-1,60
 149 -34 149 -34 146 -76 c 1,0,1
532 525 m 0,61,62
 536 539 536 539 541.5 563.5 c 128,-1,63
 547 588 547 588 552 615 c 1,64,65
 527 606 527 606 496.5 582 c 128,-1,66
 466 558 466 558 433.5 522.5 c 128,-1,67
 401 487 401 487 367.5 442.5 c 128,-1,68
 334 398 334 398 303 348 c 1,69,70
 387 355 387 355 494 357 c 1,71,72
 502 399 502 399 511.5 440.5 c 128,-1,73
 521 482 521 482 532 525 c 0,61,62
719 882 m 1,74,75
 726 826 726 826 737 797 c 128,-1,76
 748 768 748 768 771 754 c 1,77,78
 769 753 769 753 762 753 c 0,79,80
 737 753 737 753 710.5 768.5 c 128,-1,81
 684 784 684 784 663 809 c 1,82,83
 636 789 636 789 605 776.5 c 128,-1,84
 574 764 574 764 551 764 c 0,85,86
 536 764 536 764 522.5 768.5 c 128,-1,87
 509 773 509 773 497 786 c 1,88,89
 573 805 573 805 634 857 c 1,90,91
 632 861 632 861 630 869 c 1,92,93
 650 883 650 883 691 883 c 0,94,95
 703 883 703 883 708.5 883 c 128,-1,96
 714 883 714 883 719 882 c 1,74,75
EndSplineSet
EndChar

StartChar: Adieresis
Encoding: 196 196 7
Width: 642
Flags: W
LayerCount: 2
Fore
SplineSet
146 -76 m 1,0,1
 98 -62 98 -62 79.5 -48 c 128,-1,2
 61 -34 61 -34 61 -13 c 0,3,4
 61 3 61 3 70 32 c 128,-1,5
 79 61 79 61 96.5 100.5 c 128,-1,6
 114 140 114 140 138.5 188 c 128,-1,7
 163 236 163 236 194 291 c 1,8,9
 168 292 168 292 147.5 292.5 c 128,-1,10
 127 293 127 293 114 293 c 1,11,12
 120 308 120 308 148 319 c 128,-1,13
 176 330 176 330 222 338 c 1,14,15
 261 403 261 403 305.5 462 c 128,-1,16
 350 521 350 521 395 570.5 c 128,-1,17
 440 620 440 620 485 657.5 c 128,-1,18
 530 695 530 695 571 717 c 1,19,20
 572 724 572 724 572.5 729 c 128,-1,21
 573 734 573 734 573 736 c 1,22,23
 587 736 587 736 610.5 729 c 128,-1,24
 634 722 634 722 656.5 712 c 128,-1,25
 679 702 679 702 696.5 691.5 c 128,-1,26
 714 681 714 681 716 674 c 1,27,28
 683 616 683 616 651 500.5 c 128,-1,29
 619 385 619 385 598 224 c 0,30,31
 593 184 593 184 589.5 133 c 128,-1,32
 586 82 586 82 586 19 c 0,33,34
 586 -3 586 -3 586 -26 c 128,-1,35
 586 -49 586 -49 588 -74 c 1,36,37
 586 -75 586 -75 584 -75 c 128,-1,38
 582 -75 582 -75 576 -75 c 0,39,40
 562 -75 562 -75 543.5 -70.5 c 128,-1,41
 525 -66 525 -66 507.5 -59.5 c 128,-1,42
 490 -53 490 -53 477.5 -45 c 128,-1,43
 465 -37 465 -37 462 -31 c 1,44,45
 461 -18 461 -18 461 -5.5 c 128,-1,46
 461 7 461 7 461 21 c 0,47,48
 461 83 461 83 465.5 147 c 128,-1,49
 470 211 470 211 481 279 c 1,50,51
 467 280 467 280 444 281.5 c 128,-1,52
 421 283 421 283 392.5 284 c 128,-1,53
 364 285 364 285 331.5 286.5 c 128,-1,54
 299 288 299 288 268 289 c 1,55,56
 244 244 244 244 223 199.5 c 128,-1,57
 202 155 202 155 187 110 c 0,58,59
 170 62 170 62 159.5 14 c 128,-1,60
 149 -34 149 -34 146 -76 c 1,0,1
532 525 m 0,61,62
 536 539 536 539 541.5 563.5 c 128,-1,63
 547 588 547 588 552 615 c 1,64,65
 527 606 527 606 496.5 582 c 128,-1,66
 466 558 466 558 433.5 522.5 c 128,-1,67
 401 487 401 487 367.5 442.5 c 128,-1,68
 334 398 334 398 303 348 c 1,69,70
 387 355 387 355 494 357 c 1,71,72
 502 399 502 399 511.5 440.5 c 128,-1,73
 521 482 521 482 532 525 c 0,61,62
567 788 m 1,74,75
 567 803 567 803 569 819.5 c 128,-1,76
 571 836 571 836 577 849.5 c 128,-1,77
 583 863 583 863 594.5 872.5 c 128,-1,78
 606 882 606 882 625 883 c 1,79,80
 638 881 638 881 660.5 868.5 c 128,-1,81
 683 856 683 856 693 839 c 1,82,83
 693 839 693 839 684.5 828 c 128,-1,84
 676 817 676 817 664.5 804 c 128,-1,85
 653 791 653 791 642.5 779 c 128,-1,86
 632 767 632 767 628 764 c 1,87,88
 603 769 603 769 587.5 774 c 128,-1,89
 572 779 572 779 567 788 c 1,74,75
698 788 m 1,90,91
 698 804 698 804 700 820.5 c 128,-1,92
 702 837 702 837 708 850.5 c 128,-1,93
 714 864 714 864 725 873 c 128,-1,94
 736 882 736 882 754 883 c 0,95,96
 760 883 760 883 769.5 879 c 128,-1,97
 779 875 779 875 789 869 c 128,-1,98
 799 863 799 863 808 855 c 128,-1,99
 817 847 817 847 823 839 c 0,100,101
 823 838 823 838 814.5 827 c 128,-1,102
 806 816 806 816 795 802.5 c 128,-1,103
 784 789 784 789 773 777 c 128,-1,104
 762 765 762 765 756 763 c 1,105,106
 733 766 733 766 718.5 773 c 128,-1,107
 704 780 704 780 698 788 c 1,90,91
EndSplineSet
EndChar

StartChar: Agrave
Encoding: 192 192 8
Width: 642
Flags: W
LayerCount: 2
Fore
SplineSet
146 -76 m 1,0,1
 98 -62 98 -62 79.5 -48 c 128,-1,2
 61 -34 61 -34 61 -13 c 0,3,4
 61 3 61 3 70 32 c 128,-1,5
 79 61 79 61 96.5 100.5 c 128,-1,6
 114 140 114 140 138.5 188 c 128,-1,7
 163 236 163 236 194 291 c 1,8,9
 168 292 168 292 147.5 292.5 c 128,-1,10
 127 293 127 293 114 293 c 1,11,12
 120 308 120 308 148 319 c 128,-1,13
 176 330 176 330 222 338 c 1,14,15
 261 403 261 403 305.5 462 c 128,-1,16
 350 521 350 521 395 570.5 c 128,-1,17
 440 620 440 620 485 657.5 c 128,-1,18
 530 695 530 695 571 717 c 1,19,20
 572 724 572 724 572.5 729 c 128,-1,21
 573 734 573 734 573 736 c 1,22,23
 587 736 587 736 610.5 729 c 128,-1,24
 634 722 634 722 656.5 712 c 128,-1,25
 679 702 679 702 696.5 691.5 c 128,-1,26
 714 681 714 681 716 674 c 1,27,28
 683 616 683 616 651 500.5 c 128,-1,29
 619 385 619 385 598 224 c 0,30,31
 593 184 593 184 589.5 133 c 128,-1,32
 586 82 586 82 586 19 c 0,33,34
 586 -3 586 -3 586 -26 c 128,-1,35
 586 -49 586 -49 588 -74 c 1,36,37
 586 -75 586 -75 584 -75 c 128,-1,38
 582 -75 582 -75 576 -75 c 0,39,40
 562 -75 562 -75 543.5 -70.5 c 128,-1,41
 525 -66 525 -66 507.5 -59.5 c 128,-1,42
 490 -53 490 -53 477.5 -45 c 128,-1,43
 465 -37 465 -37 462 -31 c 1,44,45
 461 -18 461 -18 461 -5.5 c 128,-1,46
 461 7 461 7 461 21 c 0,47,48
 461 83 461 83 465.5 147 c 128,-1,49
 470 211 470 211 481 279 c 1,50,51
 467 280 467 280 444 281.5 c 128,-1,52
 421 283 421 283 392.5 284 c 128,-1,53
 364 285 364 285 331.5 286.5 c 128,-1,54
 299 288 299 288 268 289 c 1,55,56
 244 244 244 244 223 199.5 c 128,-1,57
 202 155 202 155 187 110 c 0,58,59
 170 62 170 62 159.5 14 c 128,-1,60
 149 -34 149 -34 146 -76 c 1,0,1
532 525 m 0,61,62
 536 539 536 539 541.5 563.5 c 128,-1,63
 547 588 547 588 552 615 c 1,64,65
 527 606 527 606 496.5 582 c 128,-1,66
 466 558 466 558 433.5 522.5 c 128,-1,67
 401 487 401 487 367.5 442.5 c 128,-1,68
 334 398 334 398 303 348 c 1,69,70
 387 355 387 355 494 357 c 1,71,72
 502 399 502 399 511.5 440.5 c 128,-1,73
 521 482 521 482 532 525 c 0,61,62
575 883 m 1,74,75
 617 846 617 846 667 819.5 c 128,-1,76
 717 793 717 793 762 783 c 1,77,78
 739 764 739 764 707 764 c 0,79,80
 691 764 691 764 674 766.5 c 128,-1,81
 657 769 657 769 634.5 775.5 c 128,-1,82
 612 782 612 782 583.5 792.5 c 128,-1,83
 555 803 555 803 517 819 c 1,84,85
 517 828 517 828 522 838 c 128,-1,86
 527 848 527 848 535.5 857 c 128,-1,87
 544 866 544 866 554 873 c 128,-1,88
 564 880 564 880 575 883 c 1,74,75
EndSplineSet
EndChar

StartChar: Amacron
Encoding: 256 256 9
Width: 642
Flags: W
LayerCount: 2
Fore
SplineSet
146 -76 m 1,0,1
 98 -62 98 -62 79.5 -48 c 128,-1,2
 61 -34 61 -34 61 -13 c 0,3,4
 61 3 61 3 70 32 c 128,-1,5
 79 61 79 61 96.5 100.5 c 128,-1,6
 114 140 114 140 138.5 188 c 128,-1,7
 163 236 163 236 194 291 c 1,8,9
 168 292 168 292 147.5 292.5 c 128,-1,10
 127 293 127 293 114 293 c 1,11,12
 120 308 120 308 148 319 c 128,-1,13
 176 330 176 330 222 338 c 1,14,15
 261 403 261 403 305.5 462 c 128,-1,16
 350 521 350 521 395 570.5 c 128,-1,17
 440 620 440 620 485 657.5 c 128,-1,18
 530 695 530 695 571 717 c 1,19,20
 572 724 572 724 572.5 729 c 128,-1,21
 573 734 573 734 573 736 c 1,22,23
 587 736 587 736 610.5 729 c 128,-1,24
 634 722 634 722 656.5 712 c 128,-1,25
 679 702 679 702 696.5 691.5 c 128,-1,26
 714 681 714 681 716 674 c 1,27,28
 683 616 683 616 651 500.5 c 128,-1,29
 619 385 619 385 598 224 c 0,30,31
 593 184 593 184 589.5 133 c 128,-1,32
 586 82 586 82 586 19 c 0,33,34
 586 -3 586 -3 586 -26 c 128,-1,35
 586 -49 586 -49 588 -74 c 1,36,37
 586 -75 586 -75 584 -75 c 128,-1,38
 582 -75 582 -75 576 -75 c 0,39,40
 562 -75 562 -75 543.5 -70.5 c 128,-1,41
 525 -66 525 -66 507.5 -59.5 c 128,-1,42
 490 -53 490 -53 477.5 -45 c 128,-1,43
 465 -37 465 -37 462 -31 c 1,44,45
 461 -18 461 -18 461 -5.5 c 128,-1,46
 461 7 461 7 461 21 c 0,47,48
 461 83 461 83 465.5 147 c 128,-1,49
 470 211 470 211 481 279 c 1,50,51
 467 280 467 280 444 281.5 c 128,-1,52
 421 283 421 283 392.5 284 c 128,-1,53
 364 285 364 285 331.5 286.5 c 128,-1,54
 299 288 299 288 268 289 c 1,55,56
 244 244 244 244 223 199.5 c 128,-1,57
 202 155 202 155 187 110 c 0,58,59
 170 62 170 62 159.5 14 c 128,-1,60
 149 -34 149 -34 146 -76 c 1,0,1
532 525 m 0,61,62
 536 539 536 539 541.5 563.5 c 128,-1,63
 547 588 547 588 552 615 c 1,64,65
 527 606 527 606 496.5 582 c 128,-1,66
 466 558 466 558 433.5 522.5 c 128,-1,67
 401 487 401 487 367.5 442.5 c 128,-1,68
 334 398 334 398 303 348 c 1,69,70
 387 355 387 355 494 357 c 1,71,72
 502 399 502 399 511.5 440.5 c 128,-1,73
 521 482 521 482 532 525 c 0,61,62
506 866 m 1,74,75
 551 863 551 863 597 863 c 0,76,77
 703 863 703 863 792 883 c 1,78,79
 799 872 799 872 804.5 848.5 c 128,-1,80
 810 825 810 825 810 806 c 1,81,82
 773 799 773 799 734 798 c 128,-1,83
 695 797 695 797 656 797 c 0,84,85
 563 797 563 797 504 810 c 1,86,87
 505 818 505 818 505.5 830.5 c 128,-1,88
 506 843 506 843 506 866 c 1,74,75
EndSplineSet
EndChar

StartChar: Aogonek
Encoding: 260 260 10
Width: 643
Flags: W
LayerCount: 2
Fore
SplineSet
401 -212 m 0,0,1
 401 -189 401 -189 410 -166 c 128,-1,2
 419 -143 419 -143 434.5 -123 c 128,-1,3
 450 -103 450 -103 470.5 -86.5 c 128,-1,4
 491 -70 491 -70 514 -61 c 1,5,6
 494 -54 494 -54 479.5 -46 c 128,-1,7
 465 -38 465 -38 462 -31 c 1,8,9
 461 -18 461 -18 461 -5.5 c 128,-1,10
 461 7 461 7 461 21 c 0,11,12
 461 83 461 83 465.5 147 c 128,-1,13
 470 211 470 211 481 279 c 1,14,15
 467 280 467 280 444 281.5 c 128,-1,16
 421 283 421 283 392.5 284 c 128,-1,17
 364 285 364 285 331.5 286.5 c 128,-1,18
 299 288 299 288 268 289 c 1,19,20
 244 244 244 244 223 199.5 c 128,-1,21
 202 155 202 155 187 110 c 0,22,23
 170 62 170 62 159.5 14 c 128,-1,24
 149 -34 149 -34 146 -76 c 1,25,26
 98 -62 98 -62 79.5 -48 c 128,-1,27
 61 -34 61 -34 61 -13 c 0,28,29
 61 3 61 3 70 32 c 128,-1,30
 79 61 79 61 96.5 100.5 c 128,-1,31
 114 140 114 140 138.5 188 c 128,-1,32
 163 236 163 236 194 291 c 1,33,34
 168 292 168 292 147.5 292.5 c 128,-1,35
 127 293 127 293 114 293 c 1,36,37
 120 308 120 308 148 319 c 128,-1,38
 176 330 176 330 222 338 c 1,39,40
 261 403 261 403 305.5 462 c 128,-1,41
 350 521 350 521 395 570.5 c 128,-1,42
 440 620 440 620 485 657.5 c 128,-1,43
 530 695 530 695 571 717 c 1,44,45
 572 724 572 724 572.5 729 c 128,-1,46
 573 734 573 734 573 736 c 1,47,48
 587 736 587 736 610.5 729 c 128,-1,49
 634 722 634 722 656.5 712 c 128,-1,50
 679 702 679 702 696.5 691.5 c 128,-1,51
 714 681 714 681 716 674 c 1,52,53
 683 616 683 616 651 500.5 c 128,-1,54
 619 385 619 385 598 224 c 0,55,56
 593 184 593 184 589.5 133 c 128,-1,57
 586 82 586 82 586 19 c 0,58,59
 586 -3 586 -3 586 -26 c 128,-1,60
 586 -49 586 -49 588 -74 c 1,61,62
 566 -79 566 -79 544.5 -91 c 128,-1,63
 523 -103 523 -103 505.5 -122 c 128,-1,64
 488 -141 488 -141 477.5 -167 c 128,-1,65
 467 -193 467 -193 467 -224 c 0,66,67
 467 -250 467 -250 478 -260.5 c 128,-1,68
 489 -271 489 -271 506 -271 c 0,69,70
 519 -271 519 -271 534 -266 c 128,-1,71
 549 -261 549 -261 563.5 -254 c 128,-1,72
 578 -247 578 -247 591 -239 c 128,-1,73
 604 -231 604 -231 613 -225 c 1,74,-1
 619 -237 l 1,75,76
 609 -249 609 -249 594 -261.5 c 128,-1,77
 579 -274 579 -274 562.5 -284 c 128,-1,78
 546 -294 546 -294 531 -301 c 128,-1,79
 516 -308 516 -308 506 -309 c 1,80,81
 486 -308 486 -308 467 -300.5 c 128,-1,82
 448 -293 448 -293 433.5 -280.5 c 128,-1,83
 419 -268 419 -268 410 -251 c 128,-1,84
 401 -234 401 -234 401 -212 c 0,0,1
532 525 m 0,85,86
 536 539 536 539 541.5 563.5 c 128,-1,87
 547 588 547 588 552 615 c 1,88,89
 527 606 527 606 496.5 582 c 128,-1,90
 466 558 466 558 433.5 522.5 c 128,-1,91
 401 487 401 487 367.5 442.5 c 128,-1,92
 334 398 334 398 303 348 c 1,93,94
 387 355 387 355 494 357 c 1,95,96
 502 399 502 399 511.5 440.5 c 128,-1,97
 521 482 521 482 532 525 c 0,85,86
EndSplineSet
EndChar

StartChar: Aring
Encoding: 197 197 11
Width: 644
Flags: W
LayerCount: 2
Fore
SplineSet
740 766 m 0,0,1
 726 744 726 744 705 729.5 c 128,-1,2
 684 715 684 715 658 711 c 1,3,4
 681 701 681 701 698 691 c 128,-1,5
 715 681 715 681 717 674 c 1,6,7
 684 616 684 616 652 500.5 c 128,-1,8
 620 385 620 385 599 224 c 0,9,10
 594 184 594 184 590.5 133 c 128,-1,11
 587 82 587 82 587 19 c 0,12,13
 587 -3 587 -3 587 -26 c 128,-1,14
 587 -49 587 -49 589 -74 c 1,15,16
 587 -75 587 -75 585 -75 c 128,-1,17
 583 -75 583 -75 577 -75 c 0,18,19
 563 -75 563 -75 544.5 -70.5 c 128,-1,20
 526 -66 526 -66 508.5 -59.5 c 128,-1,21
 491 -53 491 -53 478.5 -45 c 128,-1,22
 466 -37 466 -37 463 -31 c 1,23,24
 462 -18 462 -18 462 -5.5 c 128,-1,25
 462 7 462 7 462 21 c 0,26,27
 462 83 462 83 466.5 147 c 128,-1,28
 471 211 471 211 482 279 c 1,29,30
 468 280 468 280 445 281.5 c 128,-1,31
 422 283 422 283 393.5 284 c 128,-1,32
 365 285 365 285 332.5 286.5 c 128,-1,33
 300 288 300 288 269 289 c 1,34,35
 245 244 245 244 224 199.5 c 128,-1,36
 203 155 203 155 188 110 c 0,37,38
 171 62 171 62 160.5 14 c 128,-1,39
 150 -34 150 -34 147 -76 c 1,40,41
 99 -62 99 -62 80.5 -48 c 128,-1,42
 62 -34 62 -34 62 -13 c 0,43,44
 62 3 62 3 71 32 c 128,-1,45
 80 61 80 61 97.5 100.5 c 128,-1,46
 115 140 115 140 139.5 188 c 128,-1,47
 164 236 164 236 195 291 c 1,48,49
 169 292 169 292 148.5 292.5 c 128,-1,50
 128 293 128 293 115 293 c 1,51,52
 121 308 121 308 149 319 c 128,-1,53
 177 330 177 330 223 338 c 1,54,55
 263 408 263 408 310 468.5 c 128,-1,56
 357 529 357 529 404.5 579.5 c 128,-1,57
 452 630 452 630 495.5 669 c 128,-1,58
 539 708 539 708 574 734 c 1,59,60
 559 745 559 745 550 760.5 c 128,-1,61
 541 776 541 776 541 793 c 0,62,63
 541 813 541 813 551 829.5 c 128,-1,64
 561 846 561 846 577 858 c 128,-1,65
 593 870 593 870 612.5 876.5 c 128,-1,66
 632 883 632 883 651 883 c 0,67,68
 672 883 672 883 690 876.5 c 128,-1,69
 708 870 708 870 721.5 859.5 c 128,-1,70
 735 849 735 849 743 834.5 c 128,-1,71
 751 820 751 820 751 804 c 0,72,73
 751 785 751 785 740 766 c 0,0,1
533 525 m 0,74,75
 537 539 537 539 542.5 563.5 c 128,-1,76
 548 588 548 588 553 615 c 1,77,78
 528 606 528 606 497.5 582 c 128,-1,79
 467 558 467 558 434.5 522.5 c 128,-1,80
 402 487 402 487 368.5 442.5 c 128,-1,81
 335 398 335 398 304 348 c 1,82,83
 388 355 388 355 495 357 c 1,84,85
 503 399 503 399 512.5 440.5 c 128,-1,86
 522 482 522 482 533 525 c 0,74,75
709 813 m 0,87,88
 709 829 709 829 699 841 c 128,-1,89
 689 853 689 853 670 853 c 0,90,91
 659 853 659 853 646.5 847 c 128,-1,92
 634 841 634 841 623.5 831.5 c 128,-1,93
 613 822 613 822 606 808.5 c 128,-1,94
 599 795 599 795 599 780 c 0,95,96
 599 761 599 761 607 747.5 c 128,-1,97
 615 734 615 734 633 734 c 256,98,99
 651 734 651 734 665 741.5 c 128,-1,100
 679 749 679 749 689 761 c 128,-1,101
 699 773 699 773 704 787 c 128,-1,102
 709 801 709 801 709 813 c 0,87,88
EndSplineSet
EndChar

StartChar: Aringacute
Encoding: 506 506 12
Width: 631
Flags: W
LayerCount: 2
Fore
SplineSet
683 649 m 1,0,1
 672 631 672 631 655 619 c 1,2,3
 675 608 675 608 678 600 c 1,4,5
 653 552 653 552 628 454.5 c 128,-1,6
 603 357 603 357 586 224 c 0,7,8
 581 184 581 184 577.5 133 c 128,-1,9
 574 82 574 82 574 19 c 0,10,11
 574 -3 574 -3 574 -26 c 128,-1,12
 574 -49 574 -49 576 -74 c 1,13,14
 574 -75 574 -75 572 -75 c 128,-1,15
 570 -75 570 -75 564 -75 c 0,16,17
 550 -75 550 -75 531.5 -70.5 c 128,-1,18
 513 -66 513 -66 495.5 -59.5 c 128,-1,19
 478 -53 478 -53 465.5 -45 c 128,-1,20
 453 -37 453 -37 450 -31 c 1,21,22
 449 -18 449 -18 449 -5.5 c 128,-1,23
 449 7 449 7 449 21 c 0,24,25
 449 68 449 68 451.5 117.5 c 128,-1,26
 454 167 454 167 459 220 c 1,27,28
 442 221 442 221 416 222.5 c 128,-1,29
 390 224 390 224 359.5 225 c 128,-1,30
 329 226 329 226 296 227.5 c 128,-1,31
 263 229 263 229 232 230 c 1,32,33
 187 149 187 149 163 72.5 c 128,-1,34
 139 -4 139 -4 134 -76 c 1,35,36
 86 -62 86 -62 67.5 -48 c 128,-1,37
 49 -34 49 -34 49 -13 c 0,38,39
 49 15 49 15 75 79.5 c 128,-1,40
 101 144 101 144 149 232 c 1,41,42
 134 233 134 233 122 233 c 128,-1,43
 110 233 110 233 102 233 c 1,44,45
 111 254 111 254 170 270 c 1,46,-1
 205 330 l 1,47,48
 239 381 239 381 278.5 427 c 128,-1,49
 318 473 318 473 358.5 512.5 c 128,-1,50
 399 552 399 552 440 583.5 c 128,-1,51
 481 615 481 615 518 636 c 1,52,53
 504 653 504 653 504 674 c 0,54,55
 504 692 504 692 513 707 c 128,-1,56
 522 722 522 722 536.5 732.5 c 128,-1,57
 551 743 551 743 568.5 749 c 128,-1,58
 586 755 586 755 603 755 c 0,59,60
 640 755 640 755 666.5 734 c 128,-1,61
 693 713 693 713 693 684 c 0,62,63
 693 668 693 668 683 649 c 1,0,1
514 541 m 1,64,65
 487 532 487 532 456 508.5 c 128,-1,66
 425 485 425 485 392 451 c 128,-1,67
 359 417 359 417 326.5 374.5 c 128,-1,68
 294 332 294 332 264 285 c 1,69,70
 351 295 351 295 468 297 c 1,71,72
 472 328 472 328 476.5 353.5 c 128,-1,73
 481 379 481 379 486.5 406 c 128,-1,74
 492 433 492 433 498.5 465 c 128,-1,75
 505 497 505 497 514 541 c 1,64,65
648 692 m 0,76,77
 648 706 648 706 639 717 c 128,-1,78
 630 728 630 728 613 728 c 0,79,80
 603 728 603 728 592 722.5 c 128,-1,81
 581 717 581 717 571.5 708 c 128,-1,82
 562 699 562 699 555.5 687 c 128,-1,83
 549 675 549 675 549 662 c 0,84,85
 549 645 549 645 556 633 c 128,-1,86
 563 621 563 621 580 621 c 0,87,88
 596 621 596 621 608.5 628 c 128,-1,89
 621 635 621 635 630 645.5 c 128,-1,90
 639 656 639 656 643.5 668.5 c 128,-1,91
 648 681 648 681 648 692 c 0,76,77
736 883 m 1,92,93
 757 877 757 877 775.5 857 c 128,-1,94
 794 837 794 837 794 819 c 1,95,96
 756 805 756 805 729.5 795.5 c 128,-1,97
 703 786 703 786 683.5 780.5 c 128,-1,98
 664 775 664 775 649 772.5 c 128,-1,99
 634 770 634 770 618 770 c 0,100,101
 586 770 586 770 563 789 c 1,102,103
 608 799 608 799 651 823.5 c 128,-1,104
 694 848 694 848 736 883 c 1,92,93
EndSplineSet
EndChar

StartChar: Atilde
Encoding: 195 195 13
Width: 642
Flags: W
LayerCount: 2
Fore
SplineSet
146 -76 m 1,0,1
 98 -62 98 -62 79.5 -48 c 128,-1,2
 61 -34 61 -34 61 -13 c 0,3,4
 61 3 61 3 70 32 c 128,-1,5
 79 61 79 61 96.5 100.5 c 128,-1,6
 114 140 114 140 138.5 188 c 128,-1,7
 163 236 163 236 194 291 c 1,8,9
 168 292 168 292 147.5 292.5 c 128,-1,10
 127 293 127 293 114 293 c 1,11,12
 120 308 120 308 148 319 c 128,-1,13
 176 330 176 330 222 338 c 1,14,15
 261 403 261 403 305.5 462 c 128,-1,16
 350 521 350 521 395 570.5 c 128,-1,17
 440 620 440 620 485 657.5 c 128,-1,18
 530 695 530 695 571 717 c 1,19,20
 572 724 572 724 572.5 729 c 128,-1,21
 573 734 573 734 573 736 c 1,22,23
 587 736 587 736 610.5 729 c 128,-1,24
 634 722 634 722 656.5 712 c 128,-1,25
 679 702 679 702 696.5 691.5 c 128,-1,26
 714 681 714 681 716 674 c 1,27,28
 683 616 683 616 651 500.5 c 128,-1,29
 619 385 619 385 598 224 c 0,30,31
 593 184 593 184 589.5 133 c 128,-1,32
 586 82 586 82 586 19 c 0,33,34
 586 -3 586 -3 586 -26 c 128,-1,35
 586 -49 586 -49 588 -74 c 1,36,37
 586 -75 586 -75 584 -75 c 128,-1,38
 582 -75 582 -75 576 -75 c 0,39,40
 562 -75 562 -75 543.5 -70.5 c 128,-1,41
 525 -66 525 -66 507.5 -59.5 c 128,-1,42
 490 -53 490 -53 477.5 -45 c 128,-1,43
 465 -37 465 -37 462 -31 c 1,44,45
 461 -18 461 -18 461 -5.5 c 128,-1,46
 461 7 461 7 461 21 c 0,47,48
 461 83 461 83 465.5 147 c 128,-1,49
 470 211 470 211 481 279 c 1,50,51
 467 280 467 280 444 281.5 c 128,-1,52
 421 283 421 283 392.5 284 c 128,-1,53
 364 285 364 285 331.5 286.5 c 128,-1,54
 299 288 299 288 268 289 c 1,55,56
 244 244 244 244 223 199.5 c 128,-1,57
 202 155 202 155 187 110 c 0,58,59
 170 62 170 62 159.5 14 c 128,-1,60
 149 -34 149 -34 146 -76 c 1,0,1
532 525 m 0,61,62
 536 539 536 539 541.5 563.5 c 128,-1,63
 547 588 547 588 552 615 c 1,64,65
 527 606 527 606 496.5 582 c 128,-1,66
 466 558 466 558 433.5 522.5 c 128,-1,67
 401 487 401 487 367.5 442.5 c 128,-1,68
 334 398 334 398 303 348 c 1,69,70
 387 355 387 355 494 357 c 1,71,72
 502 399 502 399 511.5 440.5 c 128,-1,73
 521 482 521 482 532 525 c 0,61,62
484 853 m 1,74,75
 531 837 531 837 576 837 c 0,76,77
 614 837 614 837 655 848 c 128,-1,78
 696 859 696 859 747 883 c 1,79,80
 759 871 759 871 768 846 c 128,-1,81
 777 821 777 821 781 803 c 1,82,83
 736 782 736 782 698 776.5 c 128,-1,84
 660 771 660 771 627 771 c 0,85,86
 565 771 565 771 528 794.5 c 128,-1,87
 491 818 491 818 484 853 c 1,74,75
EndSplineSet
EndChar

StartChar: B
Encoding: 66 66 14
Width: 719
Flags: W
LayerCount: 2
Fore
SplineSet
790 551 m 0,0,1
 790 489 790 489 756 440.5 c 128,-1,2
 722 392 722 392 663 360 c 1,3,4
 701 334 701 334 723.5 296.5 c 128,-1,5
 746 259 746 259 746 214 c 0,6,7
 746 160 746 160 713.5 107.5 c 128,-1,8
 681 55 681 55 627 14.5 c 128,-1,9
 573 -26 573 -26 504 -51 c 128,-1,10
 435 -76 435 -76 363 -76 c 0,11,12
 285 -76 285 -76 226.5 -46.5 c 128,-1,13
 168 -17 168 -17 135 37 c 1,14,15
 145 67 145 67 161.5 111.5 c 128,-1,16
 178 156 178 156 198 205.5 c 128,-1,17
 218 255 218 255 238.5 304 c 128,-1,18
 259 353 259 353 277 392 c 0,19,20
 315 477 315 477 345 533 c 128,-1,21
 375 589 375 589 400 622 c 1,22,23
 345 605 345 605 300 583.5 c 128,-1,24
 255 562 255 562 234 542 c 1,25,26
 225 548 225 548 215.5 560 c 128,-1,27
 206 572 206 572 197.5 586.5 c 128,-1,28
 189 601 189 601 183.5 616 c 128,-1,29
 178 631 178 631 177 643 c 1,30,31
 203 661 203 661 244.5 677.5 c 128,-1,32
 286 694 286 694 335 706 c 128,-1,33
 384 718 384 718 435.5 725 c 128,-1,34
 487 732 487 732 534 732 c 0,35,36
 654 732 654 732 722 684 c 128,-1,37
 790 636 790 636 790 551 c 0,0,1
409 312 m 1,38,39
 390 321 390 321 374 339 c 1,40,41
 351 288 351 288 330.5 239 c 128,-1,42
 310 190 310 190 294 148 c 128,-1,43
 278 106 278 106 268 75 c 128,-1,44
 258 44 258 44 257 30 c 1,45,46
 271 22 271 22 290.5 18 c 128,-1,47
 310 14 310 14 339 14 c 0,48,49
 407 14 407 14 469 33 c 128,-1,50
 531 52 531 52 578 84.5 c 128,-1,51
 625 117 625 117 653 159 c 128,-1,52
 681 201 681 201 681 247 c 0,53,54
 681 313 681 313 624 342 c 1,55,56
 546 310 546 310 448 310 c 0,57,58
 434 310 434 310 426.5 310 c 128,-1,59
 419 310 419 310 409 312 c 1,38,39
603 659 m 0,60,61
 582 659 582 659 558.5 656.5 c 128,-1,62
 535 654 535 654 509 649 c 1,63,64
 513 645 513 645 515.5 640.5 c 128,-1,65
 518 636 518 636 520 631 c 1,66,67
 511 619 511 619 498 596 c 128,-1,68
 485 573 485 573 469 542.5 c 128,-1,69
 453 512 453 512 435.5 475 c 128,-1,70
 418 438 418 438 400 399 c 1,71,72
 417 403 417 403 441.5 405.5 c 128,-1,73
 466 408 466 408 490 408 c 0,74,75
 503 408 503 408 515.5 407 c 128,-1,76
 528 406 528 406 540 404 c 1,77,78
 588 412 588 412 626.5 427.5 c 128,-1,79
 665 443 665 443 693 463.5 c 128,-1,80
 721 484 721 484 736 509 c 128,-1,81
 751 534 751 534 751 562 c 0,82,83
 751 610 751 610 713 634.5 c 128,-1,84
 675 659 675 659 603 659 c 0,60,61
EndSplineSet
EndChar

StartChar: C
Encoding: 67 67 15
Width: 604
Flags: W
LayerCount: 2
Fore
SplineSet
142 196 m 0,0,1
 142 266 142 266 158.5 333.5 c 128,-1,2
 175 401 175 401 205 461.5 c 128,-1,3
 235 522 235 522 276.5 572.5 c 128,-1,4
 318 623 318 623 367.5 660 c 128,-1,5
 417 697 417 697 473 717.5 c 128,-1,6
 529 738 529 738 588 738 c 0,7,8
 657 738 657 738 695.5 709 c 128,-1,9
 734 680 734 680 734 628 c 0,10,11
 734 608 734 608 728.5 587 c 128,-1,12
 723 566 723 566 712.5 545.5 c 128,-1,13
 702 525 702 525 688 506 c 128,-1,14
 674 487 674 487 657 473 c 1,15,16
 631 477 631 477 612 496.5 c 128,-1,17
 593 516 593 516 588 542 c 1,18,19
 623 571 623 571 643.5 602.5 c 128,-1,20
 664 634 664 634 664 660 c 0,21,22
 664 704 664 704 609 704 c 0,23,24
 586 704 586 704 561.5 694.5 c 128,-1,25
 537 685 537 685 512 668 c 128,-1,26
 487 651 487 651 463.5 627 c 128,-1,27
 440 603 440 603 420 574 c 0,28,29
 281 374 281 374 281 165 c 0,30,31
 281 91 281 91 304 46 c 128,-1,32
 327 1 327 1 365 -7 c 1,33,34
 408 3 408 3 474 48 c 128,-1,35
 540 93 540 93 618 165 c 1,36,37
 628 155 628 155 630 144 c 1,38,39
 601 106 601 106 570 71 c 128,-1,40
 539 36 539 36 508.5 7 c 128,-1,41
 478 -22 478 -22 448.5 -44 c 128,-1,42
 419 -66 419 -66 394 -78 c 1,43,44
 270 -76 270 -76 206 -7 c 128,-1,45
 142 62 142 62 142 196 c 0,0,1
EndSplineSet
EndChar

StartChar: Cacute
Encoding: 262 262 17
Width: 604
Flags: W
LayerCount: 2
Fore
SplineSet
142 196 m 0,0,1
 142 266 142 266 158.5 333.5 c 128,-1,2
 175 401 175 401 205 461.5 c 128,-1,3
 235 522 235 522 276.5 572.5 c 128,-1,4
 318 623 318 623 367.5 660 c 128,-1,5
 417 697 417 697 473 717.5 c 128,-1,6
 529 738 529 738 588 738 c 0,7,8
 657 738 657 738 695.5 709 c 128,-1,9
 734 680 734 680 734 628 c 0,10,11
 734 608 734 608 728.5 587 c 128,-1,12
 723 566 723 566 712.5 545.5 c 128,-1,13
 702 525 702 525 688 506 c 128,-1,14
 674 487 674 487 657 473 c 1,15,16
 631 477 631 477 612 496.5 c 128,-1,17
 593 516 593 516 588 542 c 1,18,19
 623 571 623 571 643.5 602.5 c 128,-1,20
 664 634 664 634 664 660 c 0,21,22
 664 704 664 704 609 704 c 0,23,24
 586 704 586 704 561.5 694.5 c 128,-1,25
 537 685 537 685 512 668 c 128,-1,26
 487 651 487 651 463.5 627 c 128,-1,27
 440 603 440 603 420 574 c 0,28,29
 281 374 281 374 281 165 c 0,30,31
 281 91 281 91 304 46 c 128,-1,32
 327 1 327 1 365 -7 c 1,33,34
 408 3 408 3 474 48 c 128,-1,35
 540 93 540 93 618 165 c 1,36,37
 628 155 628 155 630 144 c 1,38,39
 601 106 601 106 570 71 c 128,-1,40
 539 36 539 36 508.5 7 c 128,-1,41
 478 -22 478 -22 448.5 -44 c 128,-1,42
 419 -66 419 -66 394 -78 c 1,43,44
 270 -76 270 -76 206 -7 c 128,-1,45
 142 62 142 62 142 196 c 0,0,1
762 883 m 1,46,47
 783 877 783 877 801.5 857 c 128,-1,48
 820 837 820 837 820 819 c 1,49,50
 782 803 782 803 753.5 792.5 c 128,-1,51
 725 782 725 782 702.5 775.5 c 128,-1,52
 680 769 680 769 663 766.5 c 128,-1,53
 646 764 646 764 630 764 c 0,54,55
 598 764 598 764 575 783 c 1,56,57
 620 793 620 793 670 819.5 c 128,-1,58
 720 846 720 846 762 883 c 1,46,47
EndSplineSet
EndChar

StartChar: Ccaron
Encoding: 268 268 18
Width: 604
Flags: W
LayerCount: 2
Fore
SplineSet
142 196 m 0,0,1
 142 266 142 266 158.5 333.5 c 128,-1,2
 175 401 175 401 205 461.5 c 128,-1,3
 235 522 235 522 276.5 572.5 c 128,-1,4
 318 623 318 623 367.5 660 c 128,-1,5
 417 697 417 697 473 717.5 c 128,-1,6
 529 738 529 738 588 738 c 0,7,8
 657 738 657 738 695.5 709 c 128,-1,9
 734 680 734 680 734 628 c 0,10,11
 734 608 734 608 728.5 587 c 128,-1,12
 723 566 723 566 712.5 545.5 c 128,-1,13
 702 525 702 525 688 506 c 128,-1,14
 674 487 674 487 657 473 c 1,15,16
 631 477 631 477 612 496.5 c 128,-1,17
 593 516 593 516 588 542 c 1,18,19
 623 571 623 571 643.5 602.5 c 128,-1,20
 664 634 664 634 664 660 c 0,21,22
 664 704 664 704 609 704 c 0,23,24
 586 704 586 704 561.5 694.5 c 128,-1,25
 537 685 537 685 512 668 c 128,-1,26
 487 651 487 651 463.5 627 c 128,-1,27
 440 603 440 603 420 574 c 0,28,29
 281 374 281 374 281 165 c 0,30,31
 281 91 281 91 304 46 c 128,-1,32
 327 1 327 1 365 -7 c 1,33,34
 408 3 408 3 474 48 c 128,-1,35
 540 93 540 93 618 165 c 1,36,37
 628 155 628 155 630 144 c 1,38,39
 601 106 601 106 570 71 c 128,-1,40
 539 36 539 36 508.5 7 c 128,-1,41
 478 -22 478 -22 448.5 -44 c 128,-1,42
 419 -66 419 -66 394 -78 c 1,43,44
 270 -76 270 -76 206 -7 c 128,-1,45
 142 62 142 62 142 196 c 0,0,1
662 751 m 1,46,47
 647 759 647 759 633 761.5 c 128,-1,48
 619 764 619 764 609 764 c 1,49,50
 598 786 598 786 590 802 c 128,-1,51
 582 818 582 818 574 831 c 128,-1,52
 566 844 566 844 556 855.5 c 128,-1,53
 546 867 546 867 531 881 c 1,54,55
 539 883 539 883 542 883 c 128,-1,56
 545 883 545 883 548 883 c 0,57,58
 577 883 577 883 599.5 865.5 c 128,-1,59
 622 848 622 848 649 803 c 1,60,61
 679 835 679 835 710 855.5 c 128,-1,62
 741 876 741 876 763 883 c 1,63,64
 780 879 780 879 812 838 c 1,65,66
 780 827 780 827 741.5 808.5 c 128,-1,67
 703 790 703 790 662 751 c 1,46,47
EndSplineSet
EndChar

StartChar: Ccedilla
Encoding: 199 199 19
Width: 605
Flags: W
LayerCount: 2
Fore
SplineSet
142 196 m 0,0,1
 142 266 142 266 158.5 333.5 c 128,-1,2
 175 401 175 401 205 461.5 c 128,-1,3
 235 522 235 522 276.5 572.5 c 128,-1,4
 318 623 318 623 367.5 660 c 128,-1,5
 417 697 417 697 473 717.5 c 128,-1,6
 529 738 529 738 588 738 c 0,7,8
 657 738 657 738 695.5 709 c 128,-1,9
 734 680 734 680 734 628 c 0,10,11
 734 608 734 608 728.5 587 c 128,-1,12
 723 566 723 566 712.5 545.5 c 128,-1,13
 702 525 702 525 688 506 c 128,-1,14
 674 487 674 487 657 473 c 1,15,16
 631 477 631 477 612 496.5 c 128,-1,17
 593 516 593 516 588 542 c 1,18,19
 623 571 623 571 643.5 602.5 c 128,-1,20
 664 634 664 634 664 660 c 0,21,22
 664 704 664 704 609 704 c 0,23,24
 586 704 586 704 561.5 694.5 c 128,-1,25
 537 685 537 685 512 668 c 128,-1,26
 487 651 487 651 463.5 627 c 128,-1,27
 440 603 440 603 420 574 c 0,28,29
 281 374 281 374 281 165 c 0,30,31
 281 91 281 91 304 46 c 128,-1,32
 327 1 327 1 365 -7 c 1,33,34
 408 3 408 3 474 48 c 128,-1,35
 540 93 540 93 618 165 c 1,36,37
 628 155 628 155 630 144 c 1,38,39
 601 106 601 106 570 71 c 128,-1,40
 539 36 539 36 508.5 7 c 128,-1,41
 478 -22 478 -22 448.5 -44 c 128,-1,42
 419 -66 419 -66 394 -78 c 1,43,44
 380 -95 380 -95 370.5 -111.5 c 128,-1,45
 361 -128 361 -128 356 -142 c 1,46,47
 365 -137 365 -137 378.5 -132.5 c 128,-1,48
 392 -128 392 -128 406 -124 c 128,-1,49
 420 -120 420 -120 433.5 -118 c 128,-1,50
 447 -116 447 -116 456 -116 c 0,51,52
 460 -116 460 -116 470 -122.5 c 128,-1,53
 480 -129 480 -129 489.5 -137 c 128,-1,54
 499 -145 499 -145 506.5 -153 c 128,-1,55
 514 -161 514 -161 514 -165 c 0,56,57
 514 -172 514 -172 502 -187 c 128,-1,58
 490 -202 490 -202 471.5 -220 c 128,-1,59
 453 -238 453 -238 430 -258 c 128,-1,60
 407 -278 407 -278 386 -294 c 128,-1,61
 365 -310 365 -310 347.5 -320.5 c 128,-1,62
 330 -331 330 -331 322 -331 c 0,63,64
 320 -331 320 -331 316.5 -326.5 c 128,-1,65
 313 -322 313 -322 309.5 -316 c 128,-1,66
 306 -310 306 -310 303.5 -304 c 128,-1,67
 301 -298 301 -298 301 -295 c 1,68,69
 324 -276 324 -276 341 -260 c 128,-1,70
 358 -244 358 -244 372 -229 c 128,-1,71
 386 -214 386 -214 398 -197 c 128,-1,72
 410 -180 410 -180 423 -159 c 1,73,74
 415 -161 415 -161 400 -164.5 c 128,-1,75
 385 -168 385 -168 368.5 -173.5 c 128,-1,76
 352 -179 352 -179 335.5 -184.5 c 128,-1,77
 319 -190 319 -190 307 -194 c 1,78,79
 304 -192 304 -192 302 -188.5 c 128,-1,80
 300 -185 300 -185 299 -182 c 1,81,82
 304 -168 304 -168 321.5 -138 c 128,-1,83
 339 -108 339 -108 362 -76 c 1,84,85
 253 -65 253 -65 197.5 3 c 128,-1,86
 142 71 142 71 142 196 c 0,0,1
EndSplineSet
EndChar

StartChar: Ccircumflex
Encoding: 264 264 20
Width: 604
Flags: W
LayerCount: 2
Fore
SplineSet
142 196 m 0,0,1
 142 266 142 266 158.5 333.5 c 128,-1,2
 175 401 175 401 205 461.5 c 128,-1,3
 235 522 235 522 276.5 572.5 c 128,-1,4
 318 623 318 623 367.5 660 c 128,-1,5
 417 697 417 697 473 717.5 c 128,-1,6
 529 738 529 738 588 738 c 0,7,8
 657 738 657 738 695.5 709 c 128,-1,9
 734 680 734 680 734 628 c 0,10,11
 734 608 734 608 728.5 587 c 128,-1,12
 723 566 723 566 712.5 545.5 c 128,-1,13
 702 525 702 525 688 506 c 128,-1,14
 674 487 674 487 657 473 c 1,15,16
 631 477 631 477 612 496.5 c 128,-1,17
 593 516 593 516 588 542 c 1,18,19
 623 571 623 571 643.5 602.5 c 128,-1,20
 664 634 664 634 664 660 c 0,21,22
 664 704 664 704 609 704 c 0,23,24
 586 704 586 704 561.5 694.5 c 128,-1,25
 537 685 537 685 512 668 c 128,-1,26
 487 651 487 651 463.5 627 c 128,-1,27
 440 603 440 603 420 574 c 0,28,29
 281 374 281 374 281 165 c 0,30,31
 281 91 281 91 304 46 c 128,-1,32
 327 1 327 1 365 -7 c 1,33,34
 408 3 408 3 474 48 c 128,-1,35
 540 93 540 93 618 165 c 1,36,37
 628 155 628 155 630 144 c 1,38,39
 601 106 601 106 570 71 c 128,-1,40
 539 36 539 36 508.5 7 c 128,-1,41
 478 -22 478 -22 448.5 -44 c 128,-1,42
 419 -66 419 -66 394 -78 c 1,43,44
 270 -76 270 -76 206 -7 c 128,-1,45
 142 62 142 62 142 196 c 0,0,1
726 882 m 1,46,47
 733 826 733 826 744 797 c 128,-1,48
 755 768 755 768 778 754 c 1,49,50
 776 753 776 753 769 753 c 0,51,52
 744 753 744 753 717.5 768.5 c 128,-1,53
 691 784 691 784 670 809 c 1,54,55
 643 789 643 789 612 776.5 c 128,-1,56
 581 764 581 764 558 764 c 0,57,58
 543 764 543 764 529.5 768.5 c 128,-1,59
 516 773 516 773 504 786 c 1,60,61
 580 805 580 805 641 857 c 1,62,63
 639 861 639 861 637 869 c 1,64,65
 657 883 657 883 698 883 c 0,66,67
 710 883 710 883 715.5 883 c 128,-1,68
 721 883 721 883 726 882 c 1,46,47
EndSplineSet
EndChar

StartChar: Cdotaccent
Encoding: 266 266 21
Width: 604
Flags: W
LayerCount: 2
Fore
SplineSet
142 196 m 0,0,1
 142 266 142 266 158.5 333.5 c 128,-1,2
 175 401 175 401 205 461.5 c 128,-1,3
 235 522 235 522 276.5 572.5 c 128,-1,4
 318 623 318 623 367.5 660 c 128,-1,5
 417 697 417 697 473 717.5 c 128,-1,6
 529 738 529 738 588 738 c 0,7,8
 657 738 657 738 695.5 709 c 128,-1,9
 734 680 734 680 734 628 c 0,10,11
 734 608 734 608 728.5 587 c 128,-1,12
 723 566 723 566 712.5 545.5 c 128,-1,13
 702 525 702 525 688 506 c 128,-1,14
 674 487 674 487 657 473 c 1,15,16
 631 477 631 477 612 496.5 c 128,-1,17
 593 516 593 516 588 542 c 1,18,19
 623 571 623 571 643.5 602.5 c 128,-1,20
 664 634 664 634 664 660 c 0,21,22
 664 704 664 704 609 704 c 0,23,24
 586 704 586 704 561.5 694.5 c 128,-1,25
 537 685 537 685 512 668 c 128,-1,26
 487 651 487 651 463.5 627 c 128,-1,27
 440 603 440 603 420 574 c 0,28,29
 281 374 281 374 281 165 c 0,30,31
 281 91 281 91 304 46 c 128,-1,32
 327 1 327 1 365 -7 c 1,33,34
 408 3 408 3 474 48 c 128,-1,35
 540 93 540 93 618 165 c 1,36,37
 628 155 628 155 630 144 c 1,38,39
 601 106 601 106 570 71 c 128,-1,40
 539 36 539 36 508.5 7 c 128,-1,41
 478 -22 478 -22 448.5 -44 c 128,-1,42
 419 -66 419 -66 394 -78 c 1,43,44
 270 -76 270 -76 206 -7 c 128,-1,45
 142 62 142 62 142 196 c 0,0,1
637 791 m 0,46,47
 637 797 637 797 640 809 c 1,48,49
 625 824 625 824 625 849 c 0,50,51
 625 865 625 865 630 883 c 1,52,53
 642 883 642 883 659 881 c 128,-1,54
 676 879 676 879 693 876 c 128,-1,55
 710 873 710 873 725 868.5 c 128,-1,56
 740 864 740 864 748 860 c 1,57,58
 740 855 740 855 728.5 842 c 128,-1,59
 717 829 717 829 705.5 814 c 128,-1,60
 694 799 694 799 684.5 785 c 128,-1,61
 675 771 675 771 672 764 c 1,62,63
 659 766 659 766 648 774.5 c 128,-1,64
 637 783 637 783 637 791 c 0,46,47
EndSplineSet
EndChar

StartChar: D
Encoding: 68 68 22
Width: 778
Flags: W
LayerCount: 2
Fore
SplineSet
168 52 m 1,0,1
 183 85 183 85 204 137 c 128,-1,2
 225 189 225 189 248 249.5 c 128,-1,3
 271 310 271 310 295 373.5 c 128,-1,4
 319 437 319 437 340 494 c 128,-1,5
 361 551 361 551 376.5 596 c 128,-1,6
 392 641 392 641 399 665 c 1,7,8
 336 639 336 639 291 586 c 128,-1,9
 246 533 246 533 223 453 c 1,10,11
 200 461 200 461 181 481.5 c 128,-1,12
 162 502 162 502 156 533 c 1,13,14
 166 579 166 579 193.5 617 c 128,-1,15
 221 655 221 655 263 682 c 128,-1,16
 305 709 305 709 360 723.5 c 128,-1,17
 415 738 415 738 478 738 c 0,18,19
 558 738 558 738 625 714.5 c 128,-1,20
 692 691 692 691 740 649 c 128,-1,21
 788 607 788 607 815 548 c 128,-1,22
 842 489 842 489 842 417 c 0,23,24
 842 319 842 319 806 230 c 128,-1,25
 770 141 770 141 708.5 73 c 128,-1,26
 647 5 647 5 566 -35.5 c 128,-1,27
 485 -76 485 -76 396 -76 c 0,28,29
 314 -76 314 -76 255.5 -43.5 c 128,-1,30
 197 -11 197 -11 168 52 c 1,0,1
521 688 m 0,31,32
 471 688 471 688 426 674 c 1,33,34
 470 658 470 658 499 640.5 c 128,-1,35
 528 623 528 623 539 613 c 1,36,37
 531 602 531 602 515.5 574 c 128,-1,38
 500 546 500 546 479.5 506 c 128,-1,39
 459 466 459 466 436 418.5 c 128,-1,40
 413 371 413 371 391 321 c 0,41,42
 334 194 334 194 308.5 121 c 128,-1,43
 283 48 283 48 283 20 c 1,44,45
 297 15 297 15 317 13 c 128,-1,46
 337 11 337 11 360 11 c 0,47,48
 441 11 441 11 513.5 48.5 c 128,-1,49
 586 86 586 86 640.5 149 c 128,-1,50
 695 212 695 212 726.5 295.5 c 128,-1,51
 758 379 758 379 758 471 c 0,52,53
 758 574 758 574 694 631 c 128,-1,54
 630 688 630 688 521 688 c 0,31,32
EndSplineSet
EndChar

StartChar: Dcaron
Encoding: 270 270 23
Width: 778
Flags: W
LayerCount: 2
Fore
SplineSet
168 52 m 1,0,1
 183 85 183 85 204 137 c 128,-1,2
 225 189 225 189 248 249.5 c 128,-1,3
 271 310 271 310 295 373.5 c 128,-1,4
 319 437 319 437 340 494 c 128,-1,5
 361 551 361 551 376.5 596 c 128,-1,6
 392 641 392 641 399 665 c 1,7,8
 336 639 336 639 291 586 c 128,-1,9
 246 533 246 533 223 453 c 1,10,11
 200 461 200 461 181 481.5 c 128,-1,12
 162 502 162 502 156 533 c 1,13,14
 166 579 166 579 193.5 617 c 128,-1,15
 221 655 221 655 263 682 c 128,-1,16
 305 709 305 709 360 723.5 c 128,-1,17
 415 738 415 738 478 738 c 0,18,19
 558 738 558 738 625 714.5 c 128,-1,20
 692 691 692 691 740 649 c 128,-1,21
 788 607 788 607 815 548 c 128,-1,22
 842 489 842 489 842 417 c 0,23,24
 842 319 842 319 806 230 c 128,-1,25
 770 141 770 141 708.5 73 c 128,-1,26
 647 5 647 5 566 -35.5 c 128,-1,27
 485 -76 485 -76 396 -76 c 0,28,29
 314 -76 314 -76 255.5 -43.5 c 128,-1,30
 197 -11 197 -11 168 52 c 1,0,1
521 688 m 0,31,32
 471 688 471 688 426 674 c 1,33,34
 470 658 470 658 499 640.5 c 128,-1,35
 528 623 528 623 539 613 c 1,36,37
 531 602 531 602 515.5 574 c 128,-1,38
 500 546 500 546 479.5 506 c 128,-1,39
 459 466 459 466 436 418.5 c 128,-1,40
 413 371 413 371 391 321 c 0,41,42
 334 194 334 194 308.5 121 c 128,-1,43
 283 48 283 48 283 20 c 1,44,45
 297 15 297 15 317 13 c 128,-1,46
 337 11 337 11 360 11 c 0,47,48
 441 11 441 11 513.5 48.5 c 128,-1,49
 586 86 586 86 640.5 149 c 128,-1,50
 695 212 695 212 726.5 295.5 c 128,-1,51
 758 379 758 379 758 471 c 0,52,53
 758 574 758 574 694 631 c 128,-1,54
 630 688 630 688 521 688 c 0,31,32
627 751 m 1,55,56
 612 759 612 759 598 761.5 c 128,-1,57
 584 764 584 764 574 764 c 1,58,59
 563 786 563 786 555 802 c 128,-1,60
 547 818 547 818 539 831 c 128,-1,61
 531 844 531 844 521 855.5 c 128,-1,62
 511 867 511 867 496 881 c 1,63,64
 504 883 504 883 507 883 c 128,-1,65
 510 883 510 883 513 883 c 0,66,67
 542 883 542 883 564.5 865.5 c 128,-1,68
 587 848 587 848 614 803 c 1,69,70
 644 835 644 835 675 855.5 c 128,-1,71
 706 876 706 876 728 883 c 1,72,73
 745 879 745 879 777 838 c 1,74,75
 745 827 745 827 706.5 808.5 c 128,-1,76
 668 790 668 790 627 751 c 1,55,56
EndSplineSet
EndChar

StartChar: Dcroat
Encoding: 272 272 24
Width: 778
Flags: W
LayerCount: 2
Fore
SplineSet
168 52 m 1,0,1
 185 90 185 90 209 149.5 c 128,-1,2
 233 209 233 209 259 278 c 1,3,4
 233 280 233 280 210 282.5 c 128,-1,5
 187 285 187 285 167 289 c 1,6,7
 169 299 169 299 169.5 313 c 128,-1,8
 170 327 170 327 170 355 c 1,9,10
 197 353 197 353 225 352.5 c 128,-1,11
 253 352 253 352 287 352 c 1,12,13
 306 401 306 401 323.5 449.5 c 128,-1,14
 341 498 341 498 356 539.5 c 128,-1,15
 371 581 371 581 382 613.5 c 128,-1,16
 393 646 393 646 399 665 c 1,17,18
 336 639 336 639 291 586 c 128,-1,19
 246 533 246 533 223 453 c 1,20,21
 200 461 200 461 181 481.5 c 128,-1,22
 162 502 162 502 156 533 c 1,23,24
 166 579 166 579 193.5 617 c 128,-1,25
 221 655 221 655 263 682 c 128,-1,26
 305 709 305 709 360 723.5 c 128,-1,27
 415 738 415 738 478 738 c 0,28,29
 558 738 558 738 625 714.5 c 128,-1,30
 692 691 692 691 740 649 c 128,-1,31
 788 607 788 607 815 548 c 128,-1,32
 842 489 842 489 842 417 c 0,33,34
 842 319 842 319 806 230 c 128,-1,35
 770 141 770 141 708.5 73 c 128,-1,36
 647 5 647 5 566 -35.5 c 128,-1,37
 485 -76 485 -76 396 -76 c 0,38,39
 314 -76 314 -76 255.5 -43.5 c 128,-1,40
 197 -11 197 -11 168 52 c 1,0,1
521 688 m 0,41,42
 471 688 471 688 426 674 c 1,43,44
 470 658 470 658 499 640.5 c 128,-1,45
 528 623 528 623 539 613 c 1,46,47
 532 603 532 603 518.5 578.5 c 128,-1,48
 505 554 505 554 487 520 c 128,-1,49
 469 486 469 486 448.5 444 c 128,-1,50
 428 402 428 402 407 357 c 1,51,52
 461 363 461 363 513 372 c 1,53,54
 521 359 521 359 528 332.5 c 128,-1,55
 535 306 535 306 535 285 c 1,56,57
 455 276 455 276 371 276 c 1,58,59
 324 170 324 170 303.5 108 c 128,-1,60
 283 46 283 46 283 20 c 1,61,62
 297 15 297 15 317 13 c 128,-1,63
 337 11 337 11 360 11 c 0,64,65
 441 11 441 11 513.5 48.5 c 128,-1,66
 586 86 586 86 640.5 149 c 128,-1,67
 695 212 695 212 726.5 295.5 c 128,-1,68
 758 379 758 379 758 471 c 0,69,70
 758 574 758 574 694 631 c 128,-1,71
 630 688 630 688 521 688 c 0,41,42
EndSplineSet
EndChar

StartChar: E
Encoding: 69 69 25
Width: 609
Flags: W
LayerCount: 2
Fore
SplineSet
514 426 m 0,0,1
 547 426 547 426 565.5 408 c 128,-1,2
 584 390 584 390 584 358 c 0,3,4
 584 350 584 350 582.5 341.5 c 128,-1,5
 581 333 581 333 579 327 c 1,6,7
 566 329 566 329 550 330.5 c 128,-1,8
 534 332 534 332 512 332 c 0,9,10
 469 332 469 332 425 324.5 c 128,-1,11
 381 317 381 317 341 312 c 1,12,13
 318 259 318 259 299 209.5 c 128,-1,14
 280 160 280 160 266.5 119 c 128,-1,15
 253 78 253 78 245.5 48 c 128,-1,16
 238 18 238 18 237 3 c 1,17,18
 318 20 318 20 400.5 32 c 128,-1,19
 483 44 483 44 574 50 c 1,20,21
 585 33 585 33 592.5 13 c 128,-1,22
 600 -7 600 -7 600 -30 c 0,23,24
 600 -36 600 -36 600 -43 c 128,-1,25
 600 -50 600 -50 598 -57 c 1,26,27
 570 -56 570 -56 539 -55.5 c 128,-1,28
 508 -55 508 -55 458 -55 c 0,29,30
 425 -55 425 -55 395.5 -56.5 c 128,-1,31
 366 -58 366 -58 336 -61 c 128,-1,32
 306 -64 306 -64 272.5 -69 c 128,-1,33
 239 -74 239 -74 197 -81 c 1,34,35
 151 -63 151 -63 108 7 c 1,36,37
 125 43 125 43 155.5 116.5 c 128,-1,38
 186 190 186 190 233 313 c 1,39,40
 188 327 188 327 174 363 c 1,41,42
 179 368 179 368 203 375.5 c 128,-1,43
 227 383 227 383 262 391 c 1,44,45
 277 430 277 430 287.5 459 c 128,-1,46
 298 488 298 488 306 513.5 c 128,-1,47
 314 539 314 539 320.5 563.5 c 128,-1,48
 327 588 327 588 333 617 c 1,49,50
 298 619 298 619 278 636.5 c 128,-1,51
 258 654 258 654 258 682 c 0,52,53
 258 690 258 690 260.5 701 c 128,-1,54
 263 712 263 712 266 720 c 1,55,56
 286 717 286 717 304.5 716 c 128,-1,57
 323 715 323 715 353 715 c 0,58,59
 416 715 416 715 471 718.5 c 128,-1,60
 526 722 526 722 570.5 726 c 128,-1,61
 615 730 615 730 647 733.5 c 128,-1,62
 679 737 679 737 696 737 c 0,63,64
 719 737 719 737 737 713 c 128,-1,65
 755 689 755 689 764 645 c 1,66,67
 733 648 733 648 713.5 649 c 128,-1,68
 694 650 694 650 679 650 c 0,69,70
 624 650 624 650 578.5 644.5 c 128,-1,71
 533 639 533 639 491 633 c 1,72,73
 485 624 485 624 477.5 610 c 128,-1,74
 470 596 470 596 458 571 c 128,-1,75
 446 546 446 546 428.5 508 c 128,-1,76
 411 470 411 470 386 413 c 1,77,78
 424 419 424 419 457.5 422.5 c 128,-1,79
 491 426 491 426 514 426 c 0,0,1
EndSplineSet
EndChar

StartChar: Eacute
Encoding: 201 201 26
Width: 609
Flags: W
LayerCount: 2
Fore
SplineSet
514 426 m 0,0,1
 547 426 547 426 565.5 408 c 128,-1,2
 584 390 584 390 584 358 c 0,3,4
 584 350 584 350 582.5 341.5 c 128,-1,5
 581 333 581 333 579 327 c 1,6,7
 566 329 566 329 550 330.5 c 128,-1,8
 534 332 534 332 512 332 c 0,9,10
 469 332 469 332 425 324.5 c 128,-1,11
 381 317 381 317 341 312 c 1,12,13
 318 259 318 259 299 209.5 c 128,-1,14
 280 160 280 160 266.5 119 c 128,-1,15
 253 78 253 78 245.5 48 c 128,-1,16
 238 18 238 18 237 3 c 1,17,18
 318 20 318 20 400.5 32 c 128,-1,19
 483 44 483 44 574 50 c 1,20,21
 585 33 585 33 592.5 13 c 128,-1,22
 600 -7 600 -7 600 -30 c 0,23,24
 600 -36 600 -36 600 -43 c 128,-1,25
 600 -50 600 -50 598 -57 c 1,26,27
 570 -56 570 -56 539 -55.5 c 128,-1,28
 508 -55 508 -55 458 -55 c 0,29,30
 425 -55 425 -55 395.5 -56.5 c 128,-1,31
 366 -58 366 -58 336 -61 c 128,-1,32
 306 -64 306 -64 272.5 -69 c 128,-1,33
 239 -74 239 -74 197 -81 c 1,34,35
 151 -63 151 -63 108 7 c 1,36,37
 125 43 125 43 155.5 116.5 c 128,-1,38
 186 190 186 190 233 313 c 1,39,40
 188 327 188 327 174 363 c 1,41,42
 179 368 179 368 203 375.5 c 128,-1,43
 227 383 227 383 262 391 c 1,44,45
 277 430 277 430 287.5 459 c 128,-1,46
 298 488 298 488 306 513.5 c 128,-1,47
 314 539 314 539 320.5 563.5 c 128,-1,48
 327 588 327 588 333 617 c 1,49,50
 298 619 298 619 278 636.5 c 128,-1,51
 258 654 258 654 258 682 c 0,52,53
 258 690 258 690 260.5 701 c 128,-1,54
 263 712 263 712 266 720 c 1,55,56
 286 717 286 717 304.5 716 c 128,-1,57
 323 715 323 715 353 715 c 0,58,59
 416 715 416 715 471 718.5 c 128,-1,60
 526 722 526 722 570.5 726 c 128,-1,61
 615 730 615 730 647 733.5 c 128,-1,62
 679 737 679 737 696 737 c 0,63,64
 719 737 719 737 737 713 c 128,-1,65
 755 689 755 689 764 645 c 1,66,67
 733 648 733 648 713.5 649 c 128,-1,68
 694 650 694 650 679 650 c 0,69,70
 624 650 624 650 578.5 644.5 c 128,-1,71
 533 639 533 639 491 633 c 1,72,73
 485 624 485 624 477.5 610 c 128,-1,74
 470 596 470 596 458 571 c 128,-1,75
 446 546 446 546 428.5 508 c 128,-1,76
 411 470 411 470 386 413 c 1,77,78
 424 419 424 419 457.5 422.5 c 128,-1,79
 491 426 491 426 514 426 c 0,0,1
634 883 m 1,80,81
 655 877 655 877 673.5 857 c 128,-1,82
 692 837 692 837 692 819 c 1,83,84
 654 803 654 803 625.5 792.5 c 128,-1,85
 597 782 597 782 574.5 775.5 c 128,-1,86
 552 769 552 769 535 766.5 c 128,-1,87
 518 764 518 764 502 764 c 0,88,89
 470 764 470 764 447 783 c 1,90,91
 492 793 492 793 542 819.5 c 128,-1,92
 592 846 592 846 634 883 c 1,80,81
EndSplineSet
EndChar

StartChar: Ebreve
Encoding: 276 276 27
Width: 609
Flags: W
LayerCount: 2
Fore
SplineSet
514 426 m 0,0,1
 547 426 547 426 565.5 408 c 128,-1,2
 584 390 584 390 584 358 c 0,3,4
 584 350 584 350 582.5 341.5 c 128,-1,5
 581 333 581 333 579 327 c 1,6,7
 566 329 566 329 550 330.5 c 128,-1,8
 534 332 534 332 512 332 c 0,9,10
 469 332 469 332 425 324.5 c 128,-1,11
 381 317 381 317 341 312 c 1,12,13
 318 259 318 259 299 209.5 c 128,-1,14
 280 160 280 160 266.5 119 c 128,-1,15
 253 78 253 78 245.5 48 c 128,-1,16
 238 18 238 18 237 3 c 1,17,18
 318 20 318 20 400.5 32 c 128,-1,19
 483 44 483 44 574 50 c 1,20,21
 585 33 585 33 592.5 13 c 128,-1,22
 600 -7 600 -7 600 -30 c 0,23,24
 600 -36 600 -36 600 -43 c 128,-1,25
 600 -50 600 -50 598 -57 c 1,26,27
 570 -56 570 -56 539 -55.5 c 128,-1,28
 508 -55 508 -55 458 -55 c 0,29,30
 425 -55 425 -55 395.5 -56.5 c 128,-1,31
 366 -58 366 -58 336 -61 c 128,-1,32
 306 -64 306 -64 272.5 -69 c 128,-1,33
 239 -74 239 -74 197 -81 c 1,34,35
 151 -63 151 -63 108 7 c 1,36,37
 125 43 125 43 155.5 116.5 c 128,-1,38
 186 190 186 190 233 313 c 1,39,40
 188 327 188 327 174 363 c 1,41,42
 179 368 179 368 203 375.5 c 128,-1,43
 227 383 227 383 262 391 c 1,44,45
 277 430 277 430 287.5 459 c 128,-1,46
 298 488 298 488 306 513.5 c 128,-1,47
 314 539 314 539 320.5 563.5 c 128,-1,48
 327 588 327 588 333 617 c 1,49,50
 298 619 298 619 278 636.5 c 128,-1,51
 258 654 258 654 258 682 c 0,52,53
 258 690 258 690 260.5 701 c 128,-1,54
 263 712 263 712 266 720 c 1,55,56
 286 717 286 717 304.5 716 c 128,-1,57
 323 715 323 715 353 715 c 0,58,59
 416 715 416 715 471 718.5 c 128,-1,60
 526 722 526 722 570.5 726 c 128,-1,61
 615 730 615 730 647 733.5 c 128,-1,62
 679 737 679 737 696 737 c 0,63,64
 719 737 719 737 737 713 c 128,-1,65
 755 689 755 689 764 645 c 1,66,67
 733 648 733 648 713.5 649 c 128,-1,68
 694 650 694 650 679 650 c 0,69,70
 624 650 624 650 578.5 644.5 c 128,-1,71
 533 639 533 639 491 633 c 1,72,73
 485 624 485 624 477.5 610 c 128,-1,74
 470 596 470 596 458 571 c 128,-1,75
 446 546 446 546 428.5 508 c 128,-1,76
 411 470 411 470 386 413 c 1,77,78
 424 419 424 419 457.5 422.5 c 128,-1,79
 491 426 491 426 514 426 c 0,0,1
559 764 m 1,80,81
 539 765 539 765 517 770.5 c 128,-1,82
 495 776 495 776 475.5 786.5 c 128,-1,83
 456 797 456 797 440.5 813 c 128,-1,84
 425 829 425 829 418 852 c 1,85,86
 431 866 431 866 445 873 c 128,-1,87
 459 880 459 880 487 883 c 1,88,89
 501 849 501 849 527.5 835 c 128,-1,90
 554 821 554 821 585 819 c 1,91,92
 623 825 623 825 647.5 840.5 c 128,-1,93
 672 856 672 856 689 880 c 1,94,95
 699 877 699 877 705 861 c 1,96,97
 695 827 695 827 656 801 c 128,-1,98
 617 775 617 775 559 764 c 1,80,81
EndSplineSet
EndChar

StartChar: Ecaron
Encoding: 282 282 28
Width: 609
Flags: W
LayerCount: 2
Fore
SplineSet
514 426 m 0,0,1
 547 426 547 426 565.5 408 c 128,-1,2
 584 390 584 390 584 358 c 0,3,4
 584 350 584 350 582.5 341.5 c 128,-1,5
 581 333 581 333 579 327 c 1,6,7
 566 329 566 329 550 330.5 c 128,-1,8
 534 332 534 332 512 332 c 0,9,10
 469 332 469 332 425 324.5 c 128,-1,11
 381 317 381 317 341 312 c 1,12,13
 318 259 318 259 299 209.5 c 128,-1,14
 280 160 280 160 266.5 119 c 128,-1,15
 253 78 253 78 245.5 48 c 128,-1,16
 238 18 238 18 237 3 c 1,17,18
 318 20 318 20 400.5 32 c 128,-1,19
 483 44 483 44 574 50 c 1,20,21
 585 33 585 33 592.5 13 c 128,-1,22
 600 -7 600 -7 600 -30 c 0,23,24
 600 -36 600 -36 600 -43 c 128,-1,25
 600 -50 600 -50 598 -57 c 1,26,27
 570 -56 570 -56 539 -55.5 c 128,-1,28
 508 -55 508 -55 458 -55 c 0,29,30
 425 -55 425 -55 395.5 -56.5 c 128,-1,31
 366 -58 366 -58 336 -61 c 128,-1,32
 306 -64 306 -64 272.5 -69 c 128,-1,33
 239 -74 239 -74 197 -81 c 1,34,35
 151 -63 151 -63 108 7 c 1,36,37
 125 43 125 43 155.5 116.5 c 128,-1,38
 186 190 186 190 233 313 c 1,39,40
 188 327 188 327 174 363 c 1,41,42
 179 368 179 368 203 375.5 c 128,-1,43
 227 383 227 383 262 391 c 1,44,45
 277 430 277 430 287.5 459 c 128,-1,46
 298 488 298 488 306 513.5 c 128,-1,47
 314 539 314 539 320.5 563.5 c 128,-1,48
 327 588 327 588 333 617 c 1,49,50
 298 619 298 619 278 636.5 c 128,-1,51
 258 654 258 654 258 682 c 0,52,53
 258 690 258 690 260.5 701 c 128,-1,54
 263 712 263 712 266 720 c 1,55,56
 286 717 286 717 304.5 716 c 128,-1,57
 323 715 323 715 353 715 c 0,58,59
 416 715 416 715 471 718.5 c 128,-1,60
 526 722 526 722 570.5 726 c 128,-1,61
 615 730 615 730 647 733.5 c 128,-1,62
 679 737 679 737 696 737 c 0,63,64
 719 737 719 737 737 713 c 128,-1,65
 755 689 755 689 764 645 c 1,66,67
 733 648 733 648 713.5 649 c 128,-1,68
 694 650 694 650 679 650 c 0,69,70
 624 650 624 650 578.5 644.5 c 128,-1,71
 533 639 533 639 491 633 c 1,72,73
 485 624 485 624 477.5 610 c 128,-1,74
 470 596 470 596 458 571 c 128,-1,75
 446 546 446 546 428.5 508 c 128,-1,76
 411 470 411 470 386 413 c 1,77,78
 424 419 424 419 457.5 422.5 c 128,-1,79
 491 426 491 426 514 426 c 0,0,1
534 751 m 1,80,81
 519 759 519 759 505 761.5 c 128,-1,82
 491 764 491 764 481 764 c 1,83,84
 470 786 470 786 462 802 c 128,-1,85
 454 818 454 818 446 831 c 128,-1,86
 438 844 438 844 428 855.5 c 128,-1,87
 418 867 418 867 403 881 c 1,88,89
 411 883 411 883 414 883 c 128,-1,90
 417 883 417 883 420 883 c 0,91,92
 449 883 449 883 471.5 865.5 c 128,-1,93
 494 848 494 848 521 803 c 1,94,95
 551 835 551 835 582 855.5 c 128,-1,96
 613 876 613 876 635 883 c 1,97,98
 652 879 652 879 684 838 c 1,99,100
 652 827 652 827 613.5 808.5 c 128,-1,101
 575 790 575 790 534 751 c 1,80,81
EndSplineSet
EndChar

StartChar: Ecircumflex
Encoding: 202 202 29
Width: 609
Flags: W
LayerCount: 2
Fore
SplineSet
514 426 m 0,0,1
 547 426 547 426 565.5 408 c 128,-1,2
 584 390 584 390 584 358 c 0,3,4
 584 350 584 350 582.5 341.5 c 128,-1,5
 581 333 581 333 579 327 c 1,6,7
 566 329 566 329 550 330.5 c 128,-1,8
 534 332 534 332 512 332 c 0,9,10
 469 332 469 332 425 324.5 c 128,-1,11
 381 317 381 317 341 312 c 1,12,13
 318 259 318 259 299 209.5 c 128,-1,14
 280 160 280 160 266.5 119 c 128,-1,15
 253 78 253 78 245.5 48 c 128,-1,16
 238 18 238 18 237 3 c 1,17,18
 318 20 318 20 400.5 32 c 128,-1,19
 483 44 483 44 574 50 c 1,20,21
 585 33 585 33 592.5 13 c 128,-1,22
 600 -7 600 -7 600 -30 c 0,23,24
 600 -36 600 -36 600 -43 c 128,-1,25
 600 -50 600 -50 598 -57 c 1,26,27
 570 -56 570 -56 539 -55.5 c 128,-1,28
 508 -55 508 -55 458 -55 c 0,29,30
 425 -55 425 -55 395.5 -56.5 c 128,-1,31
 366 -58 366 -58 336 -61 c 128,-1,32
 306 -64 306 -64 272.5 -69 c 128,-1,33
 239 -74 239 -74 197 -81 c 1,34,35
 151 -63 151 -63 108 7 c 1,36,37
 125 43 125 43 155.5 116.5 c 128,-1,38
 186 190 186 190 233 313 c 1,39,40
 188 327 188 327 174 363 c 1,41,42
 179 368 179 368 203 375.5 c 128,-1,43
 227 383 227 383 262 391 c 1,44,45
 277 430 277 430 287.5 459 c 128,-1,46
 298 488 298 488 306 513.5 c 128,-1,47
 314 539 314 539 320.5 563.5 c 128,-1,48
 327 588 327 588 333 617 c 1,49,50
 298 619 298 619 278 636.5 c 128,-1,51
 258 654 258 654 258 682 c 0,52,53
 258 690 258 690 260.5 701 c 128,-1,54
 263 712 263 712 266 720 c 1,55,56
 286 717 286 717 304.5 716 c 128,-1,57
 323 715 323 715 353 715 c 0,58,59
 416 715 416 715 471 718.5 c 128,-1,60
 526 722 526 722 570.5 726 c 128,-1,61
 615 730 615 730 647 733.5 c 128,-1,62
 679 737 679 737 696 737 c 0,63,64
 719 737 719 737 737 713 c 128,-1,65
 755 689 755 689 764 645 c 1,66,67
 733 648 733 648 713.5 649 c 128,-1,68
 694 650 694 650 679 650 c 0,69,70
 624 650 624 650 578.5 644.5 c 128,-1,71
 533 639 533 639 491 633 c 1,72,73
 485 624 485 624 477.5 610 c 128,-1,74
 470 596 470 596 458 571 c 128,-1,75
 446 546 446 546 428.5 508 c 128,-1,76
 411 470 411 470 386 413 c 1,77,78
 424 419 424 419 457.5 422.5 c 128,-1,79
 491 426 491 426 514 426 c 0,0,1
598 882 m 1,80,81
 605 826 605 826 616 797 c 128,-1,82
 627 768 627 768 650 754 c 1,83,84
 648 753 648 753 641 753 c 0,85,86
 616 753 616 753 589.5 768.5 c 128,-1,87
 563 784 563 784 542 809 c 1,88,89
 515 789 515 789 484 776.5 c 128,-1,90
 453 764 453 764 430 764 c 0,91,92
 415 764 415 764 401.5 768.5 c 128,-1,93
 388 773 388 773 376 786 c 1,94,95
 452 805 452 805 513 857 c 1,96,97
 511 861 511 861 509 869 c 1,98,99
 529 883 529 883 570 883 c 0,100,101
 582 883 582 883 587.5 883 c 128,-1,102
 593 883 593 883 598 882 c 1,80,81
EndSplineSet
EndChar

StartChar: Edieresis
Encoding: 203 203 30
Width: 609
Flags: W
LayerCount: 2
Fore
SplineSet
514 426 m 0,0,1
 547 426 547 426 565.5 408 c 128,-1,2
 584 390 584 390 584 358 c 0,3,4
 584 350 584 350 582.5 341.5 c 128,-1,5
 581 333 581 333 579 327 c 1,6,7
 566 329 566 329 550 330.5 c 128,-1,8
 534 332 534 332 512 332 c 0,9,10
 469 332 469 332 425 324.5 c 128,-1,11
 381 317 381 317 341 312 c 1,12,13
 318 259 318 259 299 209.5 c 128,-1,14
 280 160 280 160 266.5 119 c 128,-1,15
 253 78 253 78 245.5 48 c 128,-1,16
 238 18 238 18 237 3 c 1,17,18
 318 20 318 20 400.5 32 c 128,-1,19
 483 44 483 44 574 50 c 1,20,21
 585 33 585 33 592.5 13 c 128,-1,22
 600 -7 600 -7 600 -30 c 0,23,24
 600 -36 600 -36 600 -43 c 128,-1,25
 600 -50 600 -50 598 -57 c 1,26,27
 570 -56 570 -56 539 -55.5 c 128,-1,28
 508 -55 508 -55 458 -55 c 0,29,30
 425 -55 425 -55 395.5 -56.5 c 128,-1,31
 366 -58 366 -58 336 -61 c 128,-1,32
 306 -64 306 -64 272.5 -69 c 128,-1,33
 239 -74 239 -74 197 -81 c 1,34,35
 151 -63 151 -63 108 7 c 1,36,37
 125 43 125 43 155.5 116.5 c 128,-1,38
 186 190 186 190 233 313 c 1,39,40
 188 327 188 327 174 363 c 1,41,42
 179 368 179 368 203 375.5 c 128,-1,43
 227 383 227 383 262 391 c 1,44,45
 277 430 277 430 287.5 459 c 128,-1,46
 298 488 298 488 306 513.5 c 128,-1,47
 314 539 314 539 320.5 563.5 c 128,-1,48
 327 588 327 588 333 617 c 1,49,50
 298 619 298 619 278 636.5 c 128,-1,51
 258 654 258 654 258 682 c 0,52,53
 258 690 258 690 260.5 701 c 128,-1,54
 263 712 263 712 266 720 c 1,55,56
 286 717 286 717 304.5 716 c 128,-1,57
 323 715 323 715 353 715 c 0,58,59
 416 715 416 715 471 718.5 c 128,-1,60
 526 722 526 722 570.5 726 c 128,-1,61
 615 730 615 730 647 733.5 c 128,-1,62
 679 737 679 737 696 737 c 0,63,64
 719 737 719 737 737 713 c 128,-1,65
 755 689 755 689 764 645 c 1,66,67
 733 648 733 648 713.5 649 c 128,-1,68
 694 650 694 650 679 650 c 0,69,70
 624 650 624 650 578.5 644.5 c 128,-1,71
 533 639 533 639 491 633 c 1,72,73
 485 624 485 624 477.5 610 c 128,-1,74
 470 596 470 596 458 571 c 128,-1,75
 446 546 446 546 428.5 508 c 128,-1,76
 411 470 411 470 386 413 c 1,77,78
 424 419 424 419 457.5 422.5 c 128,-1,79
 491 426 491 426 514 426 c 0,0,1
446 788 m 1,80,81
 446 803 446 803 448 819.5 c 128,-1,82
 450 836 450 836 456 849.5 c 128,-1,83
 462 863 462 863 473.5 872.5 c 128,-1,84
 485 882 485 882 504 883 c 1,85,86
 517 881 517 881 539.5 868.5 c 128,-1,87
 562 856 562 856 572 839 c 1,88,89
 572 839 572 839 563.5 828 c 128,-1,90
 555 817 555 817 543.5 804 c 128,-1,91
 532 791 532 791 521.5 779 c 128,-1,92
 511 767 511 767 507 764 c 1,93,94
 482 769 482 769 466.5 774 c 128,-1,95
 451 779 451 779 446 788 c 1,80,81
577 788 m 1,96,97
 577 804 577 804 579 820.5 c 128,-1,98
 581 837 581 837 587 850.5 c 128,-1,99
 593 864 593 864 604 873 c 128,-1,100
 615 882 615 882 633 883 c 0,101,102
 639 883 639 883 648.5 879 c 128,-1,103
 658 875 658 875 668 869 c 128,-1,104
 678 863 678 863 687 855 c 128,-1,105
 696 847 696 847 702 839 c 0,106,107
 702 838 702 838 693.5 827 c 128,-1,108
 685 816 685 816 674 802.5 c 128,-1,109
 663 789 663 789 652 777 c 128,-1,110
 641 765 641 765 635 763 c 1,111,112
 612 766 612 766 597.5 773 c 128,-1,113
 583 780 583 780 577 788 c 1,96,97
EndSplineSet
EndChar

StartChar: Edotaccent
Encoding: 278 278 31
Width: 609
Flags: W
LayerCount: 2
Fore
SplineSet
514 426 m 0,0,1
 547 426 547 426 565.5 408 c 128,-1,2
 584 390 584 390 584 358 c 0,3,4
 584 350 584 350 582.5 341.5 c 128,-1,5
 581 333 581 333 579 327 c 1,6,7
 566 329 566 329 550 330.5 c 128,-1,8
 534 332 534 332 512 332 c 0,9,10
 469 332 469 332 425 324.5 c 128,-1,11
 381 317 381 317 341 312 c 1,12,13
 318 259 318 259 299 209.5 c 128,-1,14
 280 160 280 160 266.5 119 c 128,-1,15
 253 78 253 78 245.5 48 c 128,-1,16
 238 18 238 18 237 3 c 1,17,18
 318 20 318 20 400.5 32 c 128,-1,19
 483 44 483 44 574 50 c 1,20,21
 585 33 585 33 592.5 13 c 128,-1,22
 600 -7 600 -7 600 -30 c 0,23,24
 600 -36 600 -36 600 -43 c 128,-1,25
 600 -50 600 -50 598 -57 c 1,26,27
 570 -56 570 -56 539 -55.5 c 128,-1,28
 508 -55 508 -55 458 -55 c 0,29,30
 425 -55 425 -55 395.5 -56.5 c 128,-1,31
 366 -58 366 -58 336 -61 c 128,-1,32
 306 -64 306 -64 272.5 -69 c 128,-1,33
 239 -74 239 -74 197 -81 c 1,34,35
 151 -63 151 -63 108 7 c 1,36,37
 125 43 125 43 155.5 116.5 c 128,-1,38
 186 190 186 190 233 313 c 1,39,40
 188 327 188 327 174 363 c 1,41,42
 179 368 179 368 203 375.5 c 128,-1,43
 227 383 227 383 262 391 c 1,44,45
 277 430 277 430 287.5 459 c 128,-1,46
 298 488 298 488 306 513.5 c 128,-1,47
 314 539 314 539 320.5 563.5 c 128,-1,48
 327 588 327 588 333 617 c 1,49,50
 298 619 298 619 278 636.5 c 128,-1,51
 258 654 258 654 258 682 c 0,52,53
 258 690 258 690 260.5 701 c 128,-1,54
 263 712 263 712 266 720 c 1,55,56
 286 717 286 717 304.5 716 c 128,-1,57
 323 715 323 715 353 715 c 0,58,59
 416 715 416 715 471 718.5 c 128,-1,60
 526 722 526 722 570.5 726 c 128,-1,61
 615 730 615 730 647 733.5 c 128,-1,62
 679 737 679 737 696 737 c 0,63,64
 719 737 719 737 737 713 c 128,-1,65
 755 689 755 689 764 645 c 1,66,67
 733 648 733 648 713.5 649 c 128,-1,68
 694 650 694 650 679 650 c 0,69,70
 624 650 624 650 578.5 644.5 c 128,-1,71
 533 639 533 639 491 633 c 1,72,73
 485 624 485 624 477.5 610 c 128,-1,74
 470 596 470 596 458 571 c 128,-1,75
 446 546 446 546 428.5 508 c 128,-1,76
 411 470 411 470 386 413 c 1,77,78
 424 419 424 419 457.5 422.5 c 128,-1,79
 491 426 491 426 514 426 c 0,0,1
509 791 m 0,80,81
 509 797 509 797 512 809 c 1,82,83
 497 824 497 824 497 849 c 0,84,85
 497 865 497 865 502 883 c 1,86,87
 514 883 514 883 531 881 c 128,-1,88
 548 879 548 879 565 876 c 128,-1,89
 582 873 582 873 597 868.5 c 128,-1,90
 612 864 612 864 620 860 c 1,91,92
 612 855 612 855 600.5 842 c 128,-1,93
 589 829 589 829 577.5 814 c 128,-1,94
 566 799 566 799 556.5 785 c 128,-1,95
 547 771 547 771 544 764 c 1,96,97
 531 766 531 766 520 774.5 c 128,-1,98
 509 783 509 783 509 791 c 0,80,81
EndSplineSet
EndChar

StartChar: Egrave
Encoding: 200 200 32
Width: 609
Flags: W
LayerCount: 2
Fore
SplineSet
514 426 m 0,0,1
 547 426 547 426 565.5 408 c 128,-1,2
 584 390 584 390 584 358 c 0,3,4
 584 350 584 350 582.5 341.5 c 128,-1,5
 581 333 581 333 579 327 c 1,6,7
 566 329 566 329 550 330.5 c 128,-1,8
 534 332 534 332 512 332 c 0,9,10
 469 332 469 332 425 324.5 c 128,-1,11
 381 317 381 317 341 312 c 1,12,13
 318 259 318 259 299 209.5 c 128,-1,14
 280 160 280 160 266.5 119 c 128,-1,15
 253 78 253 78 245.5 48 c 128,-1,16
 238 18 238 18 237 3 c 1,17,18
 318 20 318 20 400.5 32 c 128,-1,19
 483 44 483 44 574 50 c 1,20,21
 585 33 585 33 592.5 13 c 128,-1,22
 600 -7 600 -7 600 -30 c 0,23,24
 600 -36 600 -36 600 -43 c 128,-1,25
 600 -50 600 -50 598 -57 c 1,26,27
 570 -56 570 -56 539 -55.5 c 128,-1,28
 508 -55 508 -55 458 -55 c 0,29,30
 425 -55 425 -55 395.5 -56.5 c 128,-1,31
 366 -58 366 -58 336 -61 c 128,-1,32
 306 -64 306 -64 272.5 -69 c 128,-1,33
 239 -74 239 -74 197 -81 c 1,34,35
 151 -63 151 -63 108 7 c 1,36,37
 125 43 125 43 155.5 116.5 c 128,-1,38
 186 190 186 190 233 313 c 1,39,40
 188 327 188 327 174 363 c 1,41,42
 179 368 179 368 203 375.5 c 128,-1,43
 227 383 227 383 262 391 c 1,44,45
 277 430 277 430 287.5 459 c 128,-1,46
 298 488 298 488 306 513.5 c 128,-1,47
 314 539 314 539 320.5 563.5 c 128,-1,48
 327 588 327 588 333 617 c 1,49,50
 298 619 298 619 278 636.5 c 128,-1,51
 258 654 258 654 258 682 c 0,52,53
 258 690 258 690 260.5 701 c 128,-1,54
 263 712 263 712 266 720 c 1,55,56
 286 717 286 717 304.5 716 c 128,-1,57
 323 715 323 715 353 715 c 0,58,59
 416 715 416 715 471 718.5 c 128,-1,60
 526 722 526 722 570.5 726 c 128,-1,61
 615 730 615 730 647 733.5 c 128,-1,62
 679 737 679 737 696 737 c 0,63,64
 719 737 719 737 737 713 c 128,-1,65
 755 689 755 689 764 645 c 1,66,67
 733 648 733 648 713.5 649 c 128,-1,68
 694 650 694 650 679 650 c 0,69,70
 624 650 624 650 578.5 644.5 c 128,-1,71
 533 639 533 639 491 633 c 1,72,73
 485 624 485 624 477.5 610 c 128,-1,74
 470 596 470 596 458 571 c 128,-1,75
 446 546 446 546 428.5 508 c 128,-1,76
 411 470 411 470 386 413 c 1,77,78
 424 419 424 419 457.5 422.5 c 128,-1,79
 491 426 491 426 514 426 c 0,0,1
454 883 m 1,80,81
 496 846 496 846 546 819.5 c 128,-1,82
 596 793 596 793 641 783 c 1,83,84
 618 764 618 764 586 764 c 0,85,86
 570 764 570 764 553 766.5 c 128,-1,87
 536 769 536 769 513.5 775.5 c 128,-1,88
 491 782 491 782 462.5 792.5 c 128,-1,89
 434 803 434 803 396 819 c 1,90,91
 396 828 396 828 401 838 c 128,-1,92
 406 848 406 848 414.5 857 c 128,-1,93
 423 866 423 866 433 873 c 128,-1,94
 443 880 443 880 454 883 c 1,80,81
EndSplineSet
EndChar

StartChar: Emacron
Encoding: 274 274 33
Width: 609
Flags: W
LayerCount: 2
Fore
SplineSet
514 426 m 0,0,1
 547 426 547 426 565.5 408 c 128,-1,2
 584 390 584 390 584 358 c 0,3,4
 584 350 584 350 582.5 341.5 c 128,-1,5
 581 333 581 333 579 327 c 1,6,7
 566 329 566 329 550 330.5 c 128,-1,8
 534 332 534 332 512 332 c 0,9,10
 469 332 469 332 425 324.5 c 128,-1,11
 381 317 381 317 341 312 c 1,12,13
 318 259 318 259 299 209.5 c 128,-1,14
 280 160 280 160 266.5 119 c 128,-1,15
 253 78 253 78 245.5 48 c 128,-1,16
 238 18 238 18 237 3 c 1,17,18
 318 20 318 20 400.5 32 c 128,-1,19
 483 44 483 44 574 50 c 1,20,21
 585 33 585 33 592.5 13 c 128,-1,22
 600 -7 600 -7 600 -30 c 0,23,24
 600 -36 600 -36 600 -43 c 128,-1,25
 600 -50 600 -50 598 -57 c 1,26,27
 570 -56 570 -56 539 -55.5 c 128,-1,28
 508 -55 508 -55 458 -55 c 0,29,30
 425 -55 425 -55 395.5 -56.5 c 128,-1,31
 366 -58 366 -58 336 -61 c 128,-1,32
 306 -64 306 -64 272.5 -69 c 128,-1,33
 239 -74 239 -74 197 -81 c 1,34,35
 151 -63 151 -63 108 7 c 1,36,37
 125 43 125 43 155.5 116.5 c 128,-1,38
 186 190 186 190 233 313 c 1,39,40
 188 327 188 327 174 363 c 1,41,42
 179 368 179 368 203 375.5 c 128,-1,43
 227 383 227 383 262 391 c 1,44,45
 277 430 277 430 287.5 459 c 128,-1,46
 298 488 298 488 306 513.5 c 128,-1,47
 314 539 314 539 320.5 563.5 c 128,-1,48
 327 588 327 588 333 617 c 1,49,50
 298 619 298 619 278 636.5 c 128,-1,51
 258 654 258 654 258 682 c 0,52,53
 258 690 258 690 260.5 701 c 128,-1,54
 263 712 263 712 266 720 c 1,55,56
 286 717 286 717 304.5 716 c 128,-1,57
 323 715 323 715 353 715 c 0,58,59
 416 715 416 715 471 718.5 c 128,-1,60
 526 722 526 722 570.5 726 c 128,-1,61
 615 730 615 730 647 733.5 c 128,-1,62
 679 737 679 737 696 737 c 0,63,64
 719 737 719 737 737 713 c 128,-1,65
 755 689 755 689 764 645 c 1,66,67
 733 648 733 648 713.5 649 c 128,-1,68
 694 650 694 650 679 650 c 0,69,70
 624 650 624 650 578.5 644.5 c 128,-1,71
 533 639 533 639 491 633 c 1,72,73
 485 624 485 624 477.5 610 c 128,-1,74
 470 596 470 596 458 571 c 128,-1,75
 446 546 446 546 428.5 508 c 128,-1,76
 411 470 411 470 386 413 c 1,77,78
 424 419 424 419 457.5 422.5 c 128,-1,79
 491 426 491 426 514 426 c 0,0,1
385 866 m 1,80,81
 430 863 430 863 476 863 c 0,82,83
 582 863 582 863 671 883 c 1,84,85
 678 872 678 872 683.5 848.5 c 128,-1,86
 689 825 689 825 689 806 c 1,87,88
 652 799 652 799 613 798 c 128,-1,89
 574 797 574 797 535 797 c 0,90,91
 442 797 442 797 383 810 c 1,92,93
 384 818 384 818 384.5 830.5 c 128,-1,94
 385 843 385 843 385 866 c 1,80,81
EndSplineSet
EndChar

StartChar: Eng
Encoding: 330 330 34
Width: 685
Flags: W
LayerCount: 2
Fore
SplineSet
190 -76 m 1,0,1
 161 -67 161 -67 142.5 -59.5 c 128,-1,2
 124 -52 124 -52 113 -43.5 c 128,-1,3
 102 -35 102 -35 97.5 -24 c 128,-1,4
 93 -13 93 -13 93 2 c 0,5,6
 93 31 93 31 107 85 c 128,-1,7
 121 139 121 139 143.5 205.5 c 128,-1,8
 166 272 166 272 195 345 c 128,-1,9
 224 418 224 418 254 485 c 128,-1,10
 284 552 284 552 312.5 607.5 c 128,-1,11
 341 663 341 663 363 694 c 1,12,-1
 356 736 l 1,13,14
 370 736 370 736 395 729 c 128,-1,15
 420 722 420 722 445.5 712 c 128,-1,16
 471 702 471 702 490.5 691.5 c 128,-1,17
 510 681 510 681 512 674 c 1,18,19
 507 650 507 650 504 602.5 c 128,-1,20
 501 555 501 555 501 484 c 0,21,22
 501 349 501 349 510.5 276 c 128,-1,23
 520 203 520 203 523 186 c 256,24,25
 526 169 526 169 528.5 157 c 128,-1,26
 531 145 531 145 533.5 133 c 128,-1,27
 536 121 536 121 539.5 107 c 128,-1,28
 543 93 543 93 549 72 c 1,29,30
 565 152 565 152 583.5 231.5 c 128,-1,31
 602 311 602 311 622 383.5 c 128,-1,32
 642 456 642 456 662 518 c 128,-1,33
 682 580 682 580 700.5 626.5 c 128,-1,34
 719 673 719 673 735 699.5 c 128,-1,35
 751 726 751 726 764 728 c 1,36,37
 775 726 775 726 788 719.5 c 128,-1,38
 801 713 801 713 813 704 c 128,-1,39
 825 695 825 695 835 684 c 128,-1,40
 845 673 845 673 851 662 c 1,41,42
 819 649 819 649 789 601.5 c 128,-1,43
 759 554 759 554 732 486.5 c 128,-1,44
 705 419 705 419 681.5 339.5 c 128,-1,45
 658 260 658 260 639 183.5 c 128,-1,46
 620 107 620 107 606 40.5 c 128,-1,47
 592 -26 592 -26 584 -66 c 0,48,49
 573 -121 573 -121 552.5 -174 c 128,-1,50
 532 -227 532 -227 504.5 -269 c 128,-1,51
 477 -311 477 -311 443 -336.5 c 128,-1,52
 409 -362 409 -362 371 -362 c 0,53,54
 359 -362 359 -362 340 -359 c 128,-1,55
 321 -356 321 -356 301.5 -349 c 128,-1,56
 282 -342 282 -342 263.5 -331 c 128,-1,57
 245 -320 245 -320 234 -304 c 1,58,59
 235 -298 235 -298 239.5 -292.5 c 128,-1,60
 244 -287 244 -287 252 -285 c 1,61,62
 260 -292 260 -292 272 -298.5 c 128,-1,63
 284 -305 284 -305 297 -310 c 128,-1,64
 310 -315 310 -315 321.5 -318 c 128,-1,65
 333 -321 333 -321 341 -321 c 1,66,67
 366 -313 366 -313 387.5 -290 c 128,-1,68
 409 -267 409 -267 424.5 -235 c 128,-1,69
 440 -203 440 -203 448.5 -165 c 128,-1,70
 457 -127 457 -127 457 -89 c 0,71,72
 457 -73 457 -73 455.5 -60 c 128,-1,73
 454 -47 454 -47 451 -31 c 0,74,75
 438 41 438 41 427.5 96 c 128,-1,76
 417 151 417 151 409.5 198 c 128,-1,77
 402 245 402 245 396 288.5 c 128,-1,78
 390 332 390 332 385.5 379 c 128,-1,79
 381 426 381 426 377 482 c 128,-1,80
 373 538 373 538 369 611 c 1,81,82
 350 582 350 582 329.5 534.5 c 128,-1,83
 309 487 309 487 289 429 c 128,-1,84
 269 371 269 371 250.5 307.5 c 128,-1,85
 232 244 232 244 218 182 c 128,-1,86
 204 120 204 120 195.5 63 c 128,-1,87
 187 6 187 6 187 -37 c 0,88,89
 187 -50 187 -50 187.5 -60.5 c 128,-1,90
 188 -71 188 -71 190 -76 c 1,0,1
EndSplineSet
EndChar

StartChar: Eogonek
Encoding: 280 280 35
Width: 609
Flags: W
LayerCount: 2
Fore
SplineSet
273 -193 m 0,0,1
 273 -155 273 -155 296 -118.5 c 128,-1,2
 319 -82 319 -82 354 -59 c 1,3,4
 320 -62 320 -62 283 -67 c 128,-1,5
 246 -72 246 -72 197 -81 c 1,6,7
 151 -63 151 -63 108 7 c 1,8,9
 125 43 125 43 155.5 116.5 c 128,-1,10
 186 190 186 190 233 313 c 1,11,12
 188 327 188 327 174 363 c 1,13,14
 179 368 179 368 203 375.5 c 128,-1,15
 227 383 227 383 262 391 c 1,16,17
 277 430 277 430 287.5 459 c 128,-1,18
 298 488 298 488 306 513.5 c 128,-1,19
 314 539 314 539 320.5 563.5 c 128,-1,20
 327 588 327 588 333 617 c 1,21,22
 298 619 298 619 278 636.5 c 128,-1,23
 258 654 258 654 258 682 c 0,24,25
 258 690 258 690 260.5 701 c 128,-1,26
 263 712 263 712 266 720 c 1,27,28
 286 717 286 717 304.5 716 c 128,-1,29
 323 715 323 715 353 715 c 0,30,31
 416 715 416 715 471 718.5 c 128,-1,32
 526 722 526 722 570.5 726 c 128,-1,33
 615 730 615 730 647 733.5 c 128,-1,34
 679 737 679 737 696 737 c 0,35,36
 719 737 719 737 737 713 c 128,-1,37
 755 689 755 689 764 645 c 1,38,39
 733 648 733 648 713.5 649 c 128,-1,40
 694 650 694 650 679 650 c 0,41,42
 624 650 624 650 578.5 644.5 c 128,-1,43
 533 639 533 639 491 633 c 1,44,45
 485 624 485 624 477.5 610 c 128,-1,46
 470 596 470 596 458 571 c 128,-1,47
 446 546 446 546 428.5 508 c 128,-1,48
 411 470 411 470 386 413 c 1,49,50
 424 419 424 419 457.5 422.5 c 128,-1,51
 491 426 491 426 514 426 c 0,52,53
 547 426 547 426 565.5 408 c 128,-1,54
 584 390 584 390 584 358 c 0,55,56
 584 350 584 350 582.5 341.5 c 128,-1,57
 581 333 581 333 579 327 c 1,58,59
 566 329 566 329 550 330.5 c 128,-1,60
 534 332 534 332 512 332 c 0,61,62
 469 332 469 332 425 324.5 c 128,-1,63
 381 317 381 317 341 312 c 1,64,65
 318 259 318 259 299 209.5 c 128,-1,66
 280 160 280 160 266.5 119 c 128,-1,67
 253 78 253 78 245.5 48 c 128,-1,68
 238 18 238 18 237 3 c 1,69,70
 318 20 318 20 400.5 32 c 128,-1,71
 483 44 483 44 574 50 c 1,72,73
 585 33 585 33 592.5 13 c 128,-1,74
 600 -7 600 -7 600 -30 c 0,75,76
 600 -36 600 -36 600 -43 c 128,-1,77
 600 -50 600 -50 598 -57 c 1,78,79
 570 -56 570 -56 539 -55.5 c 128,-1,80
 508 -55 508 -55 458 -55 c 1,81,82
 436 -58 436 -58 414.5 -70.5 c 128,-1,83
 393 -83 393 -83 376.5 -103 c 128,-1,84
 360 -123 360 -123 349.5 -149 c 128,-1,85
 339 -175 339 -175 339 -205 c 0,86,87
 339 -231 339 -231 350 -241.5 c 128,-1,88
 361 -252 361 -252 378 -252 c 0,89,90
 391 -252 391 -252 406 -247 c 128,-1,91
 421 -242 421 -242 435.5 -235 c 128,-1,92
 450 -228 450 -228 463 -220 c 128,-1,93
 476 -212 476 -212 485 -206 c 1,94,-1
 491 -218 l 1,95,96
 481 -230 481 -230 466 -242.5 c 128,-1,97
 451 -255 451 -255 434.5 -265 c 128,-1,98
 418 -275 418 -275 403 -282 c 128,-1,99
 388 -289 388 -289 378 -290 c 1,100,101
 358 -289 358 -289 339 -281.5 c 128,-1,102
 320 -274 320 -274 305.5 -261.5 c 128,-1,103
 291 -249 291 -249 282 -232 c 128,-1,104
 273 -215 273 -215 273 -193 c 0,0,1
EndSplineSet
EndChar

StartChar: Eth
Encoding: 208 208 36
Width: 778
Flags: W
LayerCount: 2
Fore
SplineSet
168 52 m 1,0,1
 185 90 185 90 209 149.5 c 128,-1,2
 233 209 233 209 259 278 c 1,3,4
 233 280 233 280 210 282.5 c 128,-1,5
 187 285 187 285 167 289 c 1,6,7
 169 299 169 299 169.5 313 c 128,-1,8
 170 327 170 327 170 355 c 1,9,10
 197 353 197 353 225 352.5 c 128,-1,11
 253 352 253 352 287 352 c 1,12,13
 306 401 306 401 323.5 449.5 c 128,-1,14
 341 498 341 498 356 539.5 c 128,-1,15
 371 581 371 581 382 613.5 c 128,-1,16
 393 646 393 646 399 665 c 1,17,18
 336 639 336 639 291 586 c 128,-1,19
 246 533 246 533 223 453 c 1,20,21
 200 461 200 461 181 481.5 c 128,-1,22
 162 502 162 502 156 533 c 1,23,24
 166 579 166 579 193.5 617 c 128,-1,25
 221 655 221 655 263 682 c 128,-1,26
 305 709 305 709 360 723.5 c 128,-1,27
 415 738 415 738 478 738 c 0,28,29
 558 738 558 738 625 714.5 c 128,-1,30
 692 691 692 691 740 649 c 128,-1,31
 788 607 788 607 815 548 c 128,-1,32
 842 489 842 489 842 417 c 0,33,34
 842 319 842 319 806 230 c 128,-1,35
 770 141 770 141 708.5 73 c 128,-1,36
 647 5 647 5 566 -35.5 c 128,-1,37
 485 -76 485 -76 396 -76 c 0,38,39
 314 -76 314 -76 255.5 -43.5 c 128,-1,40
 197 -11 197 -11 168 52 c 1,0,1
521 688 m 0,41,42
 471 688 471 688 426 674 c 1,43,44
 470 658 470 658 499 640.5 c 128,-1,45
 528 623 528 623 539 613 c 1,46,47
 532 603 532 603 518.5 578.5 c 128,-1,48
 505 554 505 554 487 520 c 128,-1,49
 469 486 469 486 448.5 444 c 128,-1,50
 428 402 428 402 407 357 c 1,51,52
 461 363 461 363 513 372 c 1,53,54
 521 359 521 359 528 332.5 c 128,-1,55
 535 306 535 306 535 285 c 1,56,57
 455 276 455 276 371 276 c 1,58,59
 324 170 324 170 303.5 108 c 128,-1,60
 283 46 283 46 283 20 c 1,61,62
 297 15 297 15 317 13 c 128,-1,63
 337 11 337 11 360 11 c 0,64,65
 441 11 441 11 513.5 48.5 c 128,-1,66
 586 86 586 86 640.5 149 c 128,-1,67
 695 212 695 212 726.5 295.5 c 128,-1,68
 758 379 758 379 758 471 c 0,69,70
 758 574 758 574 694 631 c 128,-1,71
 630 688 630 688 521 688 c 0,41,42
EndSplineSet
EndChar

StartChar: Etilde
Encoding: 7868 7868 37
Width: 609
Flags: W
LayerCount: 2
Fore
SplineSet
514 426 m 0,0,1
 547 426 547 426 565.5 408 c 128,-1,2
 584 390 584 390 584 358 c 0,3,4
 584 350 584 350 582.5 341.5 c 128,-1,5
 581 333 581 333 579 327 c 1,6,7
 566 329 566 329 550 330.5 c 128,-1,8
 534 332 534 332 512 332 c 0,9,10
 469 332 469 332 425 324.5 c 128,-1,11
 381 317 381 317 341 312 c 1,12,13
 318 259 318 259 299 209.5 c 128,-1,14
 280 160 280 160 266.5 119 c 128,-1,15
 253 78 253 78 245.5 48 c 128,-1,16
 238 18 238 18 237 3 c 1,17,18
 318 20 318 20 400.5 32 c 128,-1,19
 483 44 483 44 574 50 c 1,20,21
 585 33 585 33 592.5 13 c 128,-1,22
 600 -7 600 -7 600 -30 c 0,23,24
 600 -36 600 -36 600 -43 c 128,-1,25
 600 -50 600 -50 598 -57 c 1,26,27
 570 -56 570 -56 539 -55.5 c 128,-1,28
 508 -55 508 -55 458 -55 c 0,29,30
 425 -55 425 -55 395.5 -56.5 c 128,-1,31
 366 -58 366 -58 336 -61 c 128,-1,32
 306 -64 306 -64 272.5 -69 c 128,-1,33
 239 -74 239 -74 197 -81 c 1,34,35
 151 -63 151 -63 108 7 c 1,36,37
 125 43 125 43 155.5 116.5 c 128,-1,38
 186 190 186 190 233 313 c 1,39,40
 188 327 188 327 174 363 c 1,41,42
 179 368 179 368 203 375.5 c 128,-1,43
 227 383 227 383 262 391 c 1,44,45
 277 430 277 430 287.5 459 c 128,-1,46
 298 488 298 488 306 513.5 c 128,-1,47
 314 539 314 539 320.5 563.5 c 128,-1,48
 327 588 327 588 333 617 c 1,49,50
 298 619 298 619 278 636.5 c 128,-1,51
 258 654 258 654 258 682 c 0,52,53
 258 690 258 690 260.5 701 c 128,-1,54
 263 712 263 712 266 720 c 1,55,56
 286 717 286 717 304.5 716 c 128,-1,57
 323 715 323 715 353 715 c 0,58,59
 416 715 416 715 471 718.5 c 128,-1,60
 526 722 526 722 570.5 726 c 128,-1,61
 615 730 615 730 647 733.5 c 128,-1,62
 679 737 679 737 696 737 c 0,63,64
 719 737 719 737 737 713 c 128,-1,65
 755 689 755 689 764 645 c 1,66,67
 733 648 733 648 713.5 649 c 128,-1,68
 694 650 694 650 679 650 c 0,69,70
 624 650 624 650 578.5 644.5 c 128,-1,71
 533 639 533 639 491 633 c 1,72,73
 485 624 485 624 477.5 610 c 128,-1,74
 470 596 470 596 458 571 c 128,-1,75
 446 546 446 546 428.5 508 c 128,-1,76
 411 470 411 470 386 413 c 1,77,78
 424 419 424 419 457.5 422.5 c 128,-1,79
 491 426 491 426 514 426 c 0,0,1
363 853 m 1,80,81
 410 837 410 837 455 837 c 0,82,83
 493 837 493 837 534 848 c 128,-1,84
 575 859 575 859 626 883 c 1,85,86
 638 871 638 871 647 846 c 128,-1,87
 656 821 656 821 660 803 c 1,88,89
 615 782 615 782 577 776.5 c 128,-1,90
 539 771 539 771 506 771 c 0,91,92
 444 771 444 771 407 794.5 c 128,-1,93
 370 818 370 818 363 853 c 1,80,81
EndSplineSet
EndChar

StartChar: F
Encoding: 70 70 38
Width: 551
Flags: W
LayerCount: 2
Fore
SplineSet
520 417 m 0,0,1
 552 417 552 417 570.5 399 c 128,-1,2
 589 381 589 381 589 349 c 0,3,4
 589 341 589 341 588 332.5 c 128,-1,5
 587 324 587 324 584 318 c 1,6,7
 571 320 571 320 555 321.5 c 128,-1,8
 539 323 539 323 517 323 c 0,9,10
 472 323 472 323 427 315 c 128,-1,11
 382 307 382 307 341 302 c 1,12,13
 296 196 296 196 267 103 c 128,-1,14
 238 10 238 10 222 -81 c 1,15,16
 188 -73 188 -73 162 -52 c 128,-1,17
 136 -31 136 -31 113 7 c 1,18,19
 120 23 120 23 130 45.5 c 128,-1,20
 140 68 140 68 154 102.5 c 128,-1,21
 168 137 168 137 187.5 186.5 c 128,-1,22
 207 236 207 236 234 305 c 1,23,24
 192 319 192 319 179 354 c 1,25,26
 184 359 184 359 207 365.5 c 128,-1,27
 230 372 230 372 263 380 c 1,28,29
 278 419 278 419 289 449.5 c 128,-1,30
 300 480 300 480 309 507.5 c 128,-1,31
 318 535 318 535 325.5 561.5 c 128,-1,32
 333 588 333 588 339 618 c 1,33,-1
 334 618 l 2,34,35
 296 618 296 618 272.5 636 c 128,-1,36
 249 654 249 654 249 683 c 0,37,38
 249 691 249 691 251.5 702 c 128,-1,39
 254 713 254 713 258 721 c 1,40,41
 277 718 277 718 295.5 717 c 128,-1,42
 314 716 314 716 344 716 c 0,43,44
 407 716 407 716 462 719.5 c 128,-1,45
 517 723 517 723 561.5 727 c 128,-1,46
 606 731 606 731 638 734.5 c 128,-1,47
 670 738 670 738 687 738 c 0,48,49
 710 738 710 738 728 714 c 128,-1,50
 746 690 746 690 756 646 c 1,51,52
 724 649 724 649 704.5 650 c 128,-1,53
 685 651 685 651 670 651 c 0,54,55
 619 651 619 651 576.5 646.5 c 128,-1,56
 534 642 534 642 496 636 c 1,57,58
 490 627 490 627 482.5 613 c 128,-1,59
 475 599 475 599 463 573.5 c 128,-1,60
 451 548 451 548 432.5 507 c 128,-1,61
 414 466 414 466 386 403 c 1,62,63
 425 409 425 409 460.5 413 c 128,-1,64
 496 417 496 417 520 417 c 0,0,1
EndSplineSet
EndChar

StartChar: G
Encoding: 71 71 39
Width: 650
Flags: W
LayerCount: 2
Fore
SplineSet
655 318 m 0,0,1
 681 318 681 318 696 300 c 128,-1,2
 711 282 711 282 711 250 c 0,3,4
 711 242 711 242 710 233.5 c 128,-1,5
 709 225 709 225 707 219 c 1,6,7
 686 224 686 224 661 225 c 1,8,9
 655 181 655 181 629 132.5 c 128,-1,10
 603 84 603 84 566 41.5 c 128,-1,11
 529 -1 529 -1 485 -33 c 128,-1,12
 441 -65 441 -65 398 -76 c 1,13,14
 264 -73 264 -73 202.5 -6.5 c 128,-1,15
 141 60 141 60 141 201 c 0,16,17
 141 304 141 304 179 400.5 c 128,-1,18
 217 497 217 497 280 572 c 128,-1,19
 343 647 343 647 424.5 692.5 c 128,-1,20
 506 738 506 738 594 738 c 0,21,22
 663 738 663 738 701.5 709 c 128,-1,23
 740 680 740 680 740 627 c 0,24,25
 740 592 740 592 723.5 562 c 128,-1,26
 707 532 707 532 669 497 c 1,27,28
 646 504 646 504 629 521.5 c 128,-1,29
 612 539 612 539 608 562 c 1,30,31
 642 587 642 587 656 608 c 128,-1,32
 670 629 670 629 670 658 c 0,33,34
 670 704 670 704 615 704 c 0,35,36
 570 704 570 704 518.5 670.5 c 128,-1,37
 467 637 467 637 415 574 c 0,38,39
 341 485 341 485 307 390.5 c 128,-1,40
 273 296 273 296 273 178 c 0,41,42
 273 134 273 134 282 98 c 128,-1,43
 291 62 291 62 306 35 c 128,-1,44
 321 8 321 8 341.5 -8 c 128,-1,45
 362 -24 362 -24 386 -26 c 1,46,47
 418 -19 418 -19 450 6.5 c 128,-1,48
 482 32 482 32 508.5 66.5 c 128,-1,49
 535 101 535 101 553.5 140.5 c 128,-1,50
 572 180 572 180 576 216 c 1,51,52
 548 210 548 210 522.5 204.5 c 128,-1,53
 497 199 497 199 474 199 c 0,54,55
 444 199 444 199 421.5 214 c 128,-1,56
 399 229 399 229 391 255 c 1,57,58
 409 265 409 265 443.5 276 c 128,-1,59
 478 287 478 287 517 296.5 c 128,-1,60
 556 306 556 306 593.5 312 c 128,-1,61
 631 318 631 318 655 318 c 0,0,1
EndSplineSet
EndChar

StartChar: Gbreve
Encoding: 286 286 40
Width: 650
Flags: W
LayerCount: 2
Fore
SplineSet
655 318 m 0,0,1
 681 318 681 318 696 300 c 128,-1,2
 711 282 711 282 711 250 c 0,3,4
 711 242 711 242 710 233.5 c 128,-1,5
 709 225 709 225 707 219 c 1,6,7
 686 224 686 224 661 225 c 1,8,9
 655 181 655 181 629 132.5 c 128,-1,10
 603 84 603 84 566 41.5 c 128,-1,11
 529 -1 529 -1 485 -33 c 128,-1,12
 441 -65 441 -65 398 -76 c 1,13,14
 264 -73 264 -73 202.5 -6.5 c 128,-1,15
 141 60 141 60 141 201 c 0,16,17
 141 304 141 304 179 400.5 c 128,-1,18
 217 497 217 497 280 572 c 128,-1,19
 343 647 343 647 424.5 692.5 c 128,-1,20
 506 738 506 738 594 738 c 0,21,22
 663 738 663 738 701.5 709 c 128,-1,23
 740 680 740 680 740 627 c 0,24,25
 740 592 740 592 723.5 562 c 128,-1,26
 707 532 707 532 669 497 c 1,27,28
 646 504 646 504 629 521.5 c 128,-1,29
 612 539 612 539 608 562 c 1,30,31
 642 587 642 587 656 608 c 128,-1,32
 670 629 670 629 670 658 c 0,33,34
 670 704 670 704 615 704 c 0,35,36
 570 704 570 704 518.5 670.5 c 128,-1,37
 467 637 467 637 415 574 c 0,38,39
 341 485 341 485 307 390.5 c 128,-1,40
 273 296 273 296 273 178 c 0,41,42
 273 134 273 134 282 98 c 128,-1,43
 291 62 291 62 306 35 c 128,-1,44
 321 8 321 8 341.5 -8 c 128,-1,45
 362 -24 362 -24 386 -26 c 1,46,47
 418 -19 418 -19 450 6.5 c 128,-1,48
 482 32 482 32 508.5 66.5 c 128,-1,49
 535 101 535 101 553.5 140.5 c 128,-1,50
 572 180 572 180 576 216 c 1,51,52
 548 210 548 210 522.5 204.5 c 128,-1,53
 497 199 497 199 474 199 c 0,54,55
 444 199 444 199 421.5 214 c 128,-1,56
 399 229 399 229 391 255 c 1,57,58
 409 265 409 265 443.5 276 c 128,-1,59
 478 287 478 287 517 296.5 c 128,-1,60
 556 306 556 306 593.5 312 c 128,-1,61
 631 318 631 318 655 318 c 0,0,1
678 764 m 1,62,63
 658 765 658 765 636 770.5 c 128,-1,64
 614 776 614 776 594.5 786.5 c 128,-1,65
 575 797 575 797 559.5 813 c 128,-1,66
 544 829 544 829 537 852 c 1,67,68
 550 866 550 866 564 873 c 128,-1,69
 578 880 578 880 606 883 c 1,70,71
 620 849 620 849 646.5 835 c 128,-1,72
 673 821 673 821 704 819 c 1,73,74
 742 825 742 825 766.5 840.5 c 128,-1,75
 791 856 791 856 808 880 c 1,76,77
 818 877 818 877 824 861 c 1,78,79
 814 827 814 827 775 801 c 128,-1,80
 736 775 736 775 678 764 c 1,62,63
EndSplineSet
EndChar

StartChar: Gcircumflex
Encoding: 284 284 41
Width: 650
Flags: W
LayerCount: 2
Fore
SplineSet
655 318 m 0,0,1
 681 318 681 318 696 300 c 128,-1,2
 711 282 711 282 711 250 c 0,3,4
 711 242 711 242 710 233.5 c 128,-1,5
 709 225 709 225 707 219 c 1,6,7
 686 224 686 224 661 225 c 1,8,9
 655 181 655 181 629 132.5 c 128,-1,10
 603 84 603 84 566 41.5 c 128,-1,11
 529 -1 529 -1 485 -33 c 128,-1,12
 441 -65 441 -65 398 -76 c 1,13,14
 264 -73 264 -73 202.5 -6.5 c 128,-1,15
 141 60 141 60 141 201 c 0,16,17
 141 304 141 304 179 400.5 c 128,-1,18
 217 497 217 497 280 572 c 128,-1,19
 343 647 343 647 424.5 692.5 c 128,-1,20
 506 738 506 738 594 738 c 0,21,22
 663 738 663 738 701.5 709 c 128,-1,23
 740 680 740 680 740 627 c 0,24,25
 740 592 740 592 723.5 562 c 128,-1,26
 707 532 707 532 669 497 c 1,27,28
 646 504 646 504 629 521.5 c 128,-1,29
 612 539 612 539 608 562 c 1,30,31
 642 587 642 587 656 608 c 128,-1,32
 670 629 670 629 670 658 c 0,33,34
 670 704 670 704 615 704 c 0,35,36
 570 704 570 704 518.5 670.5 c 128,-1,37
 467 637 467 637 415 574 c 0,38,39
 341 485 341 485 307 390.5 c 128,-1,40
 273 296 273 296 273 178 c 0,41,42
 273 134 273 134 282 98 c 128,-1,43
 291 62 291 62 306 35 c 128,-1,44
 321 8 321 8 341.5 -8 c 128,-1,45
 362 -24 362 -24 386 -26 c 1,46,47
 418 -19 418 -19 450 6.5 c 128,-1,48
 482 32 482 32 508.5 66.5 c 128,-1,49
 535 101 535 101 553.5 140.5 c 128,-1,50
 572 180 572 180 576 216 c 1,51,52
 548 210 548 210 522.5 204.5 c 128,-1,53
 497 199 497 199 474 199 c 0,54,55
 444 199 444 199 421.5 214 c 128,-1,56
 399 229 399 229 391 255 c 1,57,58
 409 265 409 265 443.5 276 c 128,-1,59
 478 287 478 287 517 296.5 c 128,-1,60
 556 306 556 306 593.5 312 c 128,-1,61
 631 318 631 318 655 318 c 0,0,1
717 882 m 1,62,63
 724 826 724 826 735 797 c 128,-1,64
 746 768 746 768 769 754 c 1,65,66
 767 753 767 753 760 753 c 0,67,68
 735 753 735 753 708.5 768.5 c 128,-1,69
 682 784 682 784 661 809 c 1,70,71
 634 789 634 789 603 776.5 c 128,-1,72
 572 764 572 764 549 764 c 0,73,74
 534 764 534 764 520.5 768.5 c 128,-1,75
 507 773 507 773 495 786 c 1,76,77
 571 805 571 805 632 857 c 1,78,79
 630 861 630 861 628 869 c 1,80,81
 648 883 648 883 689 883 c 0,82,83
 701 883 701 883 706.5 883 c 128,-1,84
 712 883 712 883 717 882 c 1,62,63
EndSplineSet
EndChar

StartChar: Gcommaaccent
Encoding: 290 290 42
Width: 649
Flags: W
LayerCount: 2
Fore
SplineSet
655 318 m 0,0,1
 681 318 681 318 696 300 c 128,-1,2
 711 282 711 282 711 250 c 0,3,4
 711 242 711 242 710 233.5 c 128,-1,5
 709 225 709 225 707 219 c 1,6,7
 686 224 686 224 661 225 c 1,8,9
 655 181 655 181 629 132.5 c 128,-1,10
 603 84 603 84 566 41.5 c 128,-1,11
 529 -1 529 -1 485 -33 c 128,-1,12
 441 -65 441 -65 398 -76 c 1,13,14
 264 -73 264 -73 202.5 -6.5 c 128,-1,15
 141 60 141 60 141 201 c 0,16,17
 141 304 141 304 179 400.5 c 128,-1,18
 217 497 217 497 280 572 c 128,-1,19
 343 647 343 647 424.5 692.5 c 128,-1,20
 506 738 506 738 594 738 c 0,21,22
 663 738 663 738 701.5 709 c 128,-1,23
 740 680 740 680 740 627 c 0,24,25
 740 592 740 592 723.5 562 c 128,-1,26
 707 532 707 532 669 497 c 1,27,28
 646 504 646 504 629 521.5 c 128,-1,29
 612 539 612 539 608 562 c 1,30,31
 642 587 642 587 656 608 c 128,-1,32
 670 629 670 629 670 658 c 0,33,34
 670 704 670 704 615 704 c 0,35,36
 570 704 570 704 518.5 670.5 c 128,-1,37
 467 637 467 637 415 574 c 0,38,39
 341 485 341 485 307 390.5 c 128,-1,40
 273 296 273 296 273 178 c 0,41,42
 273 134 273 134 282 98 c 128,-1,43
 291 62 291 62 306 35 c 128,-1,44
 321 8 321 8 341.5 -8 c 128,-1,45
 362 -24 362 -24 386 -26 c 1,46,47
 418 -19 418 -19 450 6.5 c 128,-1,48
 482 32 482 32 508.5 66.5 c 128,-1,49
 535 101 535 101 553.5 140.5 c 128,-1,50
 572 180 572 180 576 216 c 1,51,52
 548 210 548 210 522.5 204.5 c 128,-1,53
 497 199 497 199 474 199 c 0,54,55
 444 199 444 199 421.5 214 c 128,-1,56
 399 229 399 229 391 255 c 1,57,58
 409 265 409 265 443.5 276 c 128,-1,59
 478 287 478 287 517 296.5 c 128,-1,60
 556 306 556 306 593.5 312 c 128,-1,61
 631 318 631 318 655 318 c 0,0,1
239 -350 m 1,62,63
 233 -345 233 -345 228 -333.5 c 128,-1,64
 223 -322 223 -322 223 -312 c 1,65,66
 253 -277 253 -277 269.5 -242 c 128,-1,67
 286 -207 286 -207 286 -163 c 0,68,69
 286 -128 286 -128 274 -84 c 1,70,71
 299 -86 299 -86 323.5 -92.5 c 128,-1,72
 348 -99 348 -99 367.5 -108.5 c 128,-1,73
 387 -118 387 -118 400 -130.5 c 128,-1,74
 413 -143 413 -143 416 -155 c 1,75,76
 410 -178 410 -178 393.5 -205.5 c 128,-1,77
 377 -233 377 -233 354 -260 c 128,-1,78
 331 -287 331 -287 301.5 -311 c 128,-1,79
 272 -335 272 -335 239 -350 c 1,62,63
EndSplineSet
EndChar

StartChar: Gdotaccent
Encoding: 288 288 43
Width: 650
Flags: W
LayerCount: 2
Fore
SplineSet
655 318 m 0,0,1
 681 318 681 318 696 300 c 128,-1,2
 711 282 711 282 711 250 c 0,3,4
 711 242 711 242 710 233.5 c 128,-1,5
 709 225 709 225 707 219 c 1,6,7
 686 224 686 224 661 225 c 1,8,9
 655 181 655 181 629 132.5 c 128,-1,10
 603 84 603 84 566 41.5 c 128,-1,11
 529 -1 529 -1 485 -33 c 128,-1,12
 441 -65 441 -65 398 -76 c 1,13,14
 264 -73 264 -73 202.5 -6.5 c 128,-1,15
 141 60 141 60 141 201 c 0,16,17
 141 304 141 304 179 400.5 c 128,-1,18
 217 497 217 497 280 572 c 128,-1,19
 343 647 343 647 424.5 692.5 c 128,-1,20
 506 738 506 738 594 738 c 0,21,22
 663 738 663 738 701.5 709 c 128,-1,23
 740 680 740 680 740 627 c 0,24,25
 740 592 740 592 723.5 562 c 128,-1,26
 707 532 707 532 669 497 c 1,27,28
 646 504 646 504 629 521.5 c 128,-1,29
 612 539 612 539 608 562 c 1,30,31
 642 587 642 587 656 608 c 128,-1,32
 670 629 670 629 670 658 c 0,33,34
 670 704 670 704 615 704 c 0,35,36
 570 704 570 704 518.5 670.5 c 128,-1,37
 467 637 467 637 415 574 c 0,38,39
 341 485 341 485 307 390.5 c 128,-1,40
 273 296 273 296 273 178 c 0,41,42
 273 134 273 134 282 98 c 128,-1,43
 291 62 291 62 306 35 c 128,-1,44
 321 8 321 8 341.5 -8 c 128,-1,45
 362 -24 362 -24 386 -26 c 1,46,47
 418 -19 418 -19 450 6.5 c 128,-1,48
 482 32 482 32 508.5 66.5 c 128,-1,49
 535 101 535 101 553.5 140.5 c 128,-1,50
 572 180 572 180 576 216 c 1,51,52
 548 210 548 210 522.5 204.5 c 128,-1,53
 497 199 497 199 474 199 c 0,54,55
 444 199 444 199 421.5 214 c 128,-1,56
 399 229 399 229 391 255 c 1,57,58
 409 265 409 265 443.5 276 c 128,-1,59
 478 287 478 287 517 296.5 c 128,-1,60
 556 306 556 306 593.5 312 c 128,-1,61
 631 318 631 318 655 318 c 0,0,1
628 791 m 0,62,63
 628 797 628 797 631 809 c 1,64,65
 616 824 616 824 616 849 c 0,66,67
 616 865 616 865 621 883 c 1,68,69
 633 883 633 883 650 881 c 128,-1,70
 667 879 667 879 684 876 c 128,-1,71
 701 873 701 873 716 868.5 c 128,-1,72
 731 864 731 864 739 860 c 1,73,74
 731 855 731 855 719.5 842 c 128,-1,75
 708 829 708 829 696.5 814 c 128,-1,76
 685 799 685 799 675.5 785 c 128,-1,77
 666 771 666 771 663 764 c 1,78,79
 650 766 650 766 639 774.5 c 128,-1,80
 628 783 628 783 628 791 c 0,62,63
EndSplineSet
EndChar

StartChar: H
Encoding: 72 72 44
Width: 675
Flags: W
LayerCount: 2
Fore
SplineSet
491 58 m 0,0,1
 491 100 491 100 505 166 c 128,-1,2
 519 232 519 232 542 307 c 1,3,4
 476 302 476 302 409.5 294 c 128,-1,5
 343 286 343 286 294 285 c 1,6,7
 249 180 249 180 222.5 91.5 c 128,-1,8
 196 3 196 3 181 -81 c 1,9,10
 143 -72 143 -72 118 -49.5 c 128,-1,11
 93 -27 93 -27 72 7 c 1,12,13
 80 23 80 23 90.5 48 c 128,-1,14
 101 73 101 73 115.5 108.5 c 128,-1,15
 130 144 130 144 148.5 191.5 c 128,-1,16
 167 239 167 239 191 302 c 1,17,18
 158 316 158 316 147 341 c 1,19,20
 152 345 152 345 169.5 349.5 c 128,-1,21
 187 354 187 354 213 359 c 1,22,-1
 226 391 l 2,23,24
 247 445 247 445 260.5 482 c 128,-1,25
 274 519 274 519 283.5 554.5 c 128,-1,26
 293 590 293 590 301.5 633 c 128,-1,27
 310 676 310 676 322 742 c 1,28,29
 364 734 364 734 398.5 705 c 128,-1,30
 433 676 433 676 458 635 c 1,31,32
 449 623 449 623 436 599 c 128,-1,33
 423 575 423 575 407.5 541.5 c 128,-1,34
 392 508 392 508 374 466.5 c 128,-1,35
 356 425 356 425 335 379 c 1,36,37
 397 387 397 387 460.5 394 c 128,-1,38
 524 401 524 401 573 404 c 1,39,40
 591 456 591 456 610.5 505.5 c 128,-1,41
 630 555 630 555 649 596 c 128,-1,42
 668 637 668 637 685.5 668 c 128,-1,43
 703 699 703 699 717 714 c 1,44,45
 727 713 727 713 743.5 706.5 c 128,-1,46
 760 700 760 700 777 691 c 128,-1,47
 794 682 794 682 808 671.5 c 128,-1,48
 822 661 822 661 827 652 c 1,49,50
 809 635 809 635 791 608 c 128,-1,51
 773 581 773 581 755.5 546 c 128,-1,52
 738 511 738 511 721 470 c 128,-1,53
 704 429 704 429 689 385 c 1,54,55
 709 367 709 367 709 340 c 0,56,57
 709 321 709 321 701 305 c 1,58,59
 692 307 692 307 683 307.5 c 128,-1,60
 674 308 674 308 664 309 c 1,61,62
 647 255 647 255 633 202 c 128,-1,63
 619 149 619 149 609.5 101 c 128,-1,64
 600 53 600 53 594.5 13 c 128,-1,65
 589 -27 589 -27 589 -54 c 0,66,67
 589 -64 589 -64 589.5 -70 c 128,-1,68
 590 -76 590 -76 591 -80 c 1,69,70
 569 -79 569 -79 559 -72.5 c 128,-1,71
 549 -66 549 -66 544 -58.5 c 128,-1,72
 539 -51 539 -51 535 -43.5 c 128,-1,73
 531 -36 531 -36 522 -32 c 0,74,75
 515 -29 515 -29 509 -18 c 128,-1,76
 503 -7 503 -7 499 7 c 128,-1,77
 495 21 495 21 493 35 c 128,-1,78
 491 49 491 49 491 58 c 0,0,1
EndSplineSet
EndChar

StartChar: Hbar
Encoding: 294 294 45
Width: 762
Flags: W
LayerCount: 2
Fore
SplineSet
522 58 m 0,0,1
 522 100 522 100 536 166 c 128,-1,2
 550 232 550 232 573 307 c 1,3,4
 507 302 507 302 440.5 294 c 128,-1,5
 374 286 374 286 325 285 c 1,6,7
 280 180 280 180 253.5 91.5 c 128,-1,8
 227 3 227 3 212 -81 c 1,9,10
 174 -72 174 -72 149 -49.5 c 128,-1,11
 124 -27 124 -27 103 7 c 1,12,13
 111 23 111 23 121.5 48 c 128,-1,14
 132 73 132 73 146.5 108.5 c 128,-1,15
 161 144 161 144 179.5 191.5 c 128,-1,16
 198 239 198 239 222 302 c 1,17,18
 189 316 189 316 178 341 c 1,19,20
 183 345 183 345 200.5 349.5 c 128,-1,21
 218 354 218 354 244 359 c 1,22,23
 261 394 261 394 271.5 425 c 128,-1,24
 282 456 282 456 289 474 c 1,25,26
 257 476 257 476 227.5 478 c 128,-1,27
 198 480 198 480 170 482 c 1,28,29
 172 492 172 492 173.5 507.5 c 128,-1,30
 175 523 175 523 175 549 c 1,31,32
 225 546 225 546 258.5 546 c 128,-1,33
 292 546 292 546 312 545 c 1,34,35
 317 564 317 564 322 584 c 128,-1,36
 327 604 327 604 331.5 627 c 128,-1,37
 336 650 336 650 341.5 678.5 c 128,-1,38
 347 707 347 707 353 742 c 1,39,40
 395 734 395 734 429.5 705 c 128,-1,41
 464 676 464 676 489 635 c 1,42,43
 480 623 480 623 467.5 600 c 128,-1,44
 455 577 455 577 440 545 c 1,45,46
 497 545 497 545 552 546.5 c 128,-1,47
 607 548 607 548 659 550 c 1,48,49
 684 608 684 608 707 651 c 128,-1,50
 730 694 730 694 748 714 c 1,51,52
 758 713 758 713 774.5 706.5 c 128,-1,53
 791 700 791 700 808 691 c 128,-1,54
 825 682 825 682 839 671.5 c 128,-1,55
 853 661 853 661 858 652 c 1,56,57
 841 636 841 636 825 612 c 128,-1,58
 809 588 809 588 792 557 c 1,59,60
 818 559 818 559 842 561 c 128,-1,61
 866 563 866 563 890 565 c 1,62,63
 907 552 907 552 921 525.5 c 128,-1,64
 935 499 935 499 935 478 c 1,65,66
 890 476 890 476 845 474.5 c 128,-1,67
 800 473 800 473 752 471 c 1,68,69
 744 451 744 451 736 429.5 c 128,-1,70
 728 408 728 408 720 385 c 1,71,72
 740 367 740 367 740 340 c 0,73,74
 740 321 740 321 732 305 c 1,75,76
 723 307 723 307 714 307.5 c 128,-1,77
 705 308 705 308 695 309 c 1,78,79
 678 255 678 255 664 202 c 128,-1,80
 650 149 650 149 640.5 101 c 128,-1,81
 631 53 631 53 625.5 13 c 128,-1,82
 620 -27 620 -27 620 -54 c 0,83,84
 620 -64 620 -64 620.5 -70 c 128,-1,85
 621 -76 621 -76 622 -80 c 1,86,87
 600 -79 600 -79 590 -72.5 c 128,-1,88
 580 -66 580 -66 575 -58.5 c 128,-1,89
 570 -51 570 -51 566 -43.5 c 128,-1,90
 562 -36 562 -36 553 -32 c 0,91,92
 546 -29 546 -29 540 -18 c 128,-1,93
 534 -7 534 -7 530 7 c 128,-1,94
 526 21 526 21 524 35 c 128,-1,95
 522 49 522 49 522 58 c 0,0,1
627 469 m 1,96,97
 579 469 579 469 544.5 469 c 128,-1,98
 510 469 510 469 485 469 c 128,-1,99
 460 469 460 469 441.5 469.5 c 128,-1,100
 423 470 423 470 406 470 c 1,101,102
 396 449 396 449 386.5 426 c 128,-1,103
 377 403 377 403 366 379 c 1,104,105
 428 387 428 387 491.5 394 c 128,-1,106
 555 401 555 401 604 404 c 1,107,108
 609 421 609 421 615 436.5 c 128,-1,109
 621 452 621 452 627 469 c 1,96,97
EndSplineSet
EndChar

StartChar: Hcircumflex
Encoding: 292 292 46
Width: 675
Flags: W
LayerCount: 2
Fore
SplineSet
491 58 m 0,0,1
 491 100 491 100 505 166 c 128,-1,2
 519 232 519 232 542 307 c 1,3,4
 476 302 476 302 409.5 294 c 128,-1,5
 343 286 343 286 294 285 c 1,6,7
 249 180 249 180 222.5 91.5 c 128,-1,8
 196 3 196 3 181 -81 c 1,9,10
 143 -72 143 -72 118 -49.5 c 128,-1,11
 93 -27 93 -27 72 7 c 1,12,13
 80 23 80 23 90.5 48 c 128,-1,14
 101 73 101 73 115.5 108.5 c 128,-1,15
 130 144 130 144 148.5 191.5 c 128,-1,16
 167 239 167 239 191 302 c 1,17,18
 158 316 158 316 147 341 c 1,19,20
 152 345 152 345 169.5 349.5 c 128,-1,21
 187 354 187 354 213 359 c 1,22,23
 239 425 239 425 255 468.5 c 128,-1,24
 271 512 271 512 282 550.5 c 128,-1,25
 293 589 293 589 301.5 632.5 c 128,-1,26
 310 676 310 676 322 742 c 1,27,28
 364 734 364 734 398.5 705 c 128,-1,29
 433 676 433 676 458 635 c 1,30,31
 449 623 449 623 436 599 c 128,-1,32
 423 575 423 575 407.5 541.5 c 128,-1,33
 392 508 392 508 374 466.5 c 128,-1,34
 356 425 356 425 335 379 c 1,35,36
 397 387 397 387 460.5 394 c 128,-1,37
 524 401 524 401 573 404 c 1,38,39
 591 456 591 456 610.5 505.5 c 128,-1,40
 630 555 630 555 649 596 c 128,-1,41
 668 637 668 637 685.5 668 c 128,-1,42
 703 699 703 699 717 714 c 1,43,44
 727 713 727 713 743.5 706.5 c 128,-1,45
 760 700 760 700 777 691 c 128,-1,46
 794 682 794 682 808 671.5 c 128,-1,47
 822 661 822 661 827 652 c 1,48,49
 809 635 809 635 791 608 c 128,-1,50
 773 581 773 581 755.5 546 c 128,-1,51
 738 511 738 511 721 470 c 128,-1,52
 704 429 704 429 689 385 c 1,53,54
 709 367 709 367 709 340 c 0,55,56
 709 321 709 321 701 305 c 1,57,58
 692 307 692 307 683 307.5 c 128,-1,59
 674 308 674 308 664 309 c 1,60,61
 647 255 647 255 633 202 c 128,-1,62
 619 149 619 149 609.5 101 c 128,-1,63
 600 53 600 53 594.5 13 c 128,-1,64
 589 -27 589 -27 589 -54 c 0,65,66
 589 -64 589 -64 589.5 -70 c 128,-1,67
 590 -76 590 -76 591 -80 c 1,68,69
 569 -79 569 -79 559 -72.5 c 128,-1,70
 549 -66 549 -66 544 -58.5 c 128,-1,71
 539 -51 539 -51 535 -43.5 c 128,-1,72
 531 -36 531 -36 522 -32 c 0,73,74
 515 -29 515 -29 509 -18 c 128,-1,75
 503 -7 503 -7 499 7 c 128,-1,76
 495 21 495 21 493 35 c 128,-1,77
 491 49 491 49 491 58 c 0,0,1
630 882 m 1,78,79
 637 826 637 826 648 797 c 128,-1,80
 659 768 659 768 682 754 c 1,81,82
 680 753 680 753 673 753 c 0,83,84
 648 753 648 753 621.5 768.5 c 128,-1,85
 595 784 595 784 574 809 c 1,86,87
 547 789 547 789 516 776.5 c 128,-1,88
 485 764 485 764 462 764 c 0,89,90
 447 764 447 764 433.5 768.5 c 128,-1,91
 420 773 420 773 408 786 c 1,92,93
 484 805 484 805 545 857 c 1,94,95
 543 861 543 861 541 869 c 1,96,97
 561 883 561 883 602 883 c 0,98,99
 614 883 614 883 619.5 883 c 128,-1,100
 625 883 625 883 630 882 c 1,78,79
EndSplineSet
EndChar

StartChar: I
Encoding: 73 73 47
Width: 315
Flags: W
LayerCount: 2
Fore
SplineSet
131 57 m 0,0,1
 131 93 131 93 142.5 150.5 c 128,-1,2
 154 208 154 208 172.5 274.5 c 128,-1,3
 191 341 191 341 215 410.5 c 128,-1,4
 239 480 239 480 264 541 c 128,-1,5
 289 602 289 602 313 648 c 128,-1,6
 337 694 337 694 356 714 c 1,7,8
 366 713 366 713 382.5 706.5 c 128,-1,9
 399 700 399 700 416 691 c 128,-1,10
 433 682 433 682 447 671.5 c 128,-1,11
 461 661 461 661 465 652 c 1,12,13
 436 626 436 626 407.5 573.5 c 128,-1,14
 379 521 379 521 352.5 454 c 128,-1,15
 326 387 326 387 303 312.5 c 128,-1,16
 280 238 280 238 263 168 c 128,-1,17
 246 98 246 98 236.5 38 c 128,-1,18
 227 -22 227 -22 227 -59 c 0,19,20
 227 -76 227 -76 230 -80 c 1,21,22
 208 -79 208 -79 198 -72.5 c 128,-1,23
 188 -66 188 -66 182.5 -58.5 c 128,-1,24
 177 -51 177 -51 172.5 -43.5 c 128,-1,25
 168 -36 168 -36 159 -32 c 0,26,27
 152 -29 152 -29 147 -18 c 128,-1,28
 142 -7 142 -7 138.5 6.5 c 128,-1,29
 135 20 135 20 133 34 c 128,-1,30
 131 48 131 48 131 57 c 0,0,1
EndSplineSet
EndChar

StartChar: IJ
Encoding: 306 306 48
Width: 735
Flags: W
LayerCount: 2
Fore
SplineSet
131 57 m 0,0,1
 131 93 131 93 142.5 150.5 c 128,-1,2
 154 208 154 208 172.5 274.5 c 128,-1,3
 191 341 191 341 215 410.5 c 128,-1,4
 239 480 239 480 264 541 c 128,-1,5
 289 602 289 602 313 648 c 128,-1,6
 337 694 337 694 356 714 c 1,7,8
 366 713 366 713 382.5 706.5 c 128,-1,9
 399 700 399 700 416 691 c 128,-1,10
 433 682 433 682 447 671.5 c 128,-1,11
 461 661 461 661 465 652 c 1,12,13
 436 626 436 626 407.5 573.5 c 128,-1,14
 379 521 379 521 352.5 454 c 128,-1,15
 326 387 326 387 303 312.5 c 128,-1,16
 280 238 280 238 263 168 c 128,-1,17
 246 98 246 98 236.5 38 c 128,-1,18
 227 -22 227 -22 227 -59 c 0,19,20
 227 -76 227 -76 230 -80 c 1,21,22
 208 -79 208 -79 198 -72.5 c 128,-1,23
 188 -66 188 -66 182.5 -58.5 c 128,-1,24
 177 -51 177 -51 172.5 -43.5 c 128,-1,25
 168 -36 168 -36 159 -32 c 0,26,27
 152 -29 152 -29 147 -18 c 128,-1,28
 142 -7 142 -7 138.5 6.5 c 128,-1,29
 135 20 135 20 133 34 c 128,-1,30
 131 48 131 48 131 57 c 0,0,1
699 739 m 1,31,32
 737 739 737 739 778 725 c 128,-1,33
 819 711 819 711 850 689 c 1,34,35
 840 638 840 638 831.5 597 c 128,-1,36
 823 556 823 556 816 522.5 c 128,-1,37
 809 489 809 489 802.5 461.5 c 128,-1,38
 796 434 796 434 790 410 c 0,39,40
 766 320 766 320 740.5 247.5 c 128,-1,41
 715 175 715 175 686.5 117 c 128,-1,42
 658 59 658 59 626.5 14 c 128,-1,43
 595 -31 595 -31 559 -65 c 0,44,45
 524 -98 524 -98 489 -119 c 128,-1,46
 454 -140 454 -140 424 -146 c 1,47,48
 384 -146 384 -146 350 -137 c 128,-1,49
 316 -128 316 -128 291.5 -112.5 c 128,-1,50
 267 -97 267 -97 253.5 -75.5 c 128,-1,51
 240 -54 240 -54 240 -28 c 0,52,53
 240 0 240 0 254 42.5 c 128,-1,54
 268 85 268 85 297 143 c 1,55,56
 309 142 309 142 325 137 c 128,-1,57
 341 132 341 132 357 125 c 128,-1,58
 373 118 373 118 386 109.5 c 128,-1,59
 399 101 399 101 405 93 c 1,60,61
 373 60 373 60 353 20.5 c 128,-1,62
 333 -19 333 -19 333 -48 c 0,63,64
 333 -65 333 -65 339.5 -78.5 c 128,-1,65
 346 -92 346 -92 362 -103 c 1,66,67
 423 -80 423 -80 481 -17.5 c 128,-1,68
 539 45 539 45 584 138 c 0,69,70
 611 193 611 193 633 264 c 128,-1,71
 655 335 655 335 670.5 406.5 c 128,-1,72
 686 478 686 478 694.5 543.5 c 128,-1,73
 703 609 703 609 703 654 c 0,74,75
 703 661 703 661 702.5 673.5 c 128,-1,76
 702 686 702 686 701.5 699.5 c 128,-1,77
 701 713 701 713 700 724 c 128,-1,78
 699 735 699 735 699 739 c 1,31,32
EndSplineSet
EndChar

StartChar: Iacute
Encoding: 205 205 49
Width: 315
Flags: W
LayerCount: 2
Fore
SplineSet
131 57 m 0,0,1
 131 93 131 93 142.5 150.5 c 128,-1,2
 154 208 154 208 172.5 274.5 c 128,-1,3
 191 341 191 341 215 410.5 c 128,-1,4
 239 480 239 480 264 541 c 128,-1,5
 289 602 289 602 313 648 c 128,-1,6
 337 694 337 694 356 714 c 1,7,8
 366 713 366 713 382.5 706.5 c 128,-1,9
 399 700 399 700 416 691 c 128,-1,10
 433 682 433 682 447 671.5 c 128,-1,11
 461 661 461 661 465 652 c 1,12,13
 436 626 436 626 407.5 573.5 c 128,-1,14
 379 521 379 521 352.5 454 c 128,-1,15
 326 387 326 387 303 312.5 c 128,-1,16
 280 238 280 238 263 168 c 128,-1,17
 246 98 246 98 236.5 38 c 128,-1,18
 227 -22 227 -22 227 -59 c 0,19,20
 227 -76 227 -76 230 -80 c 1,21,22
 208 -79 208 -79 198 -72.5 c 128,-1,23
 188 -66 188 -66 182.5 -58.5 c 128,-1,24
 177 -51 177 -51 172.5 -43.5 c 128,-1,25
 168 -36 168 -36 159 -32 c 0,26,27
 152 -29 152 -29 147 -18 c 128,-1,28
 142 -7 142 -7 138.5 6.5 c 128,-1,29
 135 20 135 20 133 34 c 128,-1,30
 131 48 131 48 131 57 c 0,0,1
559 883 m 1,31,32
 580 877 580 877 598.5 857 c 128,-1,33
 617 837 617 837 617 819 c 1,34,35
 579 803 579 803 550.5 792.5 c 128,-1,36
 522 782 522 782 499.5 775.5 c 128,-1,37
 477 769 477 769 460 766.5 c 128,-1,38
 443 764 443 764 427 764 c 0,39,40
 395 764 395 764 372 783 c 1,41,42
 417 793 417 793 467 819.5 c 128,-1,43
 517 846 517 846 559 883 c 1,31,32
EndSplineSet
EndChar

StartChar: Ibreve
Encoding: 300 300 50
Width: 315
Flags: W
LayerCount: 2
Fore
SplineSet
131 57 m 0,0,1
 131 93 131 93 142.5 150.5 c 128,-1,2
 154 208 154 208 172.5 274.5 c 128,-1,3
 191 341 191 341 215 410.5 c 128,-1,4
 239 480 239 480 264 541 c 128,-1,5
 289 602 289 602 313 648 c 128,-1,6
 337 694 337 694 356 714 c 1,7,8
 366 713 366 713 382.5 706.5 c 128,-1,9
 399 700 399 700 416 691 c 128,-1,10
 433 682 433 682 447 671.5 c 128,-1,11
 461 661 461 661 465 652 c 1,12,13
 436 626 436 626 407.5 573.5 c 128,-1,14
 379 521 379 521 352.5 454 c 128,-1,15
 326 387 326 387 303 312.5 c 128,-1,16
 280 238 280 238 263 168 c 128,-1,17
 246 98 246 98 236.5 38 c 128,-1,18
 227 -22 227 -22 227 -59 c 0,19,20
 227 -76 227 -76 230 -80 c 1,21,22
 208 -79 208 -79 198 -72.5 c 128,-1,23
 188 -66 188 -66 182.5 -58.5 c 128,-1,24
 177 -51 177 -51 172.5 -43.5 c 128,-1,25
 168 -36 168 -36 159 -32 c 0,26,27
 152 -29 152 -29 147 -18 c 128,-1,28
 142 -7 142 -7 138.5 6.5 c 128,-1,29
 135 20 135 20 133 34 c 128,-1,30
 131 48 131 48 131 57 c 0,0,1
484 764 m 1,31,32
 464 765 464 765 442 770.5 c 128,-1,33
 420 776 420 776 400.5 786.5 c 128,-1,34
 381 797 381 797 365.5 813 c 128,-1,35
 350 829 350 829 343 852 c 1,36,37
 356 866 356 866 370 873 c 128,-1,38
 384 880 384 880 412 883 c 1,39,40
 426 849 426 849 452.5 835 c 128,-1,41
 479 821 479 821 510 819 c 1,42,43
 548 825 548 825 572.5 840.5 c 128,-1,44
 597 856 597 856 614 880 c 1,45,46
 624 877 624 877 630 861 c 1,47,48
 620 827 620 827 581 801 c 128,-1,49
 542 775 542 775 484 764 c 1,31,32
EndSplineSet
EndChar

StartChar: Icircumflex
Encoding: 206 206 51
Width: 315
Flags: W
LayerCount: 2
Fore
SplineSet
131 57 m 0,0,1
 131 93 131 93 142.5 150.5 c 128,-1,2
 154 208 154 208 172.5 274.5 c 128,-1,3
 191 341 191 341 215 410.5 c 128,-1,4
 239 480 239 480 264 541 c 128,-1,5
 289 602 289 602 313 648 c 128,-1,6
 337 694 337 694 356 714 c 1,7,8
 366 713 366 713 382.5 706.5 c 128,-1,9
 399 700 399 700 416 691 c 128,-1,10
 433 682 433 682 447 671.5 c 128,-1,11
 461 661 461 661 465 652 c 1,12,13
 436 626 436 626 407.5 573.5 c 128,-1,14
 379 521 379 521 352.5 454 c 128,-1,15
 326 387 326 387 303 312.5 c 128,-1,16
 280 238 280 238 263 168 c 128,-1,17
 246 98 246 98 236.5 38 c 128,-1,18
 227 -22 227 -22 227 -59 c 0,19,20
 227 -76 227 -76 230 -80 c 1,21,22
 208 -79 208 -79 198 -72.5 c 128,-1,23
 188 -66 188 -66 182.5 -58.5 c 128,-1,24
 177 -51 177 -51 172.5 -43.5 c 128,-1,25
 168 -36 168 -36 159 -32 c 0,26,27
 152 -29 152 -29 147 -18 c 128,-1,28
 142 -7 142 -7 138.5 6.5 c 128,-1,29
 135 20 135 20 133 34 c 128,-1,30
 131 48 131 48 131 57 c 0,0,1
523 882 m 1,31,32
 530 826 530 826 541 797 c 128,-1,33
 552 768 552 768 575 754 c 1,34,35
 573 753 573 753 566 753 c 0,36,37
 541 753 541 753 514.5 768.5 c 128,-1,38
 488 784 488 784 467 809 c 1,39,40
 440 789 440 789 409 776.5 c 128,-1,41
 378 764 378 764 355 764 c 0,42,43
 340 764 340 764 326.5 768.5 c 128,-1,44
 313 773 313 773 301 786 c 1,45,46
 377 805 377 805 438 857 c 1,47,48
 436 861 436 861 434 869 c 1,49,50
 454 883 454 883 495 883 c 0,51,52
 507 883 507 883 512.5 883 c 128,-1,53
 518 883 518 883 523 882 c 1,31,32
EndSplineSet
EndChar

StartChar: Idieresis
Encoding: 207 207 52
Width: 315
Flags: W
LayerCount: 2
Fore
SplineSet
131 57 m 0,0,1
 131 93 131 93 142.5 150.5 c 128,-1,2
 154 208 154 208 172.5 274.5 c 128,-1,3
 191 341 191 341 215 410.5 c 128,-1,4
 239 480 239 480 264 541 c 128,-1,5
 289 602 289 602 313 648 c 128,-1,6
 337 694 337 694 356 714 c 1,7,8
 366 713 366 713 382.5 706.5 c 128,-1,9
 399 700 399 700 416 691 c 128,-1,10
 433 682 433 682 447 671.5 c 128,-1,11
 461 661 461 661 465 652 c 1,12,13
 436 626 436 626 407.5 573.5 c 128,-1,14
 379 521 379 521 352.5 454 c 128,-1,15
 326 387 326 387 303 312.5 c 128,-1,16
 280 238 280 238 263 168 c 128,-1,17
 246 98 246 98 236.5 38 c 128,-1,18
 227 -22 227 -22 227 -59 c 0,19,20
 227 -76 227 -76 230 -80 c 1,21,22
 208 -79 208 -79 198 -72.5 c 128,-1,23
 188 -66 188 -66 182.5 -58.5 c 128,-1,24
 177 -51 177 -51 172.5 -43.5 c 128,-1,25
 168 -36 168 -36 159 -32 c 0,26,27
 152 -29 152 -29 147 -18 c 128,-1,28
 142 -7 142 -7 138.5 6.5 c 128,-1,29
 135 20 135 20 133 34 c 128,-1,30
 131 48 131 48 131 57 c 0,0,1
371 788 m 1,31,32
 371 803 371 803 373 819.5 c 128,-1,33
 375 836 375 836 381 849.5 c 128,-1,34
 387 863 387 863 398.5 872.5 c 128,-1,35
 410 882 410 882 429 883 c 1,36,37
 442 881 442 881 464.5 868.5 c 128,-1,38
 487 856 487 856 497 839 c 1,39,40
 497 839 497 839 488.5 828 c 128,-1,41
 480 817 480 817 468.5 804 c 128,-1,42
 457 791 457 791 446.5 779 c 128,-1,43
 436 767 436 767 432 764 c 1,44,45
 407 769 407 769 391.5 774 c 128,-1,46
 376 779 376 779 371 788 c 1,31,32
502 788 m 1,47,48
 502 804 502 804 504 820.5 c 128,-1,49
 506 837 506 837 512 850.5 c 128,-1,50
 518 864 518 864 529 873 c 128,-1,51
 540 882 540 882 558 883 c 0,52,53
 564 883 564 883 573.5 879 c 128,-1,54
 583 875 583 875 593 869 c 128,-1,55
 603 863 603 863 612 855 c 128,-1,56
 621 847 621 847 627 839 c 0,57,58
 627 838 627 838 618.5 827 c 128,-1,59
 610 816 610 816 599 802.5 c 128,-1,60
 588 789 588 789 577 777 c 128,-1,61
 566 765 566 765 560 763 c 1,62,63
 537 766 537 766 522.5 773 c 128,-1,64
 508 780 508 780 502 788 c 1,47,48
EndSplineSet
EndChar

StartChar: Idotaccent
Encoding: 304 304 53
Width: 315
Flags: W
LayerCount: 2
Fore
SplineSet
131 57 m 0,0,1
 131 93 131 93 142.5 150.5 c 128,-1,2
 154 208 154 208 172.5 274.5 c 128,-1,3
 191 341 191 341 215 410.5 c 128,-1,4
 239 480 239 480 264 541 c 128,-1,5
 289 602 289 602 313 648 c 128,-1,6
 337 694 337 694 356 714 c 1,7,8
 366 713 366 713 382.5 706.5 c 128,-1,9
 399 700 399 700 416 691 c 128,-1,10
 433 682 433 682 447 671.5 c 128,-1,11
 461 661 461 661 465 652 c 1,12,13
 436 626 436 626 407.5 573.5 c 128,-1,14
 379 521 379 521 352.5 454 c 128,-1,15
 326 387 326 387 303 312.5 c 128,-1,16
 280 238 280 238 263 168 c 128,-1,17
 246 98 246 98 236.5 38 c 128,-1,18
 227 -22 227 -22 227 -59 c 0,19,20
 227 -76 227 -76 230 -80 c 1,21,22
 208 -79 208 -79 198 -72.5 c 128,-1,23
 188 -66 188 -66 182.5 -58.5 c 128,-1,24
 177 -51 177 -51 172.5 -43.5 c 128,-1,25
 168 -36 168 -36 159 -32 c 0,26,27
 152 -29 152 -29 147 -18 c 128,-1,28
 142 -7 142 -7 138.5 6.5 c 128,-1,29
 135 20 135 20 133 34 c 128,-1,30
 131 48 131 48 131 57 c 0,0,1
434 791 m 0,31,32
 434 797 434 797 437 809 c 1,33,34
 422 824 422 824 422 849 c 0,35,36
 422 865 422 865 427 883 c 1,37,38
 439 883 439 883 456 881 c 128,-1,39
 473 879 473 879 490 876 c 128,-1,40
 507 873 507 873 522 868.5 c 128,-1,41
 537 864 537 864 545 860 c 1,42,43
 537 855 537 855 525.5 842 c 128,-1,44
 514 829 514 829 502.5 814 c 128,-1,45
 491 799 491 799 481.5 785 c 128,-1,46
 472 771 472 771 469 764 c 1,47,48
 456 766 456 766 445 774.5 c 128,-1,49
 434 783 434 783 434 791 c 0,31,32
EndSplineSet
EndChar

StartChar: Igrave
Encoding: 204 204 54
Width: 315
Flags: W
LayerCount: 2
Fore
SplineSet
131 57 m 0,0,1
 131 93 131 93 142.5 150.5 c 128,-1,2
 154 208 154 208 172.5 274.5 c 128,-1,3
 191 341 191 341 215 410.5 c 128,-1,4
 239 480 239 480 264 541 c 128,-1,5
 289 602 289 602 313 648 c 128,-1,6
 337 694 337 694 356 714 c 1,7,8
 366 713 366 713 382.5 706.5 c 128,-1,9
 399 700 399 700 416 691 c 128,-1,10
 433 682 433 682 447 671.5 c 128,-1,11
 461 661 461 661 465 652 c 1,12,13
 436 626 436 626 407.5 573.5 c 128,-1,14
 379 521 379 521 352.5 454 c 128,-1,15
 326 387 326 387 303 312.5 c 128,-1,16
 280 238 280 238 263 168 c 128,-1,17
 246 98 246 98 236.5 38 c 128,-1,18
 227 -22 227 -22 227 -59 c 0,19,20
 227 -76 227 -76 230 -80 c 1,21,22
 208 -79 208 -79 198 -72.5 c 128,-1,23
 188 -66 188 -66 182.5 -58.5 c 128,-1,24
 177 -51 177 -51 172.5 -43.5 c 128,-1,25
 168 -36 168 -36 159 -32 c 0,26,27
 152 -29 152 -29 147 -18 c 128,-1,28
 142 -7 142 -7 138.5 6.5 c 128,-1,29
 135 20 135 20 133 34 c 128,-1,30
 131 48 131 48 131 57 c 0,0,1
379 883 m 1,31,32
 421 846 421 846 471 819.5 c 128,-1,33
 521 793 521 793 566 783 c 1,34,35
 543 764 543 764 511 764 c 0,36,37
 495 764 495 764 478 766.5 c 128,-1,38
 461 769 461 769 438.5 775.5 c 128,-1,39
 416 782 416 782 387.5 792.5 c 128,-1,40
 359 803 359 803 321 819 c 1,41,42
 321 828 321 828 326 838 c 128,-1,43
 331 848 331 848 339.5 857 c 128,-1,44
 348 866 348 866 358 873 c 128,-1,45
 368 880 368 880 379 883 c 1,31,32
EndSplineSet
EndChar

StartChar: Imacron
Encoding: 298 298 55
Width: 315
Flags: W
LayerCount: 2
Fore
SplineSet
131 57 m 0,0,1
 131 93 131 93 142.5 150.5 c 128,-1,2
 154 208 154 208 172.5 274.5 c 128,-1,3
 191 341 191 341 215 410.5 c 128,-1,4
 239 480 239 480 264 541 c 128,-1,5
 289 602 289 602 313 648 c 128,-1,6
 337 694 337 694 356 714 c 1,7,8
 366 713 366 713 382.5 706.5 c 128,-1,9
 399 700 399 700 416 691 c 128,-1,10
 433 682 433 682 447 671.5 c 128,-1,11
 461 661 461 661 465 652 c 1,12,13
 436 626 436 626 407.5 573.5 c 128,-1,14
 379 521 379 521 352.5 454 c 128,-1,15
 326 387 326 387 303 312.5 c 128,-1,16
 280 238 280 238 263 168 c 128,-1,17
 246 98 246 98 236.5 38 c 128,-1,18
 227 -22 227 -22 227 -59 c 0,19,20
 227 -76 227 -76 230 -80 c 1,21,22
 208 -79 208 -79 198 -72.5 c 128,-1,23
 188 -66 188 -66 182.5 -58.5 c 128,-1,24
 177 -51 177 -51 172.5 -43.5 c 128,-1,25
 168 -36 168 -36 159 -32 c 0,26,27
 152 -29 152 -29 147 -18 c 128,-1,28
 142 -7 142 -7 138.5 6.5 c 128,-1,29
 135 20 135 20 133 34 c 128,-1,30
 131 48 131 48 131 57 c 0,0,1
310 866 m 1,31,32
 355 863 355 863 401 863 c 0,33,34
 507 863 507 863 596 883 c 1,35,36
 603 872 603 872 608.5 848.5 c 128,-1,37
 614 825 614 825 614 806 c 1,38,39
 577 799 577 799 538 798 c 128,-1,40
 499 797 499 797 460 797 c 0,41,42
 367 797 367 797 308 810 c 1,43,44
 309 818 309 818 309.5 830.5 c 128,-1,45
 310 843 310 843 310 866 c 1,31,32
EndSplineSet
EndChar

StartChar: Iogonek
Encoding: 302 302 56
Width: 316
Flags: W
LayerCount: 2
Fore
SplineSet
27 -174 m 0,0,1
 27 -150 27 -150 37 -126 c 128,-1,2
 47 -102 47 -102 63.5 -81 c 128,-1,3
 80 -60 80 -60 102 -44 c 128,-1,4
 124 -28 124 -28 149 -20 c 1,5,6
 141 -5 141 -5 136.5 19 c 128,-1,7
 132 43 132 43 132 57 c 0,8,9
 132 93 132 93 143.5 150.5 c 128,-1,10
 155 208 155 208 173.5 274.5 c 128,-1,11
 192 341 192 341 216 410.5 c 128,-1,12
 240 480 240 480 265 541 c 128,-1,13
 290 602 290 602 314 648 c 128,-1,14
 338 694 338 694 357 714 c 1,15,16
 367 713 367 713 383.5 706.5 c 128,-1,17
 400 700 400 700 417 691 c 128,-1,18
 434 682 434 682 448 671.5 c 128,-1,19
 462 661 462 661 466 652 c 1,20,21
 437 626 437 626 408.5 573.5 c 128,-1,22
 380 521 380 521 353.5 454 c 128,-1,23
 327 387 327 387 304 312.5 c 128,-1,24
 281 238 281 238 264 168 c 128,-1,25
 247 98 247 98 237.5 38 c 128,-1,26
 228 -22 228 -22 228 -59 c 0,27,28
 228 -76 228 -76 231 -80 c 1,29,30
 215 -79 215 -79 205.5 -75.5 c 128,-1,31
 196 -72 196 -72 190.5 -67 c 128,-1,32
 185 -62 185 -62 181.5 -56 c 128,-1,33
 178 -50 178 -50 175 -45 c 1,34,35
 144 -61 144 -61 118.5 -98.5 c 128,-1,36
 93 -136 93 -136 93 -186 c 0,37,38
 93 -212 93 -212 104 -222.5 c 128,-1,39
 115 -233 115 -233 132 -233 c 0,40,41
 145 -233 145 -233 160 -228 c 128,-1,42
 175 -223 175 -223 189.5 -216 c 128,-1,43
 204 -209 204 -209 217 -201 c 128,-1,44
 230 -193 230 -193 239 -187 c 1,45,-1
 245 -199 l 1,46,47
 235 -211 235 -211 220 -223.5 c 128,-1,48
 205 -236 205 -236 188.5 -246 c 128,-1,49
 172 -256 172 -256 157 -263 c 128,-1,50
 142 -270 142 -270 132 -271 c 1,51,52
 112 -270 112 -270 93 -262.5 c 128,-1,53
 74 -255 74 -255 59.5 -242.5 c 128,-1,54
 45 -230 45 -230 36 -213 c 128,-1,55
 27 -196 27 -196 27 -174 c 0,0,1
EndSplineSet
EndChar

StartChar: Itilde
Encoding: 296 296 57
Width: 315
Flags: W
LayerCount: 2
Fore
SplineSet
131 57 m 0,0,1
 131 93 131 93 142.5 150.5 c 128,-1,2
 154 208 154 208 172.5 274.5 c 128,-1,3
 191 341 191 341 215 410.5 c 128,-1,4
 239 480 239 480 264 541 c 128,-1,5
 289 602 289 602 313 648 c 128,-1,6
 337 694 337 694 356 714 c 1,7,8
 366 713 366 713 382.5 706.5 c 128,-1,9
 399 700 399 700 416 691 c 128,-1,10
 433 682 433 682 447 671.5 c 128,-1,11
 461 661 461 661 465 652 c 1,12,13
 436 626 436 626 407.5 573.5 c 128,-1,14
 379 521 379 521 352.5 454 c 128,-1,15
 326 387 326 387 303 312.5 c 128,-1,16
 280 238 280 238 263 168 c 128,-1,17
 246 98 246 98 236.5 38 c 128,-1,18
 227 -22 227 -22 227 -59 c 0,19,20
 227 -76 227 -76 230 -80 c 1,21,22
 208 -79 208 -79 198 -72.5 c 128,-1,23
 188 -66 188 -66 182.5 -58.5 c 128,-1,24
 177 -51 177 -51 172.5 -43.5 c 128,-1,25
 168 -36 168 -36 159 -32 c 0,26,27
 152 -29 152 -29 147 -18 c 128,-1,28
 142 -7 142 -7 138.5 6.5 c 128,-1,29
 135 20 135 20 133 34 c 128,-1,30
 131 48 131 48 131 57 c 0,0,1
288 853 m 1,31,32
 335 837 335 837 380 837 c 0,33,34
 418 837 418 837 459 848 c 128,-1,35
 500 859 500 859 551 883 c 1,36,37
 563 871 563 871 572 846 c 128,-1,38
 581 821 581 821 585 803 c 1,39,40
 540 782 540 782 502 776.5 c 128,-1,41
 464 771 464 771 431 771 c 0,42,43
 369 771 369 771 332 794.5 c 128,-1,44
 295 818 295 818 288 853 c 1,31,32
EndSplineSet
EndChar

StartChar: J
Encoding: 74 74 58
Width: 512
Flags: W
LayerCount: 2
Fore
SplineSet
476 739 m 1,0,1
 514 739 514 739 555 725 c 128,-1,2
 596 711 596 711 627 689 c 1,3,4
 617 638 617 638 608.5 597 c 128,-1,5
 600 556 600 556 593 522.5 c 128,-1,6
 586 489 586 489 579.5 461.5 c 128,-1,7
 573 434 573 434 567 410 c 0,8,9
 543 320 543 320 517.5 247.5 c 128,-1,10
 492 175 492 175 463.5 117 c 128,-1,11
 435 59 435 59 403.5 14 c 128,-1,12
 372 -31 372 -31 336 -65 c 0,13,14
 301 -98 301 -98 266 -119 c 128,-1,15
 231 -140 231 -140 201 -146 c 1,16,17
 161 -146 161 -146 127 -137 c 128,-1,18
 93 -128 93 -128 68.5 -112.5 c 128,-1,19
 44 -97 44 -97 30.5 -75.5 c 128,-1,20
 17 -54 17 -54 17 -28 c 0,21,22
 17 0 17 0 31 42.5 c 128,-1,23
 45 85 45 85 74 143 c 1,24,25
 86 142 86 142 102 137 c 128,-1,26
 118 132 118 132 134 125 c 128,-1,27
 150 118 150 118 163 109.5 c 128,-1,28
 176 101 176 101 182 93 c 1,29,30
 150 60 150 60 130 20.5 c 128,-1,31
 110 -19 110 -19 110 -48 c 0,32,33
 110 -65 110 -65 116.5 -78.5 c 128,-1,34
 123 -92 123 -92 139 -103 c 1,35,36
 200 -80 200 -80 258 -17.5 c 128,-1,37
 316 45 316 45 361 138 c 0,38,39
 388 193 388 193 410 264 c 128,-1,40
 432 335 432 335 447.5 406.5 c 128,-1,41
 463 478 463 478 471.5 543.5 c 128,-1,42
 480 609 480 609 480 654 c 0,43,44
 480 661 480 661 479.5 673.5 c 128,-1,45
 479 686 479 686 478.5 699.5 c 128,-1,46
 478 713 478 713 477 724 c 128,-1,47
 476 735 476 735 476 739 c 1,0,1
EndSplineSet
EndChar

StartChar: Jcircumflex
Encoding: 308 308 59
Width: 512
Flags: W
LayerCount: 2
Fore
SplineSet
476 739 m 1,0,1
 514 739 514 739 555 725 c 128,-1,2
 596 711 596 711 627 689 c 1,3,4
 617 638 617 638 608.5 597 c 128,-1,5
 600 556 600 556 593 522.5 c 128,-1,6
 586 489 586 489 579.5 461.5 c 128,-1,7
 573 434 573 434 567 410 c 0,8,9
 543 320 543 320 517.5 247.5 c 128,-1,10
 492 175 492 175 463.5 117 c 128,-1,11
 435 59 435 59 403.5 14 c 128,-1,12
 372 -31 372 -31 336 -65 c 0,13,14
 301 -98 301 -98 266 -119 c 128,-1,15
 231 -140 231 -140 201 -146 c 1,16,17
 161 -146 161 -146 127 -137 c 128,-1,18
 93 -128 93 -128 68.5 -112.5 c 128,-1,19
 44 -97 44 -97 30.5 -75.5 c 128,-1,20
 17 -54 17 -54 17 -28 c 0,21,22
 17 0 17 0 31 42.5 c 128,-1,23
 45 85 45 85 74 143 c 1,24,25
 86 142 86 142 102 137 c 128,-1,26
 118 132 118 132 134 125 c 128,-1,27
 150 118 150 118 163 109.5 c 128,-1,28
 176 101 176 101 182 93 c 1,29,30
 150 60 150 60 130 20.5 c 128,-1,31
 110 -19 110 -19 110 -48 c 0,32,33
 110 -65 110 -65 116.5 -78.5 c 128,-1,34
 123 -92 123 -92 139 -103 c 1,35,36
 200 -80 200 -80 258 -17.5 c 128,-1,37
 316 45 316 45 361 138 c 0,38,39
 388 193 388 193 410 264 c 128,-1,40
 432 335 432 335 447.5 406.5 c 128,-1,41
 463 478 463 478 471.5 543.5 c 128,-1,42
 480 609 480 609 480 654 c 0,43,44
 480 661 480 661 479.5 673.5 c 128,-1,45
 479 686 479 686 478.5 699.5 c 128,-1,46
 478 713 478 713 477 724 c 128,-1,47
 476 735 476 735 476 739 c 1,0,1
674 882 m 1,48,49
 681 826 681 826 692 797 c 128,-1,50
 703 768 703 768 726 754 c 1,51,52
 724 753 724 753 717 753 c 0,53,54
 692 753 692 753 665.5 768.5 c 128,-1,55
 639 784 639 784 618 809 c 1,56,57
 591 789 591 789 560 776.5 c 128,-1,58
 529 764 529 764 506 764 c 0,59,60
 491 764 491 764 477.5 768.5 c 128,-1,61
 464 773 464 773 452 786 c 1,62,63
 528 805 528 805 589 857 c 1,64,65
 587 861 587 861 585 869 c 1,66,67
 605 883 605 883 646 883 c 0,68,69
 658 883 658 883 663.5 883 c 128,-1,70
 669 883 669 883 674 882 c 1,48,49
EndSplineSet
EndChar

StartChar: K
Encoding: 75 75 60
Width: 653
Flags: W
LayerCount: 2
Fore
SplineSet
334 317 m 1,0,1
 396 409 396 409 456.5 486.5 c 128,-1,2
 517 564 517 564 572 620 c 128,-1,3
 627 676 627 676 673 707 c 128,-1,4
 719 738 719 738 753 738 c 0,5,6
 766 738 766 738 781.5 728 c 128,-1,7
 797 718 797 718 810.5 702 c 128,-1,8
 824 686 824 686 833 667.5 c 128,-1,9
 842 649 842 649 842 632 c 1,10,11
 780 612 780 612 720.5 579.5 c 128,-1,12
 661 547 661 547 606.5 504.5 c 128,-1,13
 552 462 552 462 502.5 410 c 128,-1,14
 453 358 453 358 413 299 c 1,15,16
 429 258 429 258 452.5 211.5 c 128,-1,17
 476 165 476 165 504 121.5 c 128,-1,18
 532 78 532 78 564 41 c 128,-1,19
 596 4 596 4 629 -18 c 1,20,21
 624 -29 624 -29 612 -39 c 128,-1,22
 600 -49 600 -49 586 -57.5 c 128,-1,23
 572 -66 572 -66 556.5 -71 c 128,-1,24
 541 -76 541 -76 528 -76 c 0,25,26
 502 -76 502 -76 480 -51.5 c 128,-1,27
 458 -27 458 -27 435.5 22.5 c 128,-1,28
 413 72 413 72 388.5 145.5 c 128,-1,29
 364 219 364 219 334 317 c 1,0,1
183 -81 m 1,30,31
 145 -72 145 -72 120 -49.5 c 128,-1,32
 95 -27 95 -27 74 7 c 1,33,34
 83 26 83 26 95.5 57 c 128,-1,35
 108 88 108 88 126 133.5 c 128,-1,36
 144 179 144 179 169 242.5 c 128,-1,37
 194 306 194 306 227 391 c 0,38,39
 248 445 248 445 261.5 482 c 128,-1,40
 275 519 275 519 284.5 554.5 c 128,-1,41
 294 590 294 590 303 633 c 128,-1,42
 312 676 312 676 324 742 c 1,43,44
 366 734 366 734 400.5 705 c 128,-1,45
 435 676 435 676 460 635 c 1,46,47
 449 621 449 621 434.5 592.5 c 128,-1,48
 420 564 420 564 402 524 c 128,-1,49
 384 484 384 484 362 435 c 128,-1,50
 340 386 340 386 316 331 c 0,51,52
 262 211 262 211 231 111.5 c 128,-1,53
 200 12 200 12 183 -81 c 1,30,31
EndSplineSet
EndChar

StartChar: Kcommaaccent
Encoding: 310 310 61
Width: 653
Flags: W
LayerCount: 2
Fore
SplineSet
334 317 m 1,0,1
 396 409 396 409 456.5 486.5 c 128,-1,2
 517 564 517 564 572 620 c 128,-1,3
 627 676 627 676 673 707 c 128,-1,4
 719 738 719 738 753 738 c 0,5,6
 766 738 766 738 781.5 728 c 128,-1,7
 797 718 797 718 810.5 702 c 128,-1,8
 824 686 824 686 833 667.5 c 128,-1,9
 842 649 842 649 842 632 c 1,10,11
 780 612 780 612 720.5 579.5 c 128,-1,12
 661 547 661 547 606.5 504.5 c 128,-1,13
 552 462 552 462 502.5 410 c 128,-1,14
 453 358 453 358 413 299 c 1,15,16
 429 258 429 258 452.5 211.5 c 128,-1,17
 476 165 476 165 504 121.5 c 128,-1,18
 532 78 532 78 564 41 c 128,-1,19
 596 4 596 4 629 -18 c 1,20,21
 624 -29 624 -29 612 -39 c 128,-1,22
 600 -49 600 -49 586 -57.5 c 128,-1,23
 572 -66 572 -66 556.5 -71 c 128,-1,24
 541 -76 541 -76 528 -76 c 0,25,26
 502 -76 502 -76 480 -51.5 c 128,-1,27
 458 -27 458 -27 435.5 22.5 c 128,-1,28
 413 72 413 72 388.5 145.5 c 128,-1,29
 364 219 364 219 334 317 c 1,0,1
183 -81 m 1,30,31
 145 -72 145 -72 120 -49.5 c 128,-1,32
 95 -27 95 -27 74 7 c 1,33,34
 83 26 83 26 95.5 57 c 128,-1,35
 108 88 108 88 126 133.5 c 128,-1,36
 144 179 144 179 169 242.5 c 128,-1,37
 194 306 194 306 227 391 c 0,38,39
 248 445 248 445 261.5 482 c 128,-1,40
 275 519 275 519 284.5 554.5 c 128,-1,41
 294 590 294 590 303 633 c 128,-1,42
 312 676 312 676 324 742 c 1,43,44
 366 734 366 734 400.5 705 c 128,-1,45
 435 676 435 676 460 635 c 1,46,47
 449 621 449 621 434.5 592.5 c 128,-1,48
 420 564 420 564 402 524 c 128,-1,49
 384 484 384 484 362 435 c 128,-1,50
 340 386 340 386 316 331 c 0,51,52
 262 211 262 211 231 111.5 c 128,-1,53
 200 12 200 12 183 -81 c 1,30,31
241 -350 m 1,54,55
 235 -345 235 -345 230 -333.5 c 128,-1,56
 225 -322 225 -322 225 -312 c 1,57,58
 255 -277 255 -277 271.5 -242 c 128,-1,59
 288 -207 288 -207 288 -163 c 0,60,61
 288 -128 288 -128 276 -84 c 1,62,63
 301 -86 301 -86 325.5 -92.5 c 128,-1,64
 350 -99 350 -99 369.5 -108.5 c 128,-1,65
 389 -118 389 -118 402 -130.5 c 128,-1,66
 415 -143 415 -143 418 -155 c 1,67,68
 412 -178 412 -178 395.5 -205.5 c 128,-1,69
 379 -233 379 -233 356 -260 c 128,-1,70
 333 -287 333 -287 303.5 -311 c 128,-1,71
 274 -335 274 -335 241 -350 c 1,54,55
EndSplineSet
EndChar

StartChar: L
Encoding: 76 76 62
Width: 500
Flags: W
LayerCount: 2
Fore
SplineSet
473 57 m 1,0,1
 498 14 498 14 498 -26 c 0,2,3
 498 -35 498 -35 496.5 -42.5 c 128,-1,4
 495 -50 495 -50 493 -58 c 1,5,6
 476 -56 476 -56 457.5 -55 c 128,-1,7
 439 -54 439 -54 419 -54 c 0,8,9
 395 -54 395 -54 370.5 -55.5 c 128,-1,10
 346 -57 346 -57 316 -60 c 128,-1,11
 286 -63 286 -63 249 -68 c 128,-1,12
 212 -73 212 -73 163 -81 c 1,13,14
 140 -73 140 -73 117 -49.5 c 128,-1,15
 94 -26 94 -26 74 7 c 1,16,17
 84 29 84 29 99 61.5 c 128,-1,18
 114 94 114 94 134 140.5 c 128,-1,19
 154 187 154 187 178.5 249.5 c 128,-1,20
 203 312 203 312 231 394 c 0,21,22
 249 448 249 448 262 489 c 128,-1,23
 275 530 275 530 285.5 568.5 c 128,-1,24
 296 607 296 607 306 649 c 128,-1,25
 316 691 316 691 328 746 c 1,26,27
 368 738 368 738 397.5 716.5 c 128,-1,28
 427 695 427 695 454 655 c 1,29,30
 446 642 446 642 433 613 c 128,-1,31
 420 584 420 584 402.5 542.5 c 128,-1,32
 385 501 385 501 364 448.5 c 128,-1,33
 343 396 343 396 320 336 c 0,34,35
 298 277 298 277 277 225 c 128,-1,36
 256 173 256 173 239.5 131 c 128,-1,37
 223 89 223 89 213 59 c 128,-1,38
 203 29 203 29 203 14 c 1,39,40
 219 15 219 15 232 16 c 128,-1,41
 245 17 245 17 259 19.5 c 128,-1,42
 273 22 273 22 289.5 25.5 c 128,-1,43
 306 29 306 29 329 35 c 0,44,45
 349 40 349 40 366 43.5 c 128,-1,46
 383 47 383 47 399.5 49.5 c 128,-1,47
 416 52 416 52 433.5 53.5 c 128,-1,48
 451 55 451 55 473 57 c 1,0,1
EndSplineSet
EndChar

StartChar: Lacute
Encoding: 313 313 63
Width: 500
Flags: W
LayerCount: 2
Fore
SplineSet
473 57 m 1,0,1
 498 14 498 14 498 -26 c 0,2,3
 498 -35 498 -35 496.5 -42.5 c 128,-1,4
 495 -50 495 -50 493 -58 c 1,5,6
 476 -56 476 -56 457.5 -55 c 128,-1,7
 439 -54 439 -54 419 -54 c 0,8,9
 395 -54 395 -54 370.5 -55.5 c 128,-1,10
 346 -57 346 -57 316 -60 c 128,-1,11
 286 -63 286 -63 249 -68 c 128,-1,12
 212 -73 212 -73 163 -81 c 1,13,14
 140 -73 140 -73 117 -49.5 c 128,-1,15
 94 -26 94 -26 74 7 c 1,16,17
 84 29 84 29 99 61.5 c 128,-1,18
 114 94 114 94 134 140.5 c 128,-1,19
 154 187 154 187 178.5 249.5 c 128,-1,20
 203 312 203 312 231 394 c 0,21,22
 249 448 249 448 262 489 c 128,-1,23
 275 530 275 530 285.5 568.5 c 128,-1,24
 296 607 296 607 306 649 c 128,-1,25
 316 691 316 691 328 746 c 1,26,27
 368 738 368 738 397.5 716.5 c 128,-1,28
 427 695 427 695 454 655 c 1,29,30
 446 642 446 642 433 613 c 128,-1,31
 420 584 420 584 402.5 542.5 c 128,-1,32
 385 501 385 501 364 448.5 c 128,-1,33
 343 396 343 396 320 336 c 0,34,35
 298 277 298 277 277 225 c 128,-1,36
 256 173 256 173 239.5 131 c 128,-1,37
 223 89 223 89 213 59 c 128,-1,38
 203 29 203 29 203 14 c 1,39,40
 219 15 219 15 232 16 c 128,-1,41
 245 17 245 17 259 19.5 c 128,-1,42
 273 22 273 22 289.5 25.5 c 128,-1,43
 306 29 306 29 329 35 c 0,44,45
 349 40 349 40 366 43.5 c 128,-1,46
 383 47 383 47 399.5 49.5 c 128,-1,47
 416 52 416 52 433.5 53.5 c 128,-1,48
 451 55 451 55 473 57 c 1,0,1
527 883 m 1,49,50
 548 877 548 877 566.5 857 c 128,-1,51
 585 837 585 837 585 819 c 1,52,53
 547 803 547 803 518.5 792.5 c 128,-1,54
 490 782 490 782 467.5 775.5 c 128,-1,55
 445 769 445 769 428 766.5 c 128,-1,56
 411 764 411 764 395 764 c 0,57,58
 363 764 363 764 340 783 c 1,59,60
 385 793 385 793 435 819.5 c 128,-1,61
 485 846 485 846 527 883 c 1,49,50
EndSplineSet
EndChar

StartChar: Lcaron
Encoding: 317 317 64
Width: 500
Flags: W
LayerCount: 2
Fore
SplineSet
473 57 m 1,0,1
 498 14 498 14 498 -26 c 0,2,3
 498 -35 498 -35 496.5 -42.5 c 128,-1,4
 495 -50 495 -50 493 -58 c 1,5,6
 476 -56 476 -56 457.5 -55 c 128,-1,7
 439 -54 439 -54 419 -54 c 0,8,9
 395 -54 395 -54 370.5 -55.5 c 128,-1,10
 346 -57 346 -57 316 -60 c 128,-1,11
 286 -63 286 -63 249 -68 c 128,-1,12
 212 -73 212 -73 163 -81 c 1,13,14
 140 -73 140 -73 117 -49.5 c 128,-1,15
 94 -26 94 -26 74 7 c 1,16,17
 84 29 84 29 99 61.5 c 128,-1,18
 114 94 114 94 134 140.5 c 128,-1,19
 154 187 154 187 178.5 249.5 c 128,-1,20
 203 312 203 312 231 394 c 0,21,22
 249 448 249 448 262 489 c 128,-1,23
 275 530 275 530 285.5 568.5 c 128,-1,24
 296 607 296 607 306 649 c 128,-1,25
 316 691 316 691 328 746 c 1,26,27
 368 738 368 738 397.5 716.5 c 128,-1,28
 427 695 427 695 454 655 c 1,29,30
 446 642 446 642 433 613 c 128,-1,31
 420 584 420 584 402.5 542.5 c 128,-1,32
 385 501 385 501 364 448.5 c 128,-1,33
 343 396 343 396 320 336 c 0,34,35
 298 277 298 277 277 225 c 128,-1,36
 256 173 256 173 239.5 131 c 128,-1,37
 223 89 223 89 213 59 c 128,-1,38
 203 29 203 29 203 14 c 1,39,40
 219 15 219 15 232 16 c 128,-1,41
 245 17 245 17 259 19.5 c 128,-1,42
 273 22 273 22 289.5 25.5 c 128,-1,43
 306 29 306 29 329 35 c 0,44,45
 349 40 349 40 366 43.5 c 128,-1,46
 383 47 383 47 399.5 49.5 c 128,-1,47
 416 52 416 52 433.5 53.5 c 128,-1,48
 451 55 451 55 473 57 c 1,0,1
427 751 m 1,49,50
 412 759 412 759 398 761.5 c 128,-1,51
 384 764 384 764 374 764 c 1,52,53
 363 786 363 786 355 802 c 128,-1,54
 347 818 347 818 339 831 c 128,-1,55
 331 844 331 844 321 855.5 c 128,-1,56
 311 867 311 867 296 881 c 1,57,58
 304 883 304 883 307 883 c 128,-1,59
 310 883 310 883 313 883 c 0,60,61
 342 883 342 883 364.5 865.5 c 128,-1,62
 387 848 387 848 414 803 c 1,63,64
 444 835 444 835 475 855.5 c 128,-1,65
 506 876 506 876 528 883 c 1,66,67
 545 879 545 879 577 838 c 1,68,69
 545 827 545 827 506.5 808.5 c 128,-1,70
 468 790 468 790 427 751 c 1,49,50
EndSplineSet
EndChar

StartChar: Lcommaaccent
Encoding: 315 315 65
Width: 500
Flags: W
LayerCount: 2
Fore
SplineSet
473 57 m 1,0,1
 498 14 498 14 498 -26 c 0,2,3
 498 -35 498 -35 496.5 -42.5 c 128,-1,4
 495 -50 495 -50 493 -58 c 1,5,6
 476 -56 476 -56 457.5 -55 c 128,-1,7
 439 -54 439 -54 419 -54 c 0,8,9
 395 -54 395 -54 370.5 -55.5 c 128,-1,10
 346 -57 346 -57 316 -60 c 128,-1,11
 286 -63 286 -63 249 -68 c 128,-1,12
 212 -73 212 -73 163 -81 c 1,13,14
 140 -73 140 -73 117 -49.5 c 128,-1,15
 94 -26 94 -26 74 7 c 1,16,17
 84 29 84 29 99 61.5 c 128,-1,18
 114 94 114 94 134 140.5 c 128,-1,19
 154 187 154 187 178.5 249.5 c 128,-1,20
 203 312 203 312 231 394 c 0,21,22
 249 448 249 448 262 489 c 128,-1,23
 275 530 275 530 285.5 568.5 c 128,-1,24
 296 607 296 607 306 649 c 128,-1,25
 316 691 316 691 328 746 c 1,26,27
 368 738 368 738 397.5 716.5 c 128,-1,28
 427 695 427 695 454 655 c 1,29,30
 446 642 446 642 433 613 c 128,-1,31
 420 584 420 584 402.5 542.5 c 128,-1,32
 385 501 385 501 364 448.5 c 128,-1,33
 343 396 343 396 320 336 c 0,34,35
 298 277 298 277 277 225 c 128,-1,36
 256 173 256 173 239.5 131 c 128,-1,37
 223 89 223 89 213 59 c 128,-1,38
 203 29 203 29 203 14 c 1,39,40
 219 15 219 15 232 16 c 128,-1,41
 245 17 245 17 259 19.5 c 128,-1,42
 273 22 273 22 289.5 25.5 c 128,-1,43
 306 29 306 29 329 35 c 0,44,45
 349 40 349 40 366 43.5 c 128,-1,46
 383 47 383 47 399.5 49.5 c 128,-1,47
 416 52 416 52 433.5 53.5 c 128,-1,48
 451 55 451 55 473 57 c 1,0,1
231 -351 m 1,49,50
 225 -346 225 -346 220 -334.5 c 128,-1,51
 215 -323 215 -323 215 -313 c 1,52,53
 245 -278 245 -278 261.5 -243 c 128,-1,54
 278 -208 278 -208 278 -164 c 0,55,56
 278 -129 278 -129 266 -85 c 1,57,58
 291 -87 291 -87 315.5 -93.5 c 128,-1,59
 340 -100 340 -100 359.5 -109.5 c 128,-1,60
 379 -119 379 -119 392 -131.5 c 128,-1,61
 405 -144 405 -144 408 -156 c 1,62,63
 402 -179 402 -179 385.5 -206.5 c 128,-1,64
 369 -234 369 -234 346 -261 c 128,-1,65
 323 -288 323 -288 293.5 -312 c 128,-1,66
 264 -336 264 -336 231 -351 c 1,49,50
EndSplineSet
EndChar

StartChar: Ldot
Encoding: 319 319 66
Width: 501
Flags: W
LayerCount: 2
Fore
SplineSet
473 57 m 1,0,1
 498 14 498 14 498 -26 c 0,2,3
 498 -35 498 -35 496.5 -42.5 c 128,-1,4
 495 -50 495 -50 493 -58 c 1,5,6
 476 -56 476 -56 457.5 -55 c 128,-1,7
 439 -54 439 -54 419 -54 c 0,8,9
 395 -54 395 -54 370.5 -55.5 c 128,-1,10
 346 -57 346 -57 316 -60 c 128,-1,11
 286 -63 286 -63 249 -68 c 128,-1,12
 212 -73 212 -73 163 -81 c 1,13,14
 140 -73 140 -73 117 -49.5 c 128,-1,15
 94 -26 94 -26 74 7 c 1,16,17
 84 29 84 29 99 61.5 c 128,-1,18
 114 94 114 94 134 140.5 c 128,-1,19
 154 187 154 187 178.5 249.5 c 128,-1,20
 203 312 203 312 231 394 c 0,21,22
 249 448 249 448 262 489 c 128,-1,23
 275 530 275 530 285.5 568.5 c 128,-1,24
 296 607 296 607 306 649 c 128,-1,25
 316 691 316 691 328 746 c 1,26,27
 368 738 368 738 397.5 716.5 c 128,-1,28
 427 695 427 695 454 655 c 1,29,30
 446 642 446 642 433 613 c 128,-1,31
 420 584 420 584 402.5 542.5 c 128,-1,32
 385 501 385 501 364 448.5 c 128,-1,33
 343 396 343 396 320 336 c 0,34,35
 298 277 298 277 277 225 c 128,-1,36
 256 173 256 173 239.5 131 c 128,-1,37
 223 89 223 89 213 59 c 128,-1,38
 203 29 203 29 203 14 c 1,39,40
 219 15 219 15 232 16 c 128,-1,41
 245 17 245 17 259 19.5 c 128,-1,42
 273 22 273 22 289.5 25.5 c 128,-1,43
 306 29 306 29 329 35 c 0,44,45
 349 40 349 40 366 43.5 c 128,-1,46
 383 47 383 47 399.5 49.5 c 128,-1,47
 416 52 416 52 433.5 53.5 c 128,-1,48
 451 55 451 55 473 57 c 1,0,1
474 276 m 1,49,50
 461 278 461 278 446 288 c 128,-1,51
 431 298 431 298 427 309 c 1,52,53
 427 319 427 319 430 335 c 128,-1,54
 433 351 433 351 437.5 367 c 128,-1,55
 442 383 442 383 446 397.5 c 128,-1,56
 450 412 450 412 452 419 c 1,57,58
 461 419 461 419 476.5 414 c 128,-1,59
 492 409 492 409 508.5 400.5 c 128,-1,60
 525 392 525 392 539 381 c 128,-1,61
 553 370 553 370 561 358 c 1,62,63
 554 341 554 341 542 326 c 128,-1,64
 530 311 530 311 517.5 300 c 128,-1,65
 505 289 505 289 493 282.5 c 128,-1,66
 481 276 481 276 474 276 c 1,49,50
EndSplineSet
EndChar

StartChar: Lslash
Encoding: 321 321 67
Width: 515
Flags: W
LayerCount: 2
Fore
SplineSet
489 57 m 1,0,1
 514 14 514 14 514 -26 c 0,2,3
 514 -35 514 -35 512.5 -42.5 c 128,-1,4
 511 -50 511 -50 509 -58 c 1,5,6
 492 -56 492 -56 473.5 -55 c 128,-1,7
 455 -54 455 -54 435 -54 c 0,8,9
 411 -54 411 -54 386.5 -55.5 c 128,-1,10
 362 -57 362 -57 332 -60 c 128,-1,11
 302 -63 302 -63 265 -68 c 128,-1,12
 228 -73 228 -73 179 -81 c 1,13,14
 156 -73 156 -73 133 -49.5 c 128,-1,15
 110 -26 110 -26 90 7 c 1,16,17
 105 43 105 43 134 105.5 c 128,-1,18
 163 168 163 168 204 274 c 1,19,20
 182 266 182 266 160.5 260 c 128,-1,21
 139 254 139 254 117 249 c 1,22,23
 106 261 106 261 94.5 286.5 c 128,-1,24
 83 312 83 312 79 333 c 1,25,26
 120 341 120 341 159 349.5 c 128,-1,27
 198 358 198 358 238 369 c 1,28,29
 260 432 260 432 274.5 478 c 128,-1,30
 289 524 289 524 300.5 565.5 c 128,-1,31
 312 607 312 607 322 649 c 128,-1,32
 332 691 332 691 344 746 c 1,33,34
 384 738 384 738 413.5 716.5 c 128,-1,35
 443 695 443 695 470 655 c 1,36,37
 457 633 457 633 429 568 c 128,-1,38
 401 503 401 503 364 409 c 1,39,40
 401 423 401 423 438.5 438 c 128,-1,41
 476 453 476 453 518 472 c 1,42,43
 518 462 518 462 519 448 c 128,-1,44
 520 434 520 434 524 406 c 1,45,46
 473 386 473 386 426 365 c 128,-1,47
 379 344 379 344 331 324 c 1,48,49
 310 268 310 268 290 217.5 c 128,-1,50
 270 167 270 167 254 126.5 c 128,-1,51
 238 86 238 86 228.5 57 c 128,-1,52
 219 28 219 28 219 14 c 1,53,54
 235 15 235 15 248 16 c 128,-1,55
 261 17 261 17 275 19.5 c 128,-1,56
 289 22 289 22 305.5 25.5 c 128,-1,57
 322 29 322 29 345 35 c 0,58,59
 365 40 365 40 382 43.5 c 128,-1,60
 399 47 399 47 415.5 49.5 c 128,-1,61
 432 52 432 52 449.5 53.5 c 128,-1,62
 467 55 467 55 489 57 c 1,0,1
EndSplineSet
EndChar

StartChar: M
Encoding: 77 77 68
Width: 942
Flags: W
LayerCount: 2
Fore
SplineSet
514 -74 m 1,0,1
 512 -75 512 -75 510 -75 c 128,-1,2
 508 -75 508 -75 502 -75 c 0,3,4
 488 -75 488 -75 469.5 -70.5 c 128,-1,5
 451 -66 451 -66 433.5 -59.5 c 128,-1,6
 416 -53 416 -53 403.5 -45 c 128,-1,7
 391 -37 391 -37 388 -31 c 1,8,9
 387 -17 387 -17 387 -2 c 128,-1,10
 387 13 387 13 387 27 c 0,11,12
 387 139 387 139 403.5 261 c 128,-1,13
 420 383 420 383 458 525 c 0,14,15
 462 539 462 539 466.5 560.5 c 128,-1,16
 471 582 471 582 476 607 c 1,17,18
 452 588 452 588 419 546.5 c 128,-1,19
 386 505 386 505 349.5 448.5 c 128,-1,20
 313 392 313 392 276.5 324.5 c 128,-1,21
 240 257 240 257 210 187.5 c 128,-1,22
 180 118 180 118 158.5 50 c 128,-1,23
 137 -18 137 -18 132 -76 c 1,24,25
 84 -62 84 -62 65.5 -48 c 128,-1,26
 47 -34 47 -34 47 -14 c 0,27,28
 47 4 47 4 58 37 c 128,-1,29
 69 70 69 70 89 115 c 128,-1,30
 109 160 109 160 138 215.5 c 128,-1,31
 167 271 167 271 202 335 c 0,32,33
 242 408 242 408 280.5 472 c 128,-1,34
 319 536 319 536 356 588 c 128,-1,35
 393 640 393 640 428.5 678 c 128,-1,36
 464 716 464 716 499 736 c 1,37,38
 513 736 513 736 536.5 729 c 128,-1,39
 560 722 560 722 582.5 712 c 128,-1,40
 605 702 605 702 622.5 691.5 c 128,-1,41
 640 681 640 681 642 674 c 1,42,43
 628 646 628 646 609 590 c 128,-1,44
 590 534 590 534 570.5 463 c 128,-1,45
 551 392 551 392 533.5 312.5 c 128,-1,46
 516 233 516 233 506 160 c 1,47,48
 529 215 529 215 559.5 274.5 c 128,-1,49
 590 334 590 334 624 392.5 c 128,-1,50
 658 451 658 451 693.5 506 c 128,-1,51
 729 561 729 561 763 606.5 c 128,-1,52
 797 652 797 652 826.5 686 c 128,-1,53
 856 720 856 720 879 736 c 1,54,55
 893 736 893 736 916.5 729 c 128,-1,56
 940 722 940 722 962.5 712 c 128,-1,57
 985 702 985 702 1002.5 691.5 c 128,-1,58
 1020 681 1020 681 1022 674 c 1,59,60
 990 617 990 617 966 535 c 128,-1,61
 942 453 942 453 925.5 363 c 128,-1,62
 909 273 909 273 900.5 184.5 c 128,-1,63
 892 96 892 96 892 26 c 0,64,65
 892 3 892 3 892 -22 c 128,-1,66
 892 -47 892 -47 894 -74 c 1,67,68
 880 -74 880 -74 860.5 -70.5 c 128,-1,69
 841 -67 841 -67 822.5 -61 c 128,-1,70
 804 -55 804 -55 789 -47.5 c 128,-1,71
 774 -40 774 -40 768 -31 c 1,72,73
 767 -17 767 -17 767 -2 c 128,-1,74
 767 13 767 13 767 27 c 0,75,76
 767 139 767 139 783.5 261 c 128,-1,77
 800 383 800 383 838 525 c 0,78,79
 842 539 842 539 847 563 c 128,-1,80
 852 587 852 587 857 613 c 1,81,82
 829 599 829 599 793.5 559.5 c 128,-1,83
 758 520 758 520 721.5 463.5 c 128,-1,84
 685 407 685 407 649.5 338 c 128,-1,85
 614 269 614 269 585.5 197.5 c 128,-1,86
 557 126 557 126 537.5 55.5 c 128,-1,87
 518 -15 518 -15 514 -74 c 1,0,1
EndSplineSet
EndChar

StartChar: N
Encoding: 78 78 69
Width: 683
Flags: W
LayerCount: 2
Fore
SplineSet
190 -76 m 1,0,1
 133 -59 133 -59 113 -43.5 c 128,-1,2
 93 -28 93 -28 93 -1 c 0,3,4
 93 29 93 29 107 83.5 c 128,-1,5
 121 138 121 138 143.5 205 c 128,-1,6
 166 272 166 272 195 345 c 128,-1,7
 224 418 224 418 254 485 c 128,-1,8
 284 552 284 552 312.5 607.5 c 128,-1,9
 341 663 341 663 363 694 c 1,10,-1
 356 736 l 1,11,12
 370 736 370 736 395 729 c 128,-1,13
 420 722 420 722 445.5 712 c 128,-1,14
 471 702 471 702 490.5 691.5 c 128,-1,15
 510 681 510 681 512 674 c 1,16,17
 507 650 507 650 504 601.5 c 128,-1,18
 501 553 501 553 501 498 c 0,19,20
 501 389 501 389 509.5 284.5 c 128,-1,21
 518 180 518 180 549 72 c 1,22,23
 565 152 565 152 583.5 231.5 c 128,-1,24
 602 311 602 311 622 383.5 c 128,-1,25
 642 456 642 456 662 518 c 128,-1,26
 682 580 682 580 700.5 626.5 c 128,-1,27
 719 673 719 673 735 699.5 c 128,-1,28
 751 726 751 726 764 728 c 1,29,30
 775 726 775 726 788 719.5 c 128,-1,31
 801 713 801 713 813 704 c 128,-1,32
 825 695 825 695 835 684 c 128,-1,33
 845 673 845 673 851 662 c 1,34,35
 819 649 819 649 787.5 601 c 128,-1,36
 756 553 756 553 727.5 484.5 c 128,-1,37
 699 416 699 416 674.5 336 c 128,-1,38
 650 256 650 256 631.5 178.5 c 128,-1,39
 613 101 613 101 602.5 35 c 128,-1,40
 592 -31 592 -31 591 -71 c 0,41,42
 591 -73 591 -73 592 -74 c 1,43,44
 589 -75 589 -75 585.5 -75 c 128,-1,45
 582 -75 582 -75 579 -75 c 0,46,47
 533 -75 533 -75 497.5 -63.5 c 128,-1,48
 462 -52 462 -52 451 -31 c 1,49,50
 430 53 430 53 416 131 c 128,-1,51
 402 209 402 209 392.5 287 c 128,-1,52
 383 365 383 365 377.5 444.5 c 128,-1,53
 372 524 372 524 369 611 c 1,54,55
 350 581 350 581 329 532.5 c 128,-1,56
 308 484 308 484 288 426 c 128,-1,57
 268 368 268 368 249.5 304 c 128,-1,58
 231 240 231 240 217 179 c 128,-1,59
 203 118 203 118 195 63.5 c 128,-1,60
 187 9 187 9 187 -31 c 0,61,62
 187 -52 187 -52 187.5 -61 c 128,-1,63
 188 -70 188 -70 190 -76 c 1,0,1
EndSplineSet
EndChar

StartChar: Nacute
Encoding: 323 323 71
Width: 683
Flags: W
LayerCount: 2
Fore
SplineSet
190 -76 m 1,0,1
 133 -59 133 -59 113 -43.5 c 128,-1,2
 93 -28 93 -28 93 -1 c 0,3,4
 93 29 93 29 107 83.5 c 128,-1,5
 121 138 121 138 143.5 205 c 128,-1,6
 166 272 166 272 195 345 c 128,-1,7
 224 418 224 418 254 485 c 128,-1,8
 284 552 284 552 312.5 607.5 c 128,-1,9
 341 663 341 663 363 694 c 1,10,-1
 356 736 l 1,11,12
 370 736 370 736 395 729 c 128,-1,13
 420 722 420 722 445.5 712 c 128,-1,14
 471 702 471 702 490.5 691.5 c 128,-1,15
 510 681 510 681 512 674 c 1,16,17
 507 650 507 650 504 601.5 c 128,-1,18
 501 553 501 553 501 498 c 0,19,20
 501 389 501 389 509.5 284.5 c 128,-1,21
 518 180 518 180 549 72 c 1,22,23
 565 152 565 152 583.5 231.5 c 128,-1,24
 602 311 602 311 622 383.5 c 128,-1,25
 642 456 642 456 662 518 c 128,-1,26
 682 580 682 580 700.5 626.5 c 128,-1,27
 719 673 719 673 735 699.5 c 128,-1,28
 751 726 751 726 764 728 c 1,29,30
 775 726 775 726 788 719.5 c 128,-1,31
 801 713 801 713 813 704 c 128,-1,32
 825 695 825 695 835 684 c 128,-1,33
 845 673 845 673 851 662 c 1,34,35
 819 649 819 649 787.5 601 c 128,-1,36
 756 553 756 553 727.5 484.5 c 128,-1,37
 699 416 699 416 674.5 336 c 128,-1,38
 650 256 650 256 631.5 178.5 c 128,-1,39
 613 101 613 101 602.5 35 c 128,-1,40
 592 -31 592 -31 591 -71 c 0,41,42
 591 -73 591 -73 592 -74 c 1,43,44
 589 -75 589 -75 585.5 -75 c 128,-1,45
 582 -75 582 -75 579 -75 c 0,46,47
 533 -75 533 -75 497.5 -63.5 c 128,-1,48
 462 -52 462 -52 451 -31 c 1,49,50
 430 53 430 53 416 131 c 128,-1,51
 402 209 402 209 392.5 287 c 128,-1,52
 383 365 383 365 377.5 444.5 c 128,-1,53
 372 524 372 524 369 611 c 1,54,55
 350 581 350 581 329 532.5 c 128,-1,56
 308 484 308 484 288 426 c 128,-1,57
 268 368 268 368 249.5 304 c 128,-1,58
 231 240 231 240 217 179 c 128,-1,59
 203 118 203 118 195 63.5 c 128,-1,60
 187 9 187 9 187 -31 c 0,61,62
 187 -52 187 -52 187.5 -61 c 128,-1,63
 188 -70 188 -70 190 -76 c 1,0,1
714 883 m 1,64,65
 735 877 735 877 753.5 857 c 128,-1,66
 772 837 772 837 772 819 c 1,67,68
 734 803 734 803 705.5 792.5 c 128,-1,69
 677 782 677 782 654.5 775.5 c 128,-1,70
 632 769 632 769 615 766.5 c 128,-1,71
 598 764 598 764 582 764 c 0,72,73
 550 764 550 764 527 783 c 1,74,75
 572 793 572 793 622 819.5 c 128,-1,76
 672 846 672 846 714 883 c 1,64,65
EndSplineSet
EndChar

StartChar: Ncaron
Encoding: 327 327 72
Width: 683
Flags: W
LayerCount: 2
Fore
SplineSet
190 -76 m 1,0,1
 133 -59 133 -59 113 -43.5 c 128,-1,2
 93 -28 93 -28 93 -1 c 0,3,4
 93 29 93 29 107 83.5 c 128,-1,5
 121 138 121 138 143.5 205 c 128,-1,6
 166 272 166 272 195 345 c 128,-1,7
 224 418 224 418 254 485 c 128,-1,8
 284 552 284 552 312.5 607.5 c 128,-1,9
 341 663 341 663 363 694 c 1,10,-1
 356 736 l 1,11,12
 370 736 370 736 395 729 c 128,-1,13
 420 722 420 722 445.5 712 c 128,-1,14
 471 702 471 702 490.5 691.5 c 128,-1,15
 510 681 510 681 512 674 c 1,16,17
 507 650 507 650 504 601.5 c 128,-1,18
 501 553 501 553 501 498 c 0,19,20
 501 389 501 389 509.5 284.5 c 128,-1,21
 518 180 518 180 549 72 c 1,22,23
 565 152 565 152 583.5 231.5 c 128,-1,24
 602 311 602 311 622 383.5 c 128,-1,25
 642 456 642 456 662 518 c 128,-1,26
 682 580 682 580 700.5 626.5 c 128,-1,27
 719 673 719 673 735 699.5 c 128,-1,28
 751 726 751 726 764 728 c 1,29,30
 775 726 775 726 788 719.5 c 128,-1,31
 801 713 801 713 813 704 c 128,-1,32
 825 695 825 695 835 684 c 128,-1,33
 845 673 845 673 851 662 c 1,34,35
 819 649 819 649 787.5 601 c 128,-1,36
 756 553 756 553 727.5 484.5 c 128,-1,37
 699 416 699 416 674.5 336 c 128,-1,38
 650 256 650 256 631.5 178.5 c 128,-1,39
 613 101 613 101 602.5 35 c 128,-1,40
 592 -31 592 -31 591 -71 c 0,41,42
 591 -73 591 -73 592 -74 c 1,43,44
 589 -75 589 -75 585.5 -75 c 128,-1,45
 582 -75 582 -75 579 -75 c 0,46,47
 533 -75 533 -75 497.5 -63.5 c 128,-1,48
 462 -52 462 -52 451 -31 c 1,49,50
 430 53 430 53 416 131 c 128,-1,51
 402 209 402 209 392.5 287 c 128,-1,52
 383 365 383 365 377.5 444.5 c 128,-1,53
 372 524 372 524 369 611 c 1,54,55
 350 581 350 581 329 532.5 c 128,-1,56
 308 484 308 484 288 426 c 128,-1,57
 268 368 268 368 249.5 304 c 128,-1,58
 231 240 231 240 217 179 c 128,-1,59
 203 118 203 118 195 63.5 c 128,-1,60
 187 9 187 9 187 -31 c 0,61,62
 187 -52 187 -52 187.5 -61 c 128,-1,63
 188 -70 188 -70 190 -76 c 1,0,1
614 751 m 1,64,65
 599 759 599 759 585 761.5 c 128,-1,66
 571 764 571 764 561 764 c 1,67,68
 550 786 550 786 542 802 c 128,-1,69
 534 818 534 818 526 831 c 128,-1,70
 518 844 518 844 508 855.5 c 128,-1,71
 498 867 498 867 483 881 c 1,72,73
 491 883 491 883 494 883 c 128,-1,74
 497 883 497 883 500 883 c 0,75,76
 529 883 529 883 551.5 865.5 c 128,-1,77
 574 848 574 848 601 803 c 1,78,79
 631 835 631 835 662 855.5 c 128,-1,80
 693 876 693 876 715 883 c 1,81,82
 732 879 732 879 764 838 c 1,83,84
 732 827 732 827 693.5 808.5 c 128,-1,85
 655 790 655 790 614 751 c 1,64,65
EndSplineSet
EndChar

StartChar: Ncommaaccent
Encoding: 325 325 73
Width: 683
Flags: W
LayerCount: 2
Fore
SplineSet
190 -76 m 1,0,1
 133 -59 133 -59 113 -43.5 c 128,-1,2
 93 -28 93 -28 93 -1 c 0,3,4
 93 29 93 29 107 83.5 c 128,-1,5
 121 138 121 138 143.5 205 c 128,-1,6
 166 272 166 272 195 345 c 128,-1,7
 224 418 224 418 254 485 c 128,-1,8
 284 552 284 552 312.5 607.5 c 128,-1,9
 341 663 341 663 363 694 c 1,10,-1
 356 736 l 1,11,12
 370 736 370 736 395 729 c 128,-1,13
 420 722 420 722 445.5 712 c 128,-1,14
 471 702 471 702 490.5 691.5 c 128,-1,15
 510 681 510 681 512 674 c 1,16,17
 507 650 507 650 504 601.5 c 128,-1,18
 501 553 501 553 501 498 c 0,19,20
 501 389 501 389 509.5 284.5 c 128,-1,21
 518 180 518 180 549 72 c 1,22,23
 565 152 565 152 583.5 231.5 c 128,-1,24
 602 311 602 311 622 383.5 c 128,-1,25
 642 456 642 456 662 518 c 128,-1,26
 682 580 682 580 700.5 626.5 c 128,-1,27
 719 673 719 673 735 699.5 c 128,-1,28
 751 726 751 726 764 728 c 1,29,30
 775 726 775 726 788 719.5 c 128,-1,31
 801 713 801 713 813 704 c 128,-1,32
 825 695 825 695 835 684 c 128,-1,33
 845 673 845 673 851 662 c 1,34,35
 819 649 819 649 787.5 601 c 128,-1,36
 756 553 756 553 727.5 484.5 c 128,-1,37
 699 416 699 416 674.5 336 c 128,-1,38
 650 256 650 256 631.5 178.5 c 128,-1,39
 613 101 613 101 602.5 35 c 128,-1,40
 592 -31 592 -31 591 -71 c 0,41,42
 591 -73 591 -73 592 -74 c 1,43,44
 589 -75 589 -75 585.5 -75 c 128,-1,45
 582 -75 582 -75 579 -75 c 0,46,47
 533 -75 533 -75 497.5 -63.5 c 128,-1,48
 462 -52 462 -52 451 -31 c 1,49,50
 430 53 430 53 416 131 c 128,-1,51
 402 209 402 209 392.5 287 c 128,-1,52
 383 365 383 365 377.5 444.5 c 128,-1,53
 372 524 372 524 369 611 c 1,54,55
 350 581 350 581 329 532.5 c 128,-1,56
 308 484 308 484 288 426 c 128,-1,57
 268 368 268 368 249.5 304 c 128,-1,58
 231 240 231 240 217 179 c 128,-1,59
 203 118 203 118 195 63.5 c 128,-1,60
 187 9 187 9 187 -31 c 0,61,62
 187 -52 187 -52 187.5 -61 c 128,-1,63
 188 -70 188 -70 190 -76 c 1,0,1
247 -350 m 1,64,65
 241 -345 241 -345 236 -333.5 c 128,-1,66
 231 -322 231 -322 231 -312 c 1,67,68
 261 -277 261 -277 277.5 -242 c 128,-1,69
 294 -207 294 -207 294 -163 c 0,70,71
 294 -128 294 -128 282 -84 c 1,72,73
 307 -86 307 -86 331.5 -92.5 c 128,-1,74
 356 -99 356 -99 375.5 -108.5 c 128,-1,75
 395 -118 395 -118 408 -130.5 c 128,-1,76
 421 -143 421 -143 424 -155 c 1,77,78
 418 -178 418 -178 401.5 -205.5 c 128,-1,79
 385 -233 385 -233 362 -260 c 128,-1,80
 339 -287 339 -287 309.5 -311 c 128,-1,81
 280 -335 280 -335 247 -350 c 1,64,65
EndSplineSet
EndChar

StartChar: Ndotaccent
Encoding: 7748 7748 74
Width: 683
Flags: W
LayerCount: 2
Fore
SplineSet
190 -76 m 1,0,1
 133 -59 133 -59 113 -43.5 c 128,-1,2
 93 -28 93 -28 93 -1 c 0,3,4
 93 29 93 29 107 83.5 c 128,-1,5
 121 138 121 138 143.5 205 c 128,-1,6
 166 272 166 272 195 345 c 128,-1,7
 224 418 224 418 254 485 c 128,-1,8
 284 552 284 552 312.5 607.5 c 128,-1,9
 341 663 341 663 363 694 c 1,10,-1
 356 736 l 1,11,12
 370 736 370 736 395 729 c 128,-1,13
 420 722 420 722 445.5 712 c 128,-1,14
 471 702 471 702 490.5 691.5 c 128,-1,15
 510 681 510 681 512 674 c 1,16,17
 507 650 507 650 504 601.5 c 128,-1,18
 501 553 501 553 501 498 c 0,19,20
 501 389 501 389 509.5 284.5 c 128,-1,21
 518 180 518 180 549 72 c 1,22,23
 565 152 565 152 583.5 231.5 c 128,-1,24
 602 311 602 311 622 383.5 c 128,-1,25
 642 456 642 456 662 518 c 128,-1,26
 682 580 682 580 700.5 626.5 c 128,-1,27
 719 673 719 673 735 699.5 c 128,-1,28
 751 726 751 726 764 728 c 1,29,30
 775 726 775 726 788 719.5 c 128,-1,31
 801 713 801 713 813 704 c 128,-1,32
 825 695 825 695 835 684 c 128,-1,33
 845 673 845 673 851 662 c 1,34,35
 819 649 819 649 787.5 601 c 128,-1,36
 756 553 756 553 727.5 484.5 c 128,-1,37
 699 416 699 416 674.5 336 c 128,-1,38
 650 256 650 256 631.5 178.5 c 128,-1,39
 613 101 613 101 602.5 35 c 128,-1,40
 592 -31 592 -31 591 -71 c 0,41,42
 591 -73 591 -73 592 -74 c 1,43,44
 589 -75 589 -75 585.5 -75 c 128,-1,45
 582 -75 582 -75 579 -75 c 0,46,47
 533 -75 533 -75 497.5 -63.5 c 128,-1,48
 462 -52 462 -52 451 -31 c 1,49,50
 430 53 430 53 416 131 c 128,-1,51
 402 209 402 209 392.5 287 c 128,-1,52
 383 365 383 365 377.5 444.5 c 128,-1,53
 372 524 372 524 369 611 c 1,54,55
 350 581 350 581 329 532.5 c 128,-1,56
 308 484 308 484 288 426 c 128,-1,57
 268 368 268 368 249.5 304 c 128,-1,58
 231 240 231 240 217 179 c 128,-1,59
 203 118 203 118 195 63.5 c 128,-1,60
 187 9 187 9 187 -31 c 0,61,62
 187 -52 187 -52 187.5 -61 c 128,-1,63
 188 -70 188 -70 190 -76 c 1,0,1
589 791 m 0,64,65
 589 797 589 797 592 809 c 1,66,67
 577 824 577 824 577 849 c 0,68,69
 577 865 577 865 582 883 c 1,70,71
 594 883 594 883 611 881 c 128,-1,72
 628 879 628 879 645 876 c 128,-1,73
 662 873 662 873 677 868.5 c 128,-1,74
 692 864 692 864 700 860 c 1,75,76
 692 855 692 855 680.5 842 c 128,-1,77
 669 829 669 829 657.5 814 c 128,-1,78
 646 799 646 799 636.5 785 c 128,-1,79
 627 771 627 771 624 764 c 1,80,81
 611 766 611 766 600 774.5 c 128,-1,82
 589 783 589 783 589 791 c 0,64,65
EndSplineSet
EndChar

StartChar: Ntilde
Encoding: 209 209 75
Width: 683
Flags: W
LayerCount: 2
Fore
SplineSet
190 -76 m 1,0,1
 133 -59 133 -59 113 -43.5 c 128,-1,2
 93 -28 93 -28 93 -1 c 0,3,4
 93 29 93 29 107 83.5 c 128,-1,5
 121 138 121 138 143.5 205 c 128,-1,6
 166 272 166 272 195 345 c 128,-1,7
 224 418 224 418 254 485 c 128,-1,8
 284 552 284 552 312.5 607.5 c 128,-1,9
 341 663 341 663 363 694 c 1,10,-1
 356 736 l 1,11,12
 370 736 370 736 395 729 c 128,-1,13
 420 722 420 722 445.5 712 c 128,-1,14
 471 702 471 702 490.5 691.5 c 128,-1,15
 510 681 510 681 512 674 c 1,16,17
 507 650 507 650 504 601.5 c 128,-1,18
 501 553 501 553 501 498 c 0,19,20
 501 389 501 389 509.5 284.5 c 128,-1,21
 518 180 518 180 549 72 c 1,22,23
 565 152 565 152 583.5 231.5 c 128,-1,24
 602 311 602 311 622 383.5 c 128,-1,25
 642 456 642 456 662 518 c 128,-1,26
 682 580 682 580 700.5 626.5 c 128,-1,27
 719 673 719 673 735 699.5 c 128,-1,28
 751 726 751 726 764 728 c 1,29,30
 775 726 775 726 788 719.5 c 128,-1,31
 801 713 801 713 813 704 c 128,-1,32
 825 695 825 695 835 684 c 128,-1,33
 845 673 845 673 851 662 c 1,34,35
 819 649 819 649 787.5 601 c 128,-1,36
 756 553 756 553 727.5 484.5 c 128,-1,37
 699 416 699 416 674.5 336 c 128,-1,38
 650 256 650 256 631.5 178.5 c 128,-1,39
 613 101 613 101 602.5 35 c 128,-1,40
 592 -31 592 -31 591 -71 c 0,41,42
 591 -73 591 -73 592 -74 c 1,43,44
 589 -75 589 -75 585.5 -75 c 128,-1,45
 582 -75 582 -75 579 -75 c 0,46,47
 533 -75 533 -75 497.5 -63.5 c 128,-1,48
 462 -52 462 -52 451 -31 c 1,49,50
 430 53 430 53 416 131 c 128,-1,51
 402 209 402 209 392.5 287 c 128,-1,52
 383 365 383 365 377.5 444.5 c 128,-1,53
 372 524 372 524 369 611 c 1,54,55
 350 581 350 581 329 532.5 c 128,-1,56
 308 484 308 484 288 426 c 128,-1,57
 268 368 268 368 249.5 304 c 128,-1,58
 231 240 231 240 217 179 c 128,-1,59
 203 118 203 118 195 63.5 c 128,-1,60
 187 9 187 9 187 -31 c 0,61,62
 187 -52 187 -52 187.5 -61 c 128,-1,63
 188 -70 188 -70 190 -76 c 1,0,1
443 853 m 1,64,65
 490 837 490 837 535 837 c 0,66,67
 573 837 573 837 614 848 c 128,-1,68
 655 859 655 859 706 883 c 1,69,70
 718 871 718 871 727 846 c 128,-1,71
 736 821 736 821 740 803 c 1,72,73
 695 782 695 782 657 776.5 c 128,-1,74
 619 771 619 771 586 771 c 0,75,76
 524 771 524 771 487 794.5 c 128,-1,77
 450 818 450 818 443 853 c 1,64,65
EndSplineSet
EndChar

StartChar: O
Encoding: 79 79 76
Width: 723
Flags: W
LayerCount: 2
Fore
SplineSet
562 728 m 0,0,1
 581 720 581 720 601 707.5 c 128,-1,2
 621 695 621 695 638 682 c 128,-1,3
 655 669 655 669 666.5 656.5 c 128,-1,4
 678 644 678 644 679 636 c 1,5,6
 662 640 662 640 645 641.5 c 128,-1,7
 628 643 628 643 614 643 c 0,8,9
 569 643 569 643 524.5 621 c 128,-1,10
 480 599 480 599 440 561 c 128,-1,11
 400 523 400 523 366 472 c 128,-1,12
 332 421 332 421 307.5 363 c 128,-1,13
 283 305 283 305 269 243 c 128,-1,14
 255 181 255 181 255 121 c 0,15,16
 255 43 255 43 281 5 c 128,-1,17
 307 -33 307 -33 357 -33 c 0,18,19
 381 -33 381 -33 409 -23.5 c 128,-1,20
 437 -14 437 -14 466 3 c 128,-1,21
 495 20 495 20 523 44 c 128,-1,22
 551 68 551 68 575 97 c 0,23,24
 610 139 610 139 638 192.5 c 128,-1,25
 666 246 666 246 685.5 306 c 128,-1,26
 705 366 705 366 715.5 429.5 c 128,-1,27
 726 493 726 493 726 554 c 0,28,29
 726 578 726 578 725 594.5 c 128,-1,30
 724 611 724 611 722.5 622.5 c 128,-1,31
 721 634 721 634 720 641 c 128,-1,32
 719 648 719 648 718 653 c 1,33,34
 730 647 730 647 744.5 638.5 c 128,-1,35
 759 630 759 630 771.5 613.5 c 128,-1,36
 784 597 784 597 792.5 570 c 128,-1,37
 801 543 801 543 801 500 c 0,38,39
 801 430 801 430 784.5 362.5 c 128,-1,40
 768 295 768 295 738.5 234 c 128,-1,41
 709 173 709 173 669 120 c 128,-1,42
 629 67 629 67 583 27 c 0,43,44
 523 -26 523 -26 455 -55 c 128,-1,45
 387 -84 387 -84 324 -84 c 0,46,47
 232 -84 232 -84 183.5 -25.5 c 128,-1,48
 135 33 135 33 135 147 c 0,49,50
 135 208 135 208 148.5 276 c 128,-1,51
 162 344 162 344 186.5 410 c 128,-1,52
 211 476 211 476 245 535.5 c 128,-1,53
 279 595 279 595 319.5 640.5 c 128,-1,54
 360 686 360 686 406.5 713 c 128,-1,55
 453 740 453 740 502 740 c 0,56,57
 518 740 518 740 532 737.5 c 128,-1,58
 546 735 546 735 562 728 c 0,0,1
EndSplineSet
EndChar

StartChar: OE
Encoding: 338 338 77
Width: 978
Flags: W
LayerCount: 2
Fore
SplineSet
872 426 m 0,0,1
 905 426 905 426 923.5 408 c 128,-1,2
 942 390 942 390 942 358 c 0,3,4
 942 350 942 350 940.5 341.5 c 128,-1,5
 939 333 939 333 937 327 c 1,6,7
 924 329 924 329 908 330.5 c 128,-1,8
 892 332 892 332 870 332 c 0,9,10
 830 332 830 332 789.5 325.5 c 128,-1,11
 749 319 749 319 711 314 c 1,12,13
 688 260 688 260 669 210.5 c 128,-1,14
 650 161 650 161 636 119.5 c 128,-1,15
 622 78 622 78 614.5 48 c 128,-1,16
 607 18 607 18 606 3 c 1,17,18
 687 20 687 20 769.5 32 c 128,-1,19
 852 44 852 44 943 50 c 1,20,21
 954 33 954 33 961.5 13 c 128,-1,22
 969 -7 969 -7 969 -30 c 0,23,24
 969 -36 969 -36 969 -43 c 128,-1,25
 969 -50 969 -50 967 -57 c 1,26,27
 939 -56 939 -56 908 -55.5 c 128,-1,28
 877 -55 877 -55 827 -55 c 0,29,30
 794 -55 794 -55 764.5 -56.5 c 128,-1,31
 735 -58 735 -58 705 -61 c 128,-1,32
 675 -64 675 -64 641.5 -69 c 128,-1,33
 608 -74 608 -74 566 -81 c 1,34,35
 534 -68 534 -68 503 -30 c 1,36,37
 458 -56 458 -56 412.5 -70 c 128,-1,38
 367 -84 367 -84 324 -84 c 0,39,40
 232 -84 232 -84 183.5 -25.5 c 128,-1,41
 135 33 135 33 135 147 c 0,42,43
 135 208 135 208 148.5 276 c 128,-1,44
 162 344 162 344 186.5 410 c 128,-1,45
 211 476 211 476 245 535.5 c 128,-1,46
 279 595 279 595 319.5 640.5 c 128,-1,47
 360 686 360 686 406.5 713 c 128,-1,48
 453 740 453 740 502 740 c 0,49,50
 518 740 518 740 532 737.5 c 128,-1,51
 546 735 546 735 562 728 c 0,52,53
 595 714 595 714 627 690 c 1,54,55
 629 698 629 698 631 706 c 128,-1,56
 633 714 633 714 635 720 c 1,57,58
 655 717 655 717 673.5 716 c 128,-1,59
 692 715 692 715 722 715 c 0,60,61
 785 715 785 715 840 718.5 c 128,-1,62
 895 722 895 722 939.5 726 c 128,-1,63
 984 730 984 730 1016 733.5 c 128,-1,64
 1048 737 1048 737 1065 737 c 0,65,66
 1088 737 1088 737 1106 710.5 c 128,-1,67
 1124 684 1124 684 1133 635 c 1,68,69
 1102 638 1102 638 1082.5 639 c 128,-1,70
 1063 640 1063 640 1048 640 c 0,71,72
 991 640 991 640 944 634.5 c 128,-1,73
 897 629 897 629 854 622 c 1,74,75
 848 613 848 613 841 599.5 c 128,-1,76
 834 586 834 586 823 562.5 c 128,-1,77
 812 539 812 539 796 503.5 c 128,-1,78
 780 468 780 468 756 415 c 1,79,80
 790 420 790 420 820.5 423 c 128,-1,81
 851 426 851 426 872 426 c 0,0,1
357 -33 m 0,82,83
 384 -33 384 -33 415.5 -21 c 128,-1,84
 447 -9 447 -9 479 11 c 1,85,86
 496 48 496 48 526 120.5 c 128,-1,87
 556 193 556 193 601 311 c 1,88,89
 548 322 548 322 532 363 c 1,90,91
 538 369 538 369 565.5 377 c 128,-1,92
 593 385 593 385 632 393 c 1,93,94
 646 430 646 430 656 458 c 128,-1,95
 666 486 666 486 674 510.5 c 128,-1,96
 682 535 682 535 688 558 c 128,-1,97
 694 581 694 581 700 607 c 1,98,99
 656 612 656 612 638 642 c 1,100,101
 631 642 631 642 625 642.5 c 128,-1,102
 619 643 619 643 614 643 c 0,103,104
 569 643 569 643 524.5 621 c 128,-1,105
 480 599 480 599 440 561 c 128,-1,106
 400 523 400 523 366 472 c 128,-1,107
 332 421 332 421 307.5 363 c 128,-1,108
 283 305 283 305 269 243 c 128,-1,109
 255 181 255 181 255 121 c 0,110,111
 255 43 255 43 281 5 c 128,-1,112
 307 -33 307 -33 357 -33 c 0,82,83
EndSplineSet
EndChar

StartChar: Oacute
Encoding: 211 211 78
Width: 723
Flags: W
LayerCount: 2
Fore
SplineSet
562 728 m 0,0,1
 581 720 581 720 601 707.5 c 128,-1,2
 621 695 621 695 638 682 c 128,-1,3
 655 669 655 669 666.5 656.5 c 128,-1,4
 678 644 678 644 679 636 c 1,5,6
 662 640 662 640 645 641.5 c 128,-1,7
 628 643 628 643 614 643 c 0,8,9
 569 643 569 643 524.5 621 c 128,-1,10
 480 599 480 599 440 561 c 128,-1,11
 400 523 400 523 366 472 c 128,-1,12
 332 421 332 421 307.5 363 c 128,-1,13
 283 305 283 305 269 243 c 128,-1,14
 255 181 255 181 255 121 c 0,15,16
 255 43 255 43 281 5 c 128,-1,17
 307 -33 307 -33 357 -33 c 0,18,19
 381 -33 381 -33 409 -23.5 c 128,-1,20
 437 -14 437 -14 466 3 c 128,-1,21
 495 20 495 20 523 44 c 128,-1,22
 551 68 551 68 575 97 c 0,23,24
 610 139 610 139 638 192.5 c 128,-1,25
 666 246 666 246 685.5 306 c 128,-1,26
 705 366 705 366 715.5 429.5 c 128,-1,27
 726 493 726 493 726 554 c 0,28,29
 726 578 726 578 725 594.5 c 128,-1,30
 724 611 724 611 722.5 622.5 c 128,-1,31
 721 634 721 634 720 641 c 128,-1,32
 719 648 719 648 718 653 c 1,33,34
 730 647 730 647 744.5 638.5 c 128,-1,35
 759 630 759 630 771.5 613.5 c 128,-1,36
 784 597 784 597 792.5 570 c 128,-1,37
 801 543 801 543 801 500 c 0,38,39
 801 430 801 430 784.5 362.5 c 128,-1,40
 768 295 768 295 738.5 234 c 128,-1,41
 709 173 709 173 669 120 c 128,-1,42
 629 67 629 67 583 27 c 0,43,44
 523 -26 523 -26 455 -55 c 128,-1,45
 387 -84 387 -84 324 -84 c 0,46,47
 232 -84 232 -84 183.5 -25.5 c 128,-1,48
 135 33 135 33 135 147 c 0,49,50
 135 208 135 208 148.5 276 c 128,-1,51
 162 344 162 344 186.5 410 c 128,-1,52
 211 476 211 476 245 535.5 c 128,-1,53
 279 595 279 595 319.5 640.5 c 128,-1,54
 360 686 360 686 406.5 713 c 128,-1,55
 453 740 453 740 502 740 c 0,56,57
 518 740 518 740 532 737.5 c 128,-1,58
 546 735 546 735 562 728 c 0,0,1
786 883 m 1,59,60
 807 877 807 877 825.5 857 c 128,-1,61
 844 837 844 837 844 819 c 1,62,63
 806 803 806 803 777.5 792.5 c 128,-1,64
 749 782 749 782 726.5 775.5 c 128,-1,65
 704 769 704 769 687 766.5 c 128,-1,66
 670 764 670 764 654 764 c 0,67,68
 622 764 622 764 599 783 c 1,69,70
 644 793 644 793 694 819.5 c 128,-1,71
 744 846 744 846 786 883 c 1,59,60
EndSplineSet
EndChar

StartChar: Obreve
Encoding: 334 334 79
Width: 723
Flags: W
LayerCount: 2
Fore
SplineSet
562 728 m 0,0,1
 581 720 581 720 601 707.5 c 128,-1,2
 621 695 621 695 638 682 c 128,-1,3
 655 669 655 669 666.5 656.5 c 128,-1,4
 678 644 678 644 679 636 c 1,5,6
 662 640 662 640 645 641.5 c 128,-1,7
 628 643 628 643 614 643 c 0,8,9
 569 643 569 643 524.5 621 c 128,-1,10
 480 599 480 599 440 561 c 128,-1,11
 400 523 400 523 366 472 c 128,-1,12
 332 421 332 421 307.5 363 c 128,-1,13
 283 305 283 305 269 243 c 128,-1,14
 255 181 255 181 255 121 c 0,15,16
 255 43 255 43 281 5 c 128,-1,17
 307 -33 307 -33 357 -33 c 0,18,19
 381 -33 381 -33 409 -23.5 c 128,-1,20
 437 -14 437 -14 466 3 c 128,-1,21
 495 20 495 20 523 44 c 128,-1,22
 551 68 551 68 575 97 c 0,23,24
 610 139 610 139 638 192.5 c 128,-1,25
 666 246 666 246 685.5 306 c 128,-1,26
 705 366 705 366 715.5 429.5 c 128,-1,27
 726 493 726 493 726 554 c 0,28,29
 726 578 726 578 725 594.5 c 128,-1,30
 724 611 724 611 722.5 622.5 c 128,-1,31
 721 634 721 634 720 641 c 128,-1,32
 719 648 719 648 718 653 c 1,33,34
 730 647 730 647 744.5 638.5 c 128,-1,35
 759 630 759 630 771.5 613.5 c 128,-1,36
 784 597 784 597 792.5 570 c 128,-1,37
 801 543 801 543 801 500 c 0,38,39
 801 430 801 430 784.5 362.5 c 128,-1,40
 768 295 768 295 738.5 234 c 128,-1,41
 709 173 709 173 669 120 c 128,-1,42
 629 67 629 67 583 27 c 0,43,44
 523 -26 523 -26 455 -55 c 128,-1,45
 387 -84 387 -84 324 -84 c 0,46,47
 232 -84 232 -84 183.5 -25.5 c 128,-1,48
 135 33 135 33 135 147 c 0,49,50
 135 208 135 208 148.5 276 c 128,-1,51
 162 344 162 344 186.5 410 c 128,-1,52
 211 476 211 476 245 535.5 c 128,-1,53
 279 595 279 595 319.5 640.5 c 128,-1,54
 360 686 360 686 406.5 713 c 128,-1,55
 453 740 453 740 502 740 c 0,56,57
 518 740 518 740 532 737.5 c 128,-1,58
 546 735 546 735 562 728 c 0,0,1
711 764 m 1,59,60
 691 765 691 765 669 770.5 c 128,-1,61
 647 776 647 776 627.5 786.5 c 128,-1,62
 608 797 608 797 592.5 813 c 128,-1,63
 577 829 577 829 570 852 c 1,64,65
 583 866 583 866 597 873 c 128,-1,66
 611 880 611 880 639 883 c 1,67,68
 653 849 653 849 679.5 835 c 128,-1,69
 706 821 706 821 737 819 c 1,70,71
 775 825 775 825 799.5 840.5 c 128,-1,72
 824 856 824 856 841 880 c 1,73,74
 851 877 851 877 857 861 c 1,75,76
 847 827 847 827 808 801 c 128,-1,77
 769 775 769 775 711 764 c 1,59,60
EndSplineSet
EndChar

StartChar: Ocircumflex
Encoding: 212 212 80
Width: 723
Flags: W
LayerCount: 2
Fore
SplineSet
562 728 m 0,0,1
 581 720 581 720 601 707.5 c 128,-1,2
 621 695 621 695 638 682 c 128,-1,3
 655 669 655 669 666.5 656.5 c 128,-1,4
 678 644 678 644 679 636 c 1,5,6
 662 640 662 640 645 641.5 c 128,-1,7
 628 643 628 643 614 643 c 0,8,9
 569 643 569 643 524.5 621 c 128,-1,10
 480 599 480 599 440 561 c 128,-1,11
 400 523 400 523 366 472 c 128,-1,12
 332 421 332 421 307.5 363 c 128,-1,13
 283 305 283 305 269 243 c 128,-1,14
 255 181 255 181 255 121 c 0,15,16
 255 43 255 43 281 5 c 128,-1,17
 307 -33 307 -33 357 -33 c 0,18,19
 381 -33 381 -33 409 -23.5 c 128,-1,20
 437 -14 437 -14 466 3 c 128,-1,21
 495 20 495 20 523 44 c 128,-1,22
 551 68 551 68 575 97 c 0,23,24
 610 139 610 139 638 192.5 c 128,-1,25
 666 246 666 246 685.5 306 c 128,-1,26
 705 366 705 366 715.5 429.5 c 128,-1,27
 726 493 726 493 726 554 c 0,28,29
 726 578 726 578 725 594.5 c 128,-1,30
 724 611 724 611 722.5 622.5 c 128,-1,31
 721 634 721 634 720 641 c 128,-1,32
 719 648 719 648 718 653 c 1,33,34
 730 647 730 647 744.5 638.5 c 128,-1,35
 759 630 759 630 771.5 613.5 c 128,-1,36
 784 597 784 597 792.5 570 c 128,-1,37
 801 543 801 543 801 500 c 0,38,39
 801 430 801 430 784.5 362.5 c 128,-1,40
 768 295 768 295 738.5 234 c 128,-1,41
 709 173 709 173 669 120 c 128,-1,42
 629 67 629 67 583 27 c 0,43,44
 523 -26 523 -26 455 -55 c 128,-1,45
 387 -84 387 -84 324 -84 c 0,46,47
 232 -84 232 -84 183.5 -25.5 c 128,-1,48
 135 33 135 33 135 147 c 0,49,50
 135 208 135 208 148.5 276 c 128,-1,51
 162 344 162 344 186.5 410 c 128,-1,52
 211 476 211 476 245 535.5 c 128,-1,53
 279 595 279 595 319.5 640.5 c 128,-1,54
 360 686 360 686 406.5 713 c 128,-1,55
 453 740 453 740 502 740 c 0,56,57
 518 740 518 740 532 737.5 c 128,-1,58
 546 735 546 735 562 728 c 0,0,1
750 882 m 1,59,60
 757 826 757 826 768 797 c 128,-1,61
 779 768 779 768 802 754 c 1,62,63
 800 753 800 753 793 753 c 0,64,65
 768 753 768 753 741.5 768.5 c 128,-1,66
 715 784 715 784 694 809 c 1,67,68
 667 789 667 789 636 776.5 c 128,-1,69
 605 764 605 764 582 764 c 0,70,71
 567 764 567 764 553.5 768.5 c 128,-1,72
 540 773 540 773 528 786 c 1,73,74
 604 805 604 805 665 857 c 1,75,76
 663 861 663 861 661 869 c 1,77,78
 681 883 681 883 722 883 c 0,79,80
 734 883 734 883 739.5 883 c 128,-1,81
 745 883 745 883 750 882 c 1,59,60
EndSplineSet
EndChar

StartChar: Odieresis
Encoding: 214 214 81
Width: 723
Flags: W
LayerCount: 2
Fore
SplineSet
562 728 m 0,0,1
 581 720 581 720 601 707.5 c 128,-1,2
 621 695 621 695 638 682 c 128,-1,3
 655 669 655 669 666.5 656.5 c 128,-1,4
 678 644 678 644 679 636 c 1,5,6
 662 640 662 640 645 641.5 c 128,-1,7
 628 643 628 643 614 643 c 0,8,9
 569 643 569 643 524.5 621 c 128,-1,10
 480 599 480 599 440 561 c 128,-1,11
 400 523 400 523 366 472 c 128,-1,12
 332 421 332 421 307.5 363 c 128,-1,13
 283 305 283 305 269 243 c 128,-1,14
 255 181 255 181 255 121 c 0,15,16
 255 43 255 43 281 5 c 128,-1,17
 307 -33 307 -33 357 -33 c 0,18,19
 381 -33 381 -33 409 -23.5 c 128,-1,20
 437 -14 437 -14 466 3 c 128,-1,21
 495 20 495 20 523 44 c 128,-1,22
 551 68 551 68 575 97 c 0,23,24
 610 139 610 139 638 192.5 c 128,-1,25
 666 246 666 246 685.5 306 c 128,-1,26
 705 366 705 366 715.5 429.5 c 128,-1,27
 726 493 726 493 726 554 c 0,28,29
 726 578 726 578 725 594.5 c 128,-1,30
 724 611 724 611 722.5 622.5 c 128,-1,31
 721 634 721 634 720 641 c 128,-1,32
 719 648 719 648 718 653 c 1,33,34
 730 647 730 647 744.5 638.5 c 128,-1,35
 759 630 759 630 771.5 613.5 c 128,-1,36
 784 597 784 597 792.5 570 c 128,-1,37
 801 543 801 543 801 500 c 0,38,39
 801 430 801 430 784.5 362.5 c 128,-1,40
 768 295 768 295 738.5 234 c 128,-1,41
 709 173 709 173 669 120 c 128,-1,42
 629 67 629 67 583 27 c 0,43,44
 523 -26 523 -26 455 -55 c 128,-1,45
 387 -84 387 -84 324 -84 c 0,46,47
 232 -84 232 -84 183.5 -25.5 c 128,-1,48
 135 33 135 33 135 147 c 0,49,50
 135 208 135 208 148.5 276 c 128,-1,51
 162 344 162 344 186.5 410 c 128,-1,52
 211 476 211 476 245 535.5 c 128,-1,53
 279 595 279 595 319.5 640.5 c 128,-1,54
 360 686 360 686 406.5 713 c 128,-1,55
 453 740 453 740 502 740 c 0,56,57
 518 740 518 740 532 737.5 c 128,-1,58
 546 735 546 735 562 728 c 0,0,1
598 788 m 1,59,60
 598 803 598 803 600 819.5 c 128,-1,61
 602 836 602 836 608 849.5 c 128,-1,62
 614 863 614 863 625.5 872.5 c 128,-1,63
 637 882 637 882 656 883 c 1,64,65
 669 881 669 881 691.5 868.5 c 128,-1,66
 714 856 714 856 724 839 c 1,67,68
 724 839 724 839 715.5 828 c 128,-1,69
 707 817 707 817 695.5 804 c 128,-1,70
 684 791 684 791 673.5 779 c 128,-1,71
 663 767 663 767 659 764 c 1,72,73
 634 769 634 769 618.5 774 c 128,-1,74
 603 779 603 779 598 788 c 1,59,60
729 788 m 1,75,76
 729 804 729 804 731 820.5 c 128,-1,77
 733 837 733 837 739 850.5 c 128,-1,78
 745 864 745 864 756 873 c 128,-1,79
 767 882 767 882 785 883 c 0,80,81
 791 883 791 883 800.5 879 c 128,-1,82
 810 875 810 875 820 869 c 128,-1,83
 830 863 830 863 839 855 c 128,-1,84
 848 847 848 847 854 839 c 0,85,86
 854 838 854 838 845.5 827 c 128,-1,87
 837 816 837 816 826 802.5 c 128,-1,88
 815 789 815 789 804 777 c 128,-1,89
 793 765 793 765 787 763 c 1,90,91
 764 766 764 766 749.5 773 c 128,-1,92
 735 780 735 780 729 788 c 1,75,76
EndSplineSet
EndChar

StartChar: Ograve
Encoding: 210 210 82
Width: 723
Flags: W
LayerCount: 2
Fore
SplineSet
562 728 m 0,0,1
 581 720 581 720 601 707.5 c 128,-1,2
 621 695 621 695 638 682 c 128,-1,3
 655 669 655 669 666.5 656.5 c 128,-1,4
 678 644 678 644 679 636 c 1,5,6
 662 640 662 640 645 641.5 c 128,-1,7
 628 643 628 643 614 643 c 0,8,9
 569 643 569 643 524.5 621 c 128,-1,10
 480 599 480 599 440 561 c 128,-1,11
 400 523 400 523 366 472 c 128,-1,12
 332 421 332 421 307.5 363 c 128,-1,13
 283 305 283 305 269 243 c 128,-1,14
 255 181 255 181 255 121 c 0,15,16
 255 43 255 43 281 5 c 128,-1,17
 307 -33 307 -33 357 -33 c 0,18,19
 381 -33 381 -33 409 -23.5 c 128,-1,20
 437 -14 437 -14 466 3 c 128,-1,21
 495 20 495 20 523 44 c 128,-1,22
 551 68 551 68 575 97 c 0,23,24
 610 139 610 139 638 192.5 c 128,-1,25
 666 246 666 246 685.5 306 c 128,-1,26
 705 366 705 366 715.5 429.5 c 128,-1,27
 726 493 726 493 726 554 c 0,28,29
 726 578 726 578 725 594.5 c 128,-1,30
 724 611 724 611 722.5 622.5 c 128,-1,31
 721 634 721 634 720 641 c 128,-1,32
 719 648 719 648 718 653 c 1,33,34
 730 647 730 647 744.5 638.5 c 128,-1,35
 759 630 759 630 771.5 613.5 c 128,-1,36
 784 597 784 597 792.5 570 c 128,-1,37
 801 543 801 543 801 500 c 0,38,39
 801 430 801 430 784.5 362.5 c 128,-1,40
 768 295 768 295 738.5 234 c 128,-1,41
 709 173 709 173 669 120 c 128,-1,42
 629 67 629 67 583 27 c 0,43,44
 523 -26 523 -26 455 -55 c 128,-1,45
 387 -84 387 -84 324 -84 c 0,46,47
 232 -84 232 -84 183.5 -25.5 c 128,-1,48
 135 33 135 33 135 147 c 0,49,50
 135 208 135 208 148.5 276 c 128,-1,51
 162 344 162 344 186.5 410 c 128,-1,52
 211 476 211 476 245 535.5 c 128,-1,53
 279 595 279 595 319.5 640.5 c 128,-1,54
 360 686 360 686 406.5 713 c 128,-1,55
 453 740 453 740 502 740 c 0,56,57
 518 740 518 740 532 737.5 c 128,-1,58
 546 735 546 735 562 728 c 0,0,1
606 883 m 1,59,60
 648 846 648 846 698 819.5 c 128,-1,61
 748 793 748 793 793 783 c 1,62,63
 770 764 770 764 738 764 c 0,64,65
 722 764 722 764 705 766.5 c 128,-1,66
 688 769 688 769 665.5 775.5 c 128,-1,67
 643 782 643 782 614.5 792.5 c 128,-1,68
 586 803 586 803 548 819 c 1,69,70
 548 828 548 828 553 838 c 128,-1,71
 558 848 558 848 566.5 857 c 128,-1,72
 575 866 575 866 585 873 c 128,-1,73
 595 880 595 880 606 883 c 1,59,60
EndSplineSet
EndChar

StartChar: Ohungarumlaut
Encoding: 336 336 83
Width: 723
Flags: W
LayerCount: 2
Fore
SplineSet
562 728 m 0,0,1
 581 720 581 720 601 707.5 c 128,-1,2
 621 695 621 695 638 682 c 128,-1,3
 655 669 655 669 666.5 656.5 c 128,-1,4
 678 644 678 644 679 636 c 1,5,6
 662 640 662 640 645 641.5 c 128,-1,7
 628 643 628 643 614 643 c 0,8,9
 569 643 569 643 524.5 621 c 128,-1,10
 480 599 480 599 440 561 c 128,-1,11
 400 523 400 523 366 472 c 128,-1,12
 332 421 332 421 307.5 363 c 128,-1,13
 283 305 283 305 269 243 c 128,-1,14
 255 181 255 181 255 121 c 0,15,16
 255 43 255 43 281 5 c 128,-1,17
 307 -33 307 -33 357 -33 c 0,18,19
 381 -33 381 -33 409 -23.5 c 128,-1,20
 437 -14 437 -14 466 3 c 128,-1,21
 495 20 495 20 523 44 c 128,-1,22
 551 68 551 68 575 97 c 0,23,24
 610 139 610 139 638 192.5 c 128,-1,25
 666 246 666 246 685.5 306 c 128,-1,26
 705 366 705 366 715.5 429.5 c 128,-1,27
 726 493 726 493 726 554 c 0,28,29
 726 578 726 578 725 594.5 c 128,-1,30
 724 611 724 611 722.5 622.5 c 128,-1,31
 721 634 721 634 720 641 c 128,-1,32
 719 648 719 648 718 653 c 1,33,34
 730 647 730 647 744.5 638.5 c 128,-1,35
 759 630 759 630 771.5 613.5 c 128,-1,36
 784 597 784 597 792.5 570 c 128,-1,37
 801 543 801 543 801 500 c 0,38,39
 801 430 801 430 784.5 362.5 c 128,-1,40
 768 295 768 295 738.5 234 c 128,-1,41
 709 173 709 173 669 120 c 128,-1,42
 629 67 629 67 583 27 c 0,43,44
 523 -26 523 -26 455 -55 c 128,-1,45
 387 -84 387 -84 324 -84 c 0,46,47
 232 -84 232 -84 183.5 -25.5 c 128,-1,48
 135 33 135 33 135 147 c 0,49,50
 135 208 135 208 148.5 276 c 128,-1,51
 162 344 162 344 186.5 410 c 128,-1,52
 211 476 211 476 245 535.5 c 128,-1,53
 279 595 279 595 319.5 640.5 c 128,-1,54
 360 686 360 686 406.5 713 c 128,-1,55
 453 740 453 740 502 740 c 0,56,57
 518 740 518 740 532 737.5 c 128,-1,58
 546 735 546 735 562 728 c 0,0,1
648 883 m 1,59,60
 671 880 671 880 695 872.5 c 128,-1,61
 719 865 719 865 731 851 c 1,62,63
 705 815 705 815 672.5 789.5 c 128,-1,64
 640 764 640 764 613 764 c 0,65,66
 596 764 596 764 577 775 c 1,67,68
 601 795 601 795 617.5 821 c 128,-1,69
 634 847 634 847 648 883 c 1,59,60
788 883 m 1,70,71
 811 880 811 880 835 872.5 c 128,-1,72
 859 865 859 865 871 851 c 1,73,74
 845 815 845 815 812.5 789.5 c 128,-1,75
 780 764 780 764 753 764 c 0,76,77
 736 764 736 764 717 775 c 1,78,79
 741 795 741 795 757.5 821 c 128,-1,80
 774 847 774 847 788 883 c 1,70,71
EndSplineSet
EndChar

StartChar: Omacron
Encoding: 332 332 84
Width: 723
Flags: W
LayerCount: 2
Fore
SplineSet
562 728 m 0,0,1
 581 720 581 720 601 707.5 c 128,-1,2
 621 695 621 695 638 682 c 128,-1,3
 655 669 655 669 666.5 656.5 c 128,-1,4
 678 644 678 644 679 636 c 1,5,6
 662 640 662 640 645 641.5 c 128,-1,7
 628 643 628 643 614 643 c 0,8,9
 569 643 569 643 524.5 621 c 128,-1,10
 480 599 480 599 440 561 c 128,-1,11
 400 523 400 523 366 472 c 128,-1,12
 332 421 332 421 307.5 363 c 128,-1,13
 283 305 283 305 269 243 c 128,-1,14
 255 181 255 181 255 121 c 0,15,16
 255 43 255 43 281 5 c 128,-1,17
 307 -33 307 -33 357 -33 c 0,18,19
 381 -33 381 -33 409 -23.5 c 128,-1,20
 437 -14 437 -14 466 3 c 128,-1,21
 495 20 495 20 523 44 c 128,-1,22
 551 68 551 68 575 97 c 0,23,24
 610 139 610 139 638 192.5 c 128,-1,25
 666 246 666 246 685.5 306 c 128,-1,26
 705 366 705 366 715.5 429.5 c 128,-1,27
 726 493 726 493 726 554 c 0,28,29
 726 578 726 578 725 594.5 c 128,-1,30
 724 611 724 611 722.5 622.5 c 128,-1,31
 721 634 721 634 720 641 c 128,-1,32
 719 648 719 648 718 653 c 1,33,34
 730 647 730 647 744.5 638.5 c 128,-1,35
 759 630 759 630 771.5 613.5 c 128,-1,36
 784 597 784 597 792.5 570 c 128,-1,37
 801 543 801 543 801 500 c 0,38,39
 801 430 801 430 784.5 362.5 c 128,-1,40
 768 295 768 295 738.5 234 c 128,-1,41
 709 173 709 173 669 120 c 128,-1,42
 629 67 629 67 583 27 c 0,43,44
 523 -26 523 -26 455 -55 c 128,-1,45
 387 -84 387 -84 324 -84 c 0,46,47
 232 -84 232 -84 183.5 -25.5 c 128,-1,48
 135 33 135 33 135 147 c 0,49,50
 135 208 135 208 148.5 276 c 128,-1,51
 162 344 162 344 186.5 410 c 128,-1,52
 211 476 211 476 245 535.5 c 128,-1,53
 279 595 279 595 319.5 640.5 c 128,-1,54
 360 686 360 686 406.5 713 c 128,-1,55
 453 740 453 740 502 740 c 0,56,57
 518 740 518 740 532 737.5 c 128,-1,58
 546 735 546 735 562 728 c 0,0,1
537 866 m 1,59,60
 582 863 582 863 628 863 c 0,61,62
 734 863 734 863 823 883 c 1,63,64
 830 872 830 872 835.5 848.5 c 128,-1,65
 841 825 841 825 841 806 c 1,66,67
 804 799 804 799 765 798 c 128,-1,68
 726 797 726 797 687 797 c 0,69,70
 594 797 594 797 535 810 c 1,71,72
 536 818 536 818 536.5 830.5 c 128,-1,73
 537 843 537 843 537 866 c 1,59,60
EndSplineSet
EndChar

StartChar: Oogonek
Encoding: 490 490 85
Width: 723
Flags: W
LayerCount: 2
Fore
SplineSet
203 -215 m 0,0,1
 203 -177 203 -177 226 -140.5 c 128,-1,2
 249 -104 249 -104 284 -81 c 1,3,4
 211 -69 211 -69 173 -11.5 c 128,-1,5
 135 46 135 46 135 147 c 0,6,7
 135 208 135 208 148.5 276 c 128,-1,8
 162 344 162 344 186.5 410 c 128,-1,9
 211 476 211 476 245 535.5 c 128,-1,10
 279 595 279 595 319.5 640.5 c 128,-1,11
 360 686 360 686 406.5 713 c 128,-1,12
 453 740 453 740 502 740 c 0,13,14
 518 740 518 740 532 737.5 c 128,-1,15
 546 735 546 735 562 728 c 0,16,17
 581 720 581 720 601 707.5 c 128,-1,18
 621 695 621 695 638 682 c 128,-1,19
 655 669 655 669 666.5 656.5 c 128,-1,20
 678 644 678 644 679 636 c 1,21,22
 662 640 662 640 645 641.5 c 128,-1,23
 628 643 628 643 614 643 c 0,24,25
 569 643 569 643 524.5 621 c 128,-1,26
 480 599 480 599 440 561 c 128,-1,27
 400 523 400 523 366 472 c 128,-1,28
 332 421 332 421 307.5 363 c 128,-1,29
 283 305 283 305 269 243 c 128,-1,30
 255 181 255 181 255 121 c 0,31,32
 255 43 255 43 281 5 c 128,-1,33
 307 -33 307 -33 357 -33 c 0,34,35
 381 -33 381 -33 409 -23.5 c 128,-1,36
 437 -14 437 -14 466 3 c 128,-1,37
 495 20 495 20 523 44 c 128,-1,38
 551 68 551 68 575 97 c 0,39,40
 610 139 610 139 638 192.5 c 128,-1,41
 666 246 666 246 685.5 306 c 128,-1,42
 705 366 705 366 715.5 429.5 c 128,-1,43
 726 493 726 493 726 554 c 0,44,45
 726 578 726 578 725 594.5 c 128,-1,46
 724 611 724 611 722.5 622.5 c 128,-1,47
 721 634 721 634 720 641 c 128,-1,48
 719 648 719 648 718 653 c 1,49,50
 730 647 730 647 744.5 638.5 c 128,-1,51
 759 630 759 630 771.5 613.5 c 128,-1,52
 784 597 784 597 792.5 570 c 128,-1,53
 801 543 801 543 801 500 c 0,54,55
 801 430 801 430 784.5 362.5 c 128,-1,56
 768 295 768 295 738.5 234 c 128,-1,57
 709 173 709 173 669 120 c 128,-1,58
 629 67 629 67 583 27 c 0,59,60
 531 -18 531 -18 473.5 -45.5 c 128,-1,61
 416 -73 416 -73 360 -81 c 1,62,63
 343 -88 343 -88 327 -101.5 c 128,-1,64
 311 -115 311 -115 298 -134 c 128,-1,65
 285 -153 285 -153 277 -176.5 c 128,-1,66
 269 -200 269 -200 269 -227 c 0,67,68
 269 -253 269 -253 280 -263.5 c 128,-1,69
 291 -274 291 -274 308 -274 c 0,70,71
 321 -274 321 -274 336 -269 c 128,-1,72
 351 -264 351 -264 365.5 -257 c 128,-1,73
 380 -250 380 -250 393 -242 c 128,-1,74
 406 -234 406 -234 415 -228 c 1,75,-1
 421 -240 l 1,76,77
 411 -252 411 -252 396 -264.5 c 128,-1,78
 381 -277 381 -277 364.5 -287 c 128,-1,79
 348 -297 348 -297 333 -304 c 128,-1,80
 318 -311 318 -311 308 -312 c 1,81,82
 288 -311 288 -311 269 -303.5 c 128,-1,83
 250 -296 250 -296 235.5 -283.5 c 128,-1,84
 221 -271 221 -271 212 -254 c 128,-1,85
 203 -237 203 -237 203 -215 c 0,0,1
EndSplineSet
EndChar

StartChar: Oslash
Encoding: 216 216 86
Width: 723
Flags: W
LayerCount: 2
Fore
SplineSet
562 728 m 0,0,1
 581 720 581 720 601 707.5 c 128,-1,2
 621 695 621 695 638 682 c 128,-1,3
 655 669 655 669 666.5 656.5 c 128,-1,4
 678 644 678 644 679 636 c 1,5,6
 662 640 662 640 645 641.5 c 128,-1,7
 628 643 628 643 614 643 c 0,8,9
 569 643 569 643 524.5 621 c 128,-1,10
 480 599 480 599 440 561 c 128,-1,11
 400 523 400 523 366 472 c 128,-1,12
 332 421 332 421 307.5 363 c 128,-1,13
 283 305 283 305 269 243 c 128,-1,14
 255 181 255 181 255 121 c 0,15,16
 255 110 255 110 255.5 99.5 c 128,-1,17
 256 89 256 89 257 79 c 1,18,19
 317 128 317 128 381 189 c 128,-1,20
 445 250 445 250 507 315 c 128,-1,21
 569 380 569 380 625 445 c 128,-1,22
 681 510 681 510 726 568 c 1,23,24
 725 597 725 597 722.5 620 c 128,-1,25
 720 643 720 643 718 653 c 1,26,27
 729 648 729 648 741.5 640.5 c 128,-1,28
 754 633 754 633 765 621 c 1,29,30
 788 653 788 653 804.5 681 c 128,-1,31
 821 709 821 709 830 731 c 1,32,33
 854 731 854 731 871.5 722 c 128,-1,34
 889 713 889 713 896 696 c 1,35,36
 846 628 846 628 794 564 c 1,37,38
 797 550 797 550 799 534.5 c 128,-1,39
 801 519 801 519 801 500 c 0,40,41
 801 430 801 430 784.5 362.5 c 128,-1,42
 768 295 768 295 738.5 234 c 128,-1,43
 709 173 709 173 669 120 c 128,-1,44
 629 67 629 67 583 27 c 0,45,46
 523 -26 523 -26 455 -55 c 128,-1,47
 387 -84 387 -84 324 -84 c 0,48,49
 234 -84 234 -84 186 -28 c 1,50,51
 147 -55 147 -55 111 -76 c 1,52,53
 100 -74 100 -74 93 -63 c 128,-1,54
 86 -52 86 -52 85 -38 c 1,55,56
 102 -30 102 -30 121.5 -18 c 128,-1,57
 141 -6 141 -6 162 8 c 1,58,59
 135 62 135 62 135 147 c 0,60,61
 135 208 135 208 148.5 276 c 128,-1,62
 162 344 162 344 186.5 410 c 128,-1,63
 211 476 211 476 245 535.5 c 128,-1,64
 279 595 279 595 319.5 640.5 c 128,-1,65
 360 686 360 686 406.5 713 c 128,-1,66
 453 740 453 740 502 740 c 0,67,68
 518 740 518 740 532 737.5 c 128,-1,69
 546 735 546 735 562 728 c 0,0,1
722 478 m 1,70,71
 609 346 609 346 492.5 231.5 c 128,-1,72
 376 117 376 117 268 32 c 1,73,74
 292 -33 292 -33 357 -33 c 0,75,76
 381 -33 381 -33 409 -23.5 c 128,-1,77
 437 -14 437 -14 466 3 c 128,-1,78
 495 20 495 20 523 44 c 128,-1,79
 551 68 551 68 575 97 c 0,80,81
 605 132 605 132 629.5 176 c 128,-1,82
 654 220 654 220 672.5 269.5 c 128,-1,83
 691 319 691 319 703.5 372 c 128,-1,84
 716 425 716 425 722 478 c 1,70,71
EndSplineSet
EndChar

StartChar: Oslashacute
Encoding: 510 510 87
Width: 723
Flags: W
LayerCount: 2
Fore
SplineSet
562 728 m 0,0,1
 581 720 581 720 601 707.5 c 128,-1,2
 621 695 621 695 638 682 c 128,-1,3
 655 669 655 669 666.5 656.5 c 128,-1,4
 678 644 678 644 679 636 c 1,5,6
 662 640 662 640 645 641.5 c 128,-1,7
 628 643 628 643 614 643 c 0,8,9
 569 643 569 643 524.5 621 c 128,-1,10
 480 599 480 599 440 561 c 128,-1,11
 400 523 400 523 366 472 c 128,-1,12
 332 421 332 421 307.5 363 c 128,-1,13
 283 305 283 305 269 243 c 128,-1,14
 255 181 255 181 255 121 c 0,15,16
 255 110 255 110 255.5 99.5 c 128,-1,17
 256 89 256 89 257 79 c 1,18,19
 317 128 317 128 381 189 c 128,-1,20
 445 250 445 250 507 315 c 128,-1,21
 569 380 569 380 625 445 c 128,-1,22
 681 510 681 510 726 568 c 1,23,24
 725 609 725 609 722.5 626 c 128,-1,25
 720 643 720 643 718 653 c 1,26,27
 729 648 729 648 741.5 640.5 c 128,-1,28
 754 633 754 633 765 621 c 1,29,30
 788 653 788 653 804.5 681 c 128,-1,31
 821 709 821 709 830 731 c 1,32,33
 854 731 854 731 871.5 722 c 128,-1,34
 889 713 889 713 896 696 c 1,35,36
 846 628 846 628 794 564 c 1,37,38
 797 550 797 550 799 534.5 c 128,-1,39
 801 519 801 519 801 500 c 0,40,41
 801 430 801 430 784.5 362.5 c 128,-1,42
 768 295 768 295 738.5 234 c 128,-1,43
 709 173 709 173 669 120 c 128,-1,44
 629 67 629 67 583 27 c 0,45,46
 523 -26 523 -26 455 -55 c 128,-1,47
 387 -84 387 -84 324 -84 c 0,48,49
 234 -84 234 -84 186 -28 c 1,50,51
 147 -55 147 -55 111 -76 c 1,52,53
 100 -74 100 -74 93 -63 c 128,-1,54
 86 -52 86 -52 85 -38 c 1,55,56
 102 -30 102 -30 121.5 -18 c 128,-1,57
 141 -6 141 -6 162 8 c 1,58,59
 135 62 135 62 135 147 c 0,60,61
 135 208 135 208 148.5 276 c 128,-1,62
 162 344 162 344 186.5 410 c 128,-1,63
 211 476 211 476 245 535.5 c 128,-1,64
 279 595 279 595 319.5 640.5 c 128,-1,65
 360 686 360 686 406.5 713 c 128,-1,66
 453 740 453 740 502 740 c 0,67,68
 518 740 518 740 532 737.5 c 128,-1,69
 546 735 546 735 562 728 c 0,0,1
722 478 m 1,70,71
 609 346 609 346 492.5 231.5 c 128,-1,72
 376 117 376 117 268 32 c 1,73,74
 292 -33 292 -33 357 -33 c 0,75,76
 381 -33 381 -33 409 -23.5 c 128,-1,77
 437 -14 437 -14 466 3 c 128,-1,78
 495 20 495 20 523 44 c 128,-1,79
 551 68 551 68 575 97 c 0,80,81
 605 132 605 132 629.5 176 c 128,-1,82
 654 220 654 220 672.5 269.5 c 128,-1,83
 691 319 691 319 703.5 372 c 128,-1,84
 716 425 716 425 722 478 c 1,70,71
786 883 m 1,85,86
 807 877 807 877 825.5 857 c 128,-1,87
 844 837 844 837 844 819 c 1,88,89
 806 803 806 803 777.5 792.5 c 128,-1,90
 749 782 749 782 726.5 775.5 c 128,-1,91
 704 769 704 769 687 766.5 c 128,-1,92
 670 764 670 764 654 764 c 0,93,94
 622 764 622 764 599 783 c 1,95,96
 644 793 644 793 694 819.5 c 128,-1,97
 744 846 744 846 786 883 c 1,85,86
EndSplineSet
EndChar

StartChar: Otilde
Encoding: 213 213 88
Width: 723
Flags: W
LayerCount: 2
Fore
SplineSet
562 728 m 0,0,1
 581 720 581 720 601 707.5 c 128,-1,2
 621 695 621 695 638 682 c 128,-1,3
 655 669 655 669 666.5 656.5 c 128,-1,4
 678 644 678 644 679 636 c 1,5,6
 662 640 662 640 645 641.5 c 128,-1,7
 628 643 628 643 614 643 c 0,8,9
 569 643 569 643 524.5 621 c 128,-1,10
 480 599 480 599 440 561 c 128,-1,11
 400 523 400 523 366 472 c 128,-1,12
 332 421 332 421 307.5 363 c 128,-1,13
 283 305 283 305 269 243 c 128,-1,14
 255 181 255 181 255 121 c 0,15,16
 255 43 255 43 281 5 c 128,-1,17
 307 -33 307 -33 357 -33 c 0,18,19
 381 -33 381 -33 409 -23.5 c 128,-1,20
 437 -14 437 -14 466 3 c 128,-1,21
 495 20 495 20 523 44 c 128,-1,22
 551 68 551 68 575 97 c 0,23,24
 610 139 610 139 638 192.5 c 128,-1,25
 666 246 666 246 685.5 306 c 128,-1,26
 705 366 705 366 715.5 429.5 c 128,-1,27
 726 493 726 493 726 554 c 0,28,29
 726 578 726 578 725 594.5 c 128,-1,30
 724 611 724 611 722.5 622.5 c 128,-1,31
 721 634 721 634 720 641 c 128,-1,32
 719 648 719 648 718 653 c 1,33,34
 730 647 730 647 744.5 638.5 c 128,-1,35
 759 630 759 630 771.5 613.5 c 128,-1,36
 784 597 784 597 792.5 570 c 128,-1,37
 801 543 801 543 801 500 c 0,38,39
 801 430 801 430 784.5 362.5 c 128,-1,40
 768 295 768 295 738.5 234 c 128,-1,41
 709 173 709 173 669 120 c 128,-1,42
 629 67 629 67 583 27 c 0,43,44
 523 -26 523 -26 455 -55 c 128,-1,45
 387 -84 387 -84 324 -84 c 0,46,47
 232 -84 232 -84 183.5 -25.5 c 128,-1,48
 135 33 135 33 135 147 c 0,49,50
 135 208 135 208 148.5 276 c 128,-1,51
 162 344 162 344 186.5 410 c 128,-1,52
 211 476 211 476 245 535.5 c 128,-1,53
 279 595 279 595 319.5 640.5 c 128,-1,54
 360 686 360 686 406.5 713 c 128,-1,55
 453 740 453 740 502 740 c 0,56,57
 518 740 518 740 532 737.5 c 128,-1,58
 546 735 546 735 562 728 c 0,0,1
515 853 m 1,59,60
 562 837 562 837 607 837 c 0,61,62
 645 837 645 837 686 848 c 128,-1,63
 727 859 727 859 778 883 c 1,64,65
 790 871 790 871 799 846 c 128,-1,66
 808 821 808 821 812 803 c 1,67,68
 767 782 767 782 729 776.5 c 128,-1,69
 691 771 691 771 658 771 c 0,70,71
 596 771 596 771 559 794.5 c 128,-1,72
 522 818 522 818 515 853 c 1,59,60
EndSplineSet
EndChar

StartChar: P
Encoding: 80 80 89
Width: 642
Flags: W
LayerCount: 2
Fore
SplineSet
782 539 m 0,0,1
 782 484 782 484 754.5 434 c 128,-1,2
 727 384 727 384 680.5 346.5 c 128,-1,3
 634 309 634 309 571.5 287 c 128,-1,4
 509 265 509 265 439 265 c 0,5,6
 414 265 414 265 399.5 271.5 c 128,-1,7
 385 278 385 278 367 297 c 1,8,9
 317 188 317 188 285.5 96.5 c 128,-1,10
 254 5 254 5 236 -81 c 1,11,12
 198 -72 198 -72 174 -49.5 c 128,-1,13
 150 -27 150 -27 130 7 c 1,14,15
 140 26 140 26 154 57 c 128,-1,16
 168 88 168 88 188 133.5 c 128,-1,17
 208 179 208 179 234.5 242.5 c 128,-1,18
 261 306 261 306 297 391 c 0,19,20
 313 430 313 430 325 459 c 128,-1,21
 337 488 337 488 346 513.5 c 128,-1,22
 355 539 355 539 362.5 564 c 128,-1,23
 370 589 370 589 378 619 c 1,24,25
 331 604 331 604 291.5 584 c 128,-1,26
 252 564 252 564 226 542 c 1,27,28
 217 548 217 548 207.5 560 c 128,-1,29
 198 572 198 572 190 586.5 c 128,-1,30
 182 601 182 601 176 616 c 128,-1,31
 170 631 170 631 169 643 c 1,32,33
 198 663 198 663 241 680 c 128,-1,34
 284 697 284 697 333 709.5 c 128,-1,35
 382 722 382 722 434.5 729 c 128,-1,36
 487 736 487 736 535 736 c 0,37,38
 592 736 592 736 638 721.5 c 128,-1,39
 684 707 684 707 716 681 c 128,-1,40
 748 655 748 655 765 619 c 128,-1,41
 782 583 782 583 782 539 c 0,0,1
604 659 m 0,42,43
 566 659 566 659 526 653 c 1,44,-1
 538 635 l 1,45,46
 528 622 528 622 513 596 c 128,-1,47
 498 570 498 570 480 533.5 c 128,-1,48
 462 497 462 497 440.5 452 c 128,-1,49
 419 407 419 407 395 357 c 1,50,51
 473 357 473 357 537 371.5 c 128,-1,52
 601 386 601 386 646.5 411.5 c 128,-1,53
 692 437 692 437 717.5 471 c 128,-1,54
 743 505 743 505 743 544 c 0,55,56
 743 596 743 596 708 627.5 c 128,-1,57
 673 659 673 659 604 659 c 0,42,43
EndSplineSet
EndChar

